<svg width="660" height="964" viewBox="0 0 660 964" fill="none" xmlns="http://www.w3.org/2000/svg">
<rect width="660" height="964" rx="24" fill="#ECEFF2"/>
<path d="M194.22 490H159.06V501.19H194.22V490Z" fill="#D9DFE6"/>
<path d="M269.16 272H234V283.19H269.16V272Z" fill="#D9DFE6"/>
<path d="M174.61 515.3L157.15 515.6L148.32 515.72H139.45H139V515.26V504.07V503.63H139.5L157.08 503.7L165.87 503.79L174.66 503.9H174.9V504.13L174.61 515.3ZM174.61 515.3L174.37 504.11L174.61 504.35L165.82 504.46L157.03 504.55L139.45 504.63L139.95 504.13V515.32L139.49 514.87H148.2L156.95 514.99L174.61 515.3Z" fill="#D9DFE6"/>
<path d="M251.61 298.67L234.15 298.97L225.32 299.09H216.45H216V298.63V287.44V287H216.5L234.08 287.07L242.87 287.16L251.66 287.27H251.9V287.5L251.61 298.67ZM251.61 298.67L251.37 287.48L251.61 287.72L242.82 287.83L234.03 287.92L216.45 288L216.95 287.5V298.69L216.49 298.24H225.2L233.95 298.36L251.61 298.67Z" fill="#D9DFE6"/>
<path d="M573.31 567.74L555.85 568.03L547.02 568.15H538.15H537.69V567.7V556.51V556H538.19L555.77 556.06L564.56 556.15L573.35 556.26H573.59V556.5L573.31 567.74ZM573.31 567.74L573.07 556.55L573.31 556.78L564.52 556.89L555.73 556.98L538.15 557.04L538.65 556.55L538.6 567.74L538.15 567.28H546.86L555.61 567.4L573.31 567.74Z" fill="#D9DFE6"/>
<path d="M553.69 581.84L536.24 582.14L527.4 582.26H518.54H518.08V581.8V570.62V570.11H518.59L536.17 570.17L544.95 570.26L553.74 570.37H553.99V570.67L553.69 581.84ZM553.69 581.84L553.42 570.67L553.65 570.9L544.86 571.01L536.08 571.1L518.5 571.16L519 570.67L518.95 581.85L518.5 581.4H527.21L535.95 581.52L553.69 581.84Z" fill="#D9DFE6"/>
<path d="M534.16 556.55H499V567.74H534.16V556.55Z" fill="#D9DFE6"/>
<path d="M580.13 669.479H544.97V680.669H580.13V669.479Z" fill="#D9DFE6"/>
<path d="M560.52 323.93H525.36V335.12H560.52V323.93Z" fill="#D9DFE6"/>
<path d="M580.13 349.23L562.67 349.53L553.84 349.65H544.97H544.52V349.19L544.47 338V337.5H544.97L562.55 337.57L571.34 337.66L580.13 337.77H580.37V338L580.13 349.23ZM580.13 349.23L579.89 338L580.13 338.24L571.34 338.35L562.55 338.43L544.97 338.5L545.47 338V349.19L545.01 348.74H553.72L562.47 348.86L580.13 349.23Z" fill="#D9DFE6"/>
<path d="M70 731.5L132.503 731.25L195.006 731.17L320 731L444.994 731.17L507.497 731.25L570 731.5L507.497 731.74L444.994 731.83L320 732L195.006 731.83L132.503 731.74L70 731.5Z" fill="#39434F"/>
<path d="M378.14 496.82C377.878 495.426 377.754 494.009 377.77 492.59C377.749 491.171 377.873 489.754 378.14 488.36C378.41 489.754 378.537 491.171 378.52 492.59C378.532 494.009 378.405 495.426 378.14 496.82Z" fill="#39434F"/>
<path d="M372.13 499.491C370.961 498.691 369.873 497.78 368.88 496.771C367.864 495.777 366.95 494.685 366.15 493.511C368.49 495.139 370.522 497.17 372.15 499.511L372.13 499.491Z" fill="#39434F"/>
<path d="M369.77 505.631C368.379 505.893 366.965 506.017 365.55 506.001C364.131 506.022 362.714 505.898 361.32 505.631C364.115 505.137 366.975 505.137 369.77 505.631Z" fill="#39434F"/>
<path d="M372.45 511.641C370.814 513.974 368.784 516.005 366.45 517.641C367.243 516.464 368.154 515.372 369.17 514.381C370.172 513.363 371.27 512.445 372.45 511.641Z" fill="#39434F"/>
<path d="M378.58 514C379.086 516.794 379.086 519.656 378.58 522.45C378.087 519.655 378.087 516.795 378.58 514Z" fill="#39434F"/>
<path d="M384.59 511.33C386.933 512.954 388.966 514.987 390.59 517.33C389.416 516.537 388.327 515.625 387.34 514.61C386.318 513.609 385.397 512.511 384.59 511.33Z" fill="#39434F"/>
<path d="M387 505.191C389.797 504.684 392.663 504.684 395.46 505.191C392.661 505.684 389.798 505.684 387 505.191Z" fill="#39434F"/>
<path d="M384.28 499.18C385.079 498.008 385.99 496.917 387 495.92C387.993 494.908 389.086 493.996 390.26 493.2C388.624 495.534 386.594 497.564 384.26 499.2L384.28 499.18Z" fill="#39434F"/>
<path d="M425.51 349.6H256.51C254.241 349.614 251.997 350.076 249.906 350.958C247.816 351.841 245.92 353.127 244.327 354.743C242.734 356.359 241.475 358.274 240.623 360.377C239.771 362.48 239.342 364.73 239.36 367V715C239.32 719.578 241.1 723.985 244.309 727.252C247.517 730.519 251.891 732.377 256.47 732.42H425.47C427.741 732.404 429.988 731.941 432.08 731.057C434.172 730.173 436.07 728.885 437.664 727.267C439.259 725.649 440.519 723.733 441.373 721.628C442.227 719.524 442.657 717.271 442.64 715V367C442.672 362.422 440.886 358.018 437.674 354.756C434.463 351.494 430.088 349.639 425.51 349.6ZM431.94 704.27C431.94 713.43 425.08 720.84 416.63 720.84H265.39C256.9 720.84 250.05 713.43 250.05 704.27V380.21C250.05 361.55 256.9 360.64 265.39 360.64H295.68C297.44 360.64 298.88 362.64 298.88 365.12V366.19C298.88 372 302.06 372 306 372H376C380 372 383.09 372 383.09 366.17V365.12C383.09 362.64 384.51 360.64 386.31 360.64H416.61C425.06 360.64 431.92 363.12 431.92 380.21L431.94 704.27Z" fill="#39434F"/>
<path d="M350.55 364.759H331.44C331.127 364.759 330.827 364.635 330.606 364.414C330.384 364.193 330.26 363.892 330.26 363.579C330.26 363.266 330.384 362.966 330.606 362.745C330.827 362.524 331.127 362.399 331.44 362.399H350.55C350.863 362.399 351.163 362.524 351.384 362.745C351.606 362.966 351.73 363.266 351.73 363.579C351.73 363.892 351.606 364.193 351.384 364.414C351.163 364.635 350.863 364.759 350.55 364.759Z" fill="white"/>
<path d="M432 380.21V704.27C432 713.43 425.14 720.84 416.68 720.84H265.39C256.91 720.84 250.05 713.43 250.05 704.27V380.21C250.05 361.55 256.91 360.64 265.39 360.64H295.68C297.44 360.64 298.88 362.64 298.88 365.12V366.19C298.88 372 302.06 372 306 372H376C379.94 372 383.09 372 383.09 366.17V365.12C383.09 362.64 384.51 360.64 386.3 360.64H416.6C425.09 360.64 432 363.12 432 380.21Z" fill="white"/>
<path d="M268.46 401.84L263.08 396.81L268.46 391.77L269.29 392.66L264.87 396.81L269.29 400.95L268.46 401.84Z" fill="#D9DFE6"/>
<path d="M417.86 393.669C417.86 393.879 417.798 394.084 417.681 394.258C417.565 394.433 417.399 394.569 417.206 394.649C417.012 394.729 416.799 394.75 416.593 394.709C416.388 394.668 416.199 394.567 416.05 394.419C415.902 394.271 415.801 394.082 415.76 393.876C415.719 393.671 415.74 393.457 415.821 393.264C415.901 393.07 416.037 392.905 416.211 392.788C416.385 392.672 416.59 392.609 416.8 392.609C416.94 392.608 417.078 392.635 417.207 392.687C417.336 392.74 417.454 392.818 417.553 392.917C417.651 393.016 417.729 393.133 417.782 393.262C417.835 393.391 417.861 393.53 417.86 393.669Z" fill="#D9DFE6"/>
<path d="M417.86 397.429C417.86 397.639 417.798 397.844 417.681 398.018C417.565 398.192 417.399 398.328 417.206 398.408C417.012 398.489 416.799 398.51 416.593 398.469C416.388 398.428 416.199 398.327 416.05 398.179C415.902 398.03 415.801 397.842 415.76 397.636C415.719 397.43 415.74 397.217 415.821 397.024C415.901 396.83 416.037 396.664 416.211 396.548C416.385 396.431 416.59 396.369 416.8 396.369C416.94 396.368 417.078 396.394 417.207 396.447C417.336 396.5 417.454 396.578 417.553 396.677C417.651 396.775 417.729 396.893 417.782 397.022C417.835 397.151 417.861 397.29 417.86 397.429Z" fill="#D9DFE6"/>
<path d="M417.86 401.19C417.86 401.4 417.798 401.605 417.681 401.779C417.565 401.953 417.399 402.089 417.206 402.169C417.012 402.249 416.799 402.27 416.593 402.23C416.388 402.189 416.199 402.088 416.05 401.939C415.902 401.791 415.801 401.602 415.76 401.397C415.719 401.191 415.74 400.978 415.821 400.784C415.901 400.591 416.037 400.425 416.211 400.309C416.385 400.192 416.59 400.13 416.8 400.13C416.94 400.129 417.078 400.155 417.207 400.208C417.336 400.261 417.454 400.339 417.553 400.437C417.651 400.536 417.729 400.654 417.782 400.783C417.835 400.912 417.861 401.05 417.86 401.19Z" fill="#D9DFE6"/>
<path d="M290.45 367.92L290.16 368.21L289.99 368.37C289.241 367.625 288.227 367.207 287.17 367.207C286.113 367.207 285.099 367.625 284.35 368.37L284.19 368.2L283.9 367.91L284.27 367.58C284.538 367.372 284.826 367.191 285.13 367.04C285.49 366.859 285.874 366.731 286.27 366.66C286.45 366.66 286.64 366.66 286.83 366.58H287.33H287.72C288.061 366.627 288.397 366.711 288.72 366.83C288.962 366.922 289.196 367.032 289.42 367.16C289.657 367.296 289.882 367.453 290.09 367.63L290.4 367.91L290.45 367.92Z" fill="#D9DFE6"/>
<path d="M285.28 369.29L284.81 368.83C285.438 368.207 286.286 367.857 287.17 367.857C288.054 367.857 288.903 368.207 289.53 368.83L289.06 369.29C288.558 368.79 287.878 368.51 287.17 368.51C286.462 368.51 285.782 368.79 285.28 369.29Z" fill="#D9DFE6"/>
<path d="M288.6 369.76L288.14 370.22C288.014 370.09 287.863 369.987 287.697 369.916C287.53 369.845 287.351 369.809 287.17 369.809C286.989 369.809 286.81 369.845 286.643 369.916C286.477 369.987 286.326 370.09 286.2 370.22C286.05 370.06 285.89 369.91 285.74 369.76C285.926 369.569 286.149 369.418 286.394 369.315C286.64 369.211 286.904 369.158 287.17 369.158C287.436 369.158 287.7 369.211 287.946 369.315C288.191 369.418 288.414 369.569 288.6 369.76Z" fill="#D9DFE6"/>
<path d="M287.59 370.63C287.59 370.741 287.546 370.848 287.467 370.927C287.388 371.006 287.281 371.05 287.17 371.05C287.115 371.05 287.061 371.039 287.011 371.018C286.96 370.996 286.915 370.965 286.877 370.926C286.838 370.887 286.808 370.841 286.788 370.79C286.768 370.739 286.759 370.685 286.76 370.63C286.76 370.521 286.803 370.417 286.88 370.34C286.957 370.263 287.061 370.22 287.17 370.22C287.225 370.219 287.279 370.228 287.33 370.248C287.381 370.268 287.427 370.298 287.466 370.336C287.506 370.375 287.537 370.42 287.558 370.471C287.579 370.521 287.59 370.575 287.59 370.63Z" fill="#D9DFE6"/>
<path d="M261.91 368.8C261.91 368.56 261.981 368.326 262.115 368.127C262.248 367.927 262.438 367.772 262.659 367.681C262.881 367.59 263.125 367.566 263.36 367.614C263.595 367.661 263.81 367.778 263.979 367.948C264.148 368.118 264.262 368.335 264.308 368.57C264.354 368.805 264.328 369.049 264.235 369.27C264.142 369.491 263.985 369.679 263.785 369.811C263.585 369.943 263.35 370.012 263.11 370.01C262.952 370.01 262.795 369.978 262.649 369.918C262.502 369.857 262.37 369.767 262.258 369.655C262.146 369.542 262.058 369.409 261.999 369.262C261.939 369.115 261.909 368.958 261.91 368.8Z" fill="#D9DFE6"/>
<path d="M265.7 368.8C265.698 368.56 265.767 368.325 265.899 368.125C266.031 367.925 266.219 367.768 266.44 367.675C266.661 367.582 266.904 367.557 267.14 367.602C267.375 367.648 267.592 367.762 267.762 367.931C267.932 368.1 268.048 368.315 268.096 368.55C268.143 368.785 268.12 369.029 268.029 369.251C267.938 369.472 267.782 369.662 267.583 369.795C267.384 369.929 267.15 370 266.91 370C266.591 370 266.285 369.874 266.058 369.649C265.831 369.424 265.703 369.119 265.7 368.8Z" fill="#D9DFE6"/>
<path d="M269.5 368.8C269.498 368.56 269.567 368.325 269.699 368.125C269.831 367.925 270.019 367.768 270.24 367.675C270.461 367.582 270.705 367.557 270.94 367.602C271.175 367.648 271.392 367.762 271.562 367.931C271.732 368.1 271.849 368.315 271.896 368.55C271.944 368.785 271.92 369.029 271.829 369.251C271.738 369.472 271.583 369.662 271.383 369.795C271.184 369.929 270.95 370 270.71 370C270.391 370 270.085 369.874 269.858 369.649C269.631 369.424 269.503 369.119 269.5 368.8Z" fill="#D9DFE6"/>
<path d="M273.3 368.8C273.298 368.56 273.368 368.325 273.5 368.124C273.632 367.924 273.821 367.767 274.042 367.674C274.264 367.581 274.508 367.556 274.744 367.603C274.979 367.649 275.196 367.765 275.366 367.934C275.535 368.104 275.651 368.321 275.697 368.556C275.744 368.792 275.719 369.036 275.626 369.258C275.533 369.479 275.377 369.668 275.176 369.8C274.976 369.932 274.74 370.002 274.5 370C274.343 370 274.186 369.969 274.041 369.909C273.895 369.848 273.763 369.76 273.652 369.649C273.54 369.537 273.452 369.405 273.391 369.259C273.331 369.114 273.3 368.958 273.3 368.8Z" fill="#D9DFE6"/>
<path d="M277.1 368.8C277.098 368.56 277.168 368.325 277.3 368.124C277.432 367.924 277.621 367.767 277.842 367.674C278.064 367.581 278.308 367.556 278.544 367.603C278.779 367.649 278.996 367.765 279.166 367.934C279.335 368.104 279.451 368.321 279.497 368.556C279.544 368.792 279.519 369.036 279.426 369.258C279.333 369.479 279.177 369.668 278.976 369.8C278.775 369.932 278.54 370.002 278.3 370C278.142 370 277.986 369.969 277.841 369.909C277.695 369.848 277.563 369.76 277.451 369.649C277.34 369.537 277.252 369.405 277.191 369.259C277.131 369.114 277.1 368.958 277.1 368.8Z" fill="#D9DFE6"/>
<path d="M418.31 371.44H408.48V366.88H418.31V371.44ZM409 370.93H417.8V367.39H409V370.93Z" fill="#D9DFE6"/>
<path d="M415.63 367.659H409.3V370.659H415.63V367.659Z" fill="#D9DFE6"/>
<path d="M419.18 367.939H418.31V370.369H419.18V367.939Z" fill="#D9DFE6"/>
<path d="M417.2 699.18H407.51V700.56H417.2V699.18Z" fill="#ECEFF2"/>
<path d="M417.2 702.6H407.51V703.99H417.2V702.6Z" fill="#ECEFF2"/>
<path d="M417.2 706.029H407.51V707.419H417.2V706.029Z" fill="#ECEFF2"/>
<path d="M401.58 497.409H280.42V511.799H401.58V497.409Z" fill="#ECEFF2"/>
<path d="M401.58 531.899H280.42V546.289H401.58V531.899Z" fill="#ECEFF2"/>
<path d="M401.58 566.39H280.42V580.78H401.58V566.39Z" fill="#ECEFF2"/>
<path d="M395 503.34C395 503.629 394.914 503.911 394.754 504.151C394.594 504.391 394.366 504.578 394.099 504.689C393.832 504.799 393.538 504.828 393.255 504.772C392.972 504.716 392.712 504.576 392.508 504.372C392.304 504.168 392.164 503.908 392.108 503.625C392.052 503.342 392.081 503.048 392.191 502.781C392.302 502.514 392.489 502.286 392.729 502.126C392.969 501.966 393.251 501.88 393.54 501.88C393.732 501.879 393.923 501.915 394.1 501.988C394.278 502.061 394.44 502.169 394.575 502.305C394.711 502.44 394.819 502.602 394.892 502.78C394.965 502.957 395.001 503.148 395 503.34Z" fill="#C6CED9"/>
<path d="M396.06 507.34H391C391.04 506.698 391.324 506.095 391.793 505.654C392.262 505.214 392.882 504.969 393.525 504.969C394.168 504.969 394.788 505.214 395.257 505.654C395.726 506.095 396.01 506.698 396.05 507.34H396.06Z" fill="#C6CED9"/>
<path d="M369.95 619.489H312.06V636.949H369.95V619.489Z" fill="#9EEACC"/>
<path d="M322.7 629.62C322.739 629.573 322.786 629.534 322.84 629.506C322.893 629.478 322.952 629.46 323.012 629.455C323.073 629.449 323.134 629.455 323.192 629.473C323.25 629.491 323.303 629.521 323.35 629.56C323.831 629.968 324.431 630.21 325.06 630.25C325.459 630.259 325.85 630.144 326.18 629.92C326.293 629.851 326.388 629.756 326.456 629.643C326.524 629.53 326.563 629.402 326.57 629.27C326.569 629.171 326.542 629.074 326.49 628.99C326.418 628.883 326.326 628.792 326.22 628.72C325.839 628.507 325.422 628.365 324.99 628.3C324.594 628.231 324.207 628.114 323.84 627.95C323.5 627.799 323.21 627.557 323 627.25C322.868 627.026 322.799 626.77 322.8 626.51C322.808 626.253 322.876 626.001 323 625.775C323.123 625.549 323.298 625.356 323.51 625.21C323.963 624.89 324.506 624.722 325.06 624.73C325.785 624.757 326.484 625.009 327.06 625.45C327.158 625.518 327.225 625.623 327.248 625.74C327.27 625.858 327.246 625.98 327.18 626.08C327.148 626.131 327.107 626.175 327.058 626.21C327.009 626.245 326.953 626.27 326.895 626.283C326.836 626.296 326.775 626.297 326.716 626.286C326.657 626.275 326.6 626.253 326.55 626.22C326.137 625.885 325.631 625.686 325.1 625.65C324.743 625.642 324.394 625.747 324.1 625.95C324.003 626.01 323.922 626.091 323.863 626.189C323.803 626.286 323.768 626.396 323.76 626.51C323.756 626.597 323.777 626.684 323.82 626.76C323.884 626.854 323.966 626.936 324.06 627C324.406 627.198 324.786 627.33 325.18 627.39C325.607 627.465 326.024 627.593 326.42 627.77C326.783 627.923 327.093 628.181 327.31 628.51C327.453 628.737 327.53 629.001 327.53 629.27C327.523 629.546 327.449 629.817 327.315 630.059C327.181 630.301 326.991 630.507 326.76 630.66C326.274 631 325.693 631.179 325.1 631.17C324.26 631.13 323.456 630.817 322.81 630.28C322.759 630.244 322.716 630.198 322.683 630.146C322.65 630.093 322.627 630.034 322.617 629.973C322.607 629.911 322.609 629.849 322.623 629.788C322.637 629.727 322.663 629.67 322.7 629.62Z" fill="white"/>
<path d="M328.93 625.399C328.929 625.335 328.94 625.27 328.965 625.21C328.989 625.15 329.025 625.096 329.071 625.05C329.116 625.004 329.171 624.968 329.231 624.944C329.291 624.92 329.355 624.908 329.42 624.909C329.551 624.909 329.677 624.961 329.77 625.052C329.864 625.144 329.917 625.268 329.92 625.399V630.689C329.92 630.754 329.907 630.819 329.882 630.879C329.857 630.939 329.82 630.994 329.773 631.039C329.726 631.085 329.671 631.121 329.611 631.145C329.55 631.169 329.485 631.181 329.42 631.179C329.355 631.181 329.291 631.169 329.231 631.145C329.171 631.121 329.116 631.085 329.071 631.039C329.025 630.993 328.989 630.938 328.965 630.878C328.94 630.818 328.929 630.754 328.93 630.689V625.399Z" fill="white"/>
<path d="M331.32 628C331.336 627.388 331.521 626.792 331.855 626.278C332.189 625.765 332.658 625.354 333.212 625.092C333.765 624.83 334.381 624.726 334.989 624.793C335.598 624.86 336.176 625.094 336.66 625.47C336.713 625.511 336.758 625.561 336.791 625.619C336.825 625.677 336.847 625.741 336.856 625.808C336.864 625.874 336.86 625.942 336.843 626.006C336.826 626.071 336.796 626.132 336.755 626.185C336.714 626.238 336.664 626.283 336.606 626.316C336.548 626.35 336.484 626.372 336.417 626.38C336.351 626.389 336.283 626.385 336.219 626.368C336.154 626.35 336.093 626.321 336.04 626.28C335.634 625.964 335.135 625.791 334.62 625.79C334.321 625.784 334.024 625.84 333.747 625.953C333.47 626.067 333.219 626.236 333.01 626.45C332.799 626.649 332.63 626.889 332.515 627.156C332.4 627.422 332.341 627.71 332.341 628C332.341 628.29 332.4 628.577 332.515 628.844C332.63 629.111 332.799 629.351 333.01 629.55C333.221 629.761 333.472 629.927 333.749 630.039C334.026 630.15 334.322 630.205 334.62 630.2C335.053 630.198 335.477 630.08 335.85 629.86V628.63H334.57C334.435 628.63 334.305 628.576 334.209 628.48C334.114 628.385 334.06 628.255 334.06 628.12C334.06 628.053 334.073 627.987 334.099 627.926C334.125 627.865 334.163 627.809 334.21 627.763C334.258 627.716 334.314 627.68 334.376 627.655C334.437 627.63 334.504 627.619 334.57 627.62H336.35C336.417 627.617 336.485 627.628 336.548 627.652C336.611 627.676 336.668 627.712 336.717 627.759C336.765 627.806 336.804 627.862 336.83 627.924C336.857 627.986 336.87 628.052 336.87 628.12V630.12C336.876 630.17 336.876 630.22 336.87 630.27C336.865 630.286 336.865 630.304 336.87 630.32C336.834 630.407 336.771 630.481 336.69 630.53C336.119 630.978 335.416 631.224 334.69 631.23C334.255 631.246 333.821 631.174 333.414 631.02C333.007 630.865 332.636 630.63 332.321 630.328C332.007 630.027 331.756 629.666 331.584 629.266C331.412 628.866 331.322 628.435 331.32 628Z" fill="white"/>
<path d="M339.87 630.69C339.868 630.819 339.815 630.942 339.724 631.034C339.632 631.125 339.509 631.177 339.38 631.18C339.315 631.181 339.251 631.169 339.191 631.145C339.131 631.121 339.076 631.085 339.031 631.039C338.985 630.994 338.949 630.939 338.925 630.879C338.9 630.819 338.889 630.755 338.89 630.69V625.48C338.885 625.399 338.901 625.317 338.936 625.244C338.971 625.171 339.024 625.107 339.09 625.06C339.196 624.988 339.325 624.959 339.452 624.979C339.579 625 339.692 625.068 339.77 625.17L342.66 629.17V625.48C342.663 625.353 342.714 625.233 342.803 625.143C342.893 625.054 343.014 625.002 343.14 625C343.269 625 343.394 625.05 343.487 625.139C343.58 625.229 343.635 625.351 343.64 625.48V630.69C343.637 630.821 343.584 630.945 343.49 631.037C343.397 631.129 343.271 631.18 343.14 631.18C343.07 631.178 343.002 631.161 342.94 631.13C342.878 631.099 342.823 631.055 342.78 631L342.73 630.95L339.87 626.95V630.69Z" fill="white"/>
<path d="M351.06 631.179C350.72 631.179 350.384 631.112 350.07 630.982C349.757 630.852 349.472 630.661 349.232 630.42C348.992 630.179 348.803 629.894 348.674 629.58C348.545 629.265 348.479 628.929 348.48 628.589V625.399C348.479 625.335 348.49 625.27 348.515 625.21C348.539 625.15 348.575 625.096 348.621 625.05C348.666 625.004 348.721 624.968 348.781 624.944C348.841 624.92 348.905 624.908 348.97 624.909C349.101 624.909 349.227 624.961 349.32 625.052C349.414 625.144 349.467 625.268 349.47 625.399V628.589C349.453 628.809 349.481 629.031 349.553 629.239C349.625 629.448 349.74 629.639 349.89 629.801C350.04 629.964 350.221 630.093 350.424 630.182C350.626 630.27 350.844 630.316 351.065 630.316C351.286 630.316 351.504 630.27 351.706 630.182C351.909 630.093 352.09 629.964 352.24 629.801C352.39 629.639 352.505 629.448 352.577 629.239C352.649 629.031 352.678 628.809 352.66 628.589V625.399C352.66 625.334 352.673 625.27 352.698 625.209C352.724 625.149 352.761 625.095 352.807 625.049C352.854 625.004 352.909 624.968 352.969 624.944C353.03 624.92 353.095 624.908 353.16 624.909C353.225 624.908 353.289 624.92 353.349 624.944C353.409 624.968 353.464 625.004 353.51 625.05C353.555 625.096 353.591 625.15 353.616 625.21C353.64 625.27 353.651 625.335 353.65 625.399V628.589C353.651 628.93 353.585 629.267 353.456 629.582C353.326 629.897 353.135 630.183 352.894 630.424C352.654 630.664 352.368 630.855 352.053 630.985C351.738 631.115 351.401 631.181 351.06 631.179Z" fill="white"/>
<path d="M357.85 628.739H356.75V630.689C356.75 630.822 356.697 630.949 356.604 631.043C356.51 631.137 356.383 631.189 356.25 631.189C356.117 631.189 355.99 631.137 355.896 631.043C355.803 630.949 355.75 630.822 355.75 630.689V625.399C355.753 625.27 355.805 625.147 355.896 625.056C355.988 624.964 356.111 624.912 356.24 624.909H357.85C358.113 624.89 358.377 624.926 358.626 625.013C358.875 625.101 359.103 625.239 359.296 625.419C359.489 625.598 359.643 625.816 359.749 626.058C359.854 626.3 359.908 626.561 359.908 626.824C359.908 627.088 359.854 627.349 359.749 627.591C359.643 627.833 359.489 628.05 359.296 628.23C359.103 628.41 358.875 628.548 358.626 628.635C358.377 628.723 358.113 628.758 357.85 628.739ZM356.75 627.739H357.85C357.971 627.739 358.09 627.716 358.202 627.669C358.314 627.623 358.415 627.555 358.501 627.47C358.586 627.384 358.654 627.283 358.7 627.171C358.746 627.06 358.77 626.94 358.77 626.819C358.77 626.698 358.746 626.579 358.7 626.467C358.654 626.356 358.586 626.254 358.501 626.169C358.415 626.083 358.314 626.016 358.202 625.969C358.09 625.923 357.971 625.899 357.85 625.899H356.75V627.739Z" fill="white"/>
<path d="M366.78 434.819C373.142 434.819 378.3 429.662 378.3 423.299C378.3 416.937 373.142 411.779 366.78 411.779C360.418 411.779 355.26 416.937 355.26 423.299C355.26 429.662 360.418 434.819 366.78 434.819Z" fill="#39434F"/>
<path d="M313.5 474.059C317.963 474.059 321.58 470.442 321.58 465.979C321.58 461.517 317.963 457.899 313.5 457.899C309.038 457.899 305.42 461.517 305.42 465.979C305.42 470.442 309.038 474.059 313.5 474.059Z" fill="#ECEFF2"/>
<path d="M357.42 470.58C354.64 472.304 351.601 473.574 348.42 474.34C340.799 476.193 332.759 475.106 325.904 471.294C319.049 467.483 313.883 461.227 311.437 453.774C308.991 446.322 309.444 438.222 312.706 431.089C315.968 423.956 321.799 418.315 329.037 415.292C336.274 412.268 344.385 412.084 351.752 414.777C359.119 417.469 365.2 422.84 368.782 429.817C372.364 436.795 373.184 444.866 371.078 452.422C368.972 459.977 364.095 466.461 357.42 470.58Z" fill="#9EEACC"/>
<path d="M350.51 440.49C350.51 442.366 349.954 444.2 348.912 445.76C347.87 447.321 346.389 448.537 344.657 449.256C342.924 449.975 341.017 450.164 339.176 449.799C337.336 449.435 335.645 448.533 334.317 447.208C332.989 445.882 332.084 444.193 331.715 442.354C331.347 440.514 331.532 438.607 332.247 436.872C332.962 435.138 334.175 433.654 335.733 432.609C337.291 431.564 339.124 431.004 341 431C342.249 430.996 343.485 431.239 344.64 431.714C345.794 432.189 346.843 432.888 347.727 433.77C348.61 434.651 349.311 435.699 349.789 436.852C350.266 438.005 350.512 439.242 350.51 440.49Z" fill="white"/>
<path d="M357.42 466.669V470.579C354.639 472.304 351.601 473.573 348.42 474.339C344.402 475.331 340.226 475.509 336.139 474.861C332.051 474.214 328.135 472.754 324.62 470.569V466.669C324.566 464.482 324.95 462.306 325.75 460.27C326.549 458.234 327.748 456.378 329.276 454.812C330.804 453.246 332.63 452.001 334.646 451.152C336.662 450.302 338.827 449.864 341.015 449.864C343.203 449.864 345.368 450.302 347.384 451.152C349.4 452.001 351.226 453.246 352.754 454.812C354.282 456.378 355.481 458.234 356.28 460.27C357.08 462.306 357.464 464.482 357.41 466.669H357.42Z" fill="white"/>
<path d="M429.38 410.45C429.38 410.45 436.38 459.14 435.91 463.77C435.44 468.4 429.73 513.28 429.73 513.28C429.73 513.28 416.91 510.52 413.21 508.28C410.55 506.69 401.13 498.57 401.13 498.57C401.13 498.57 417.13 467.27 418.45 460.92C419.77 454.57 420.64 423.78 422.17 417.58C422.68 415.723 423.608 414.007 424.884 412.565C426.16 411.123 427.749 409.992 429.53 409.26" fill="#9EEACC"/>
<path d="M414.32 477.999C415.206 479.77 416.571 481.256 418.26 482.289C419.13 482.879 420.81 484.139 421.34 482.509C421.479 481.872 421.402 481.207 421.12 480.619C420.696 479.492 420.08 478.447 419.3 477.529C418.36 476.379 416.8 474.869 415.16 475.149C413.52 475.429 413.83 476.859 414.32 477.999Z" fill="#39434F"/>
<path d="M424.57 485.82C424.718 487.953 425.545 489.982 426.93 491.61C427.62 492.33 428.42 492.56 429.04 492.06C429.66 491.56 429.99 490.48 430.04 489.62C430.259 487.556 429.877 485.472 428.94 483.62C428.35 482.47 427.31 480.87 425.78 481.22C423.86 481.72 424.38 484.41 424.57 485.82Z" fill="#39434F"/>
<path d="M416.75 484.999C415.88 485.679 416.75 488.299 417.56 489.539C418.56 491.119 420.29 492.919 421.72 492.239C422.44 491.889 422.54 489.939 420.96 487.489C419.48 485.239 417.47 484.459 416.75 484.999Z" fill="#39434F"/>
<path d="M412.37 499.44C412.71 500.11 413.45 501.29 414.32 501.33C415.19 501.37 415.32 500.49 415.32 499.85C415.288 498.851 415.103 497.863 414.77 496.92C414.36 495.64 413.6 494.53 412.37 494.46C409.94 494.33 411.93 498.58 412.37 499.44Z" fill="#39434F"/>
<path d="M489.3 637.399C489.3 637.399 511.1 675.999 511.11 675.999C514.61 683.769 517.54 690.649 518.73 694.349C518.735 694.369 518.735 694.39 518.73 694.409C519.101 695.246 519.275 696.155 519.24 697.069C519.24 697.069 519.24 697.119 519.24 697.139C517.63 699.749 456.32 729.549 453.83 729.869C451.34 730.189 450.24 723.119 451.7 720.059C453.16 716.999 471.54 695.059 471.54 695.059L450.13 656.359L489.3 637.399Z" fill="#FFC4C0"/>
<path d="M454.81 729.619C457.29 729.299 517.63 699.729 519.23 697.119V697.049C519.265 696.135 519.091 695.226 518.72 694.389C518.724 694.382 518.726 694.373 518.726 694.364C518.726 694.356 518.724 694.347 518.72 694.339C517.53 690.639 514.6 683.749 511.11 675.979C511.11 675.979 507.43 669.239 505.97 666.899L466.97 687.059L471.51 695.059C471.51 695.059 454.12 716.739 452.66 719.799C451.2 722.859 452.31 729.999 454.81 729.619Z" fill="#ECEFF2"/>
<path d="M453.68 728.79C456.19 728.41 517.28 696.94 518.84 694.26C519.45 693.26 515.38 684.09 510.15 673.15C510.15 673.04 510.04 672.92 509.98 672.81L470.35 692.67L470.71 693.33C470.71 693.33 452.71 715.84 451.3 718.96C449.89 722.08 451.18 729.18 453.68 728.79Z" fill="#9EEACC"/>
<path d="M453.16 726.069C463.32 720.509 504.86 699.069 515.33 694.329C515.41 694.329 515.44 694.329 515.33 694.389C505.33 700.119 463.67 721.239 453.21 726.229C453 726.339 452.94 726.179 453.16 726.069Z" fill="white"/>
<path d="M467.46 695.159C471.12 692.319 476.4 690.379 480.98 691.679C481.16 691.729 481.08 691.979 480.93 691.999C476.416 692.746 471.994 693.973 467.74 695.659C467.675 695.683 467.604 695.683 467.539 695.659C467.474 695.636 467.42 695.589 467.386 695.529C467.352 695.469 467.341 695.398 467.355 695.33C467.368 695.263 467.406 695.202 467.46 695.159Z" fill="#39434F"/>
<path d="M465.44 698.43C469.1 695.58 474.38 693.65 478.96 694.95C479.14 695 479.07 695.25 478.96 695.27C474.446 696.019 470.025 697.246 465.77 698.93C465.704 698.974 465.623 698.989 465.545 698.973C465.467 698.957 465.399 698.911 465.355 698.845C465.311 698.778 465.296 698.697 465.312 698.62C465.328 698.542 465.374 698.474 465.44 698.43Z" fill="#39434F"/>
<path d="M463.42 701.699C467.09 698.849 472.36 696.919 476.95 698.219C477.12 698.219 477.05 698.519 476.9 698.539C472.383 699.287 467.958 700.514 463.7 702.199C463.635 702.223 463.564 702.224 463.499 702.2C463.434 702.176 463.38 702.129 463.346 702.069C463.312 702.009 463.301 701.938 463.315 701.871C463.329 701.803 463.366 701.742 463.42 701.699Z" fill="#39434F"/>
<path d="M503.42 684.85C506.71 680.35 513.7 685.45 510.42 689.96C507.14 694.47 500.13 689.35 503.42 684.85Z" fill="white"/>
<path opacity="0.1" d="M468 696.71L463.61 724.14C460.377 725.857 457.06 727.409 453.67 728.79C451.17 729.18 449.89 722.07 451.28 718.96C452.37 716.6 463 703.11 468 696.71Z" fill="#39434F"/>
<path d="M451.62 727.079C450.75 728.079 452.88 731.619 453.82 731.499C454.76 731.379 521.21 696.779 522.21 695.949C523.21 695.119 520.71 691.259 519.28 691.729C517.85 692.199 451.62 727.079 451.62 727.079Z" fill="#39434F"/>
<path d="M506.07 663.3L462.13 686.76C462.13 686.76 406.67 607.76 405.57 586.96C404.03 558.28 428.52 467.23 428.52 467.23L467.58 466.97C467.58 466.97 451.7 560.6 453 576.57C453.67 584.93 506.07 663.3 506.07 663.3Z" fill="#606873"/>
<path d="M458.3 677.68C460.56 676.05 481.39 663.98 497.25 656.27C497.35 656.27 497.42 656.37 497.33 656.43C492.52 659.61 461.43 676.64 458.42 677.85C458.32 677.89 458.2 677.75 458.3 677.68Z" fill="#39434F"/>
<path d="M447.57 556.569C449.38 542.869 451.38 529.179 453.66 515.569C455.94 501.959 458.35 488.189 461.22 474.569C461.567 472.909 461.924 471.243 462.29 469.569C462.301 469.516 462.332 469.47 462.377 469.44C462.422 469.41 462.477 469.399 462.53 469.409C462.583 469.42 462.63 469.451 462.66 469.496C462.69 469.541 462.701 469.596 462.69 469.649C460.29 483.129 457.81 496.599 455.6 510.109C453.39 523.619 451.32 537.109 449.46 550.729C449 554.089 448.56 557.449 448.12 560.809C447.583 564.273 447.249 567.766 447.12 571.269C447.057 574.615 447.624 577.943 448.79 581.079C450.031 584.145 451.536 587.096 453.29 589.899C460.36 601.849 492 654.089 492.82 655.609C492.88 655.709 492.74 655.809 492.68 655.709C485.08 643.929 461.52 606.289 454.36 594.139C451.12 588.659 447.42 583.139 446.36 576.719C445.28 570.109 446.69 563.159 447.57 556.569Z" fill="#39434F"/>
<path d="M458.82 663.3C458.82 663.3 459.26 707.86 459.26 707.89C459.03 716.41 458.67 723.89 458.12 727.73C458.125 727.75 458.125 727.77 458.12 727.79C458.092 728.705 457.853 729.602 457.42 730.41H457.37C454.79 732.06 386.62 732.16 384.24 731.41C381.86 730.66 383.94 723.77 386.59 721.66C389.24 719.55 415.32 707.83 415.32 707.83V663.3H458.82Z" fill="#FFC4C0"/>
<path d="M459.17 698.739C459.17 698.739 459.26 707.859 459.26 707.889C459.03 716.409 458.67 723.889 458.12 727.729C458.125 727.749 458.125 727.769 458.12 727.789C457.996 728.688 457.761 729.568 457.42 730.409H457.37C454.79 732.059 386.62 732.159 384.24 731.409C381.86 730.659 383.94 723.769 386.59 721.659C389.24 719.549 415.32 707.829 415.32 707.829V698.539L459.17 698.739Z" fill="#ECEFF2"/>
<path d="M384.2 731.33C386.61 732.09 455.32 730.89 457.9 729.18C458.9 728.54 459.3 718.52 459.45 706.4V706L415.11 706.28V707.04C415.11 707.04 389.02 719.26 386.37 721.44C383.72 723.62 381.78 730.57 384.2 731.33Z" fill="#9EEACC"/>
<path d="M384.93 728.65C396.5 728.16 443.24 727.28 454.72 727.65C454.82 727.65 454.82 727.72 454.72 727.73C443.26 728.46 396.52 728.96 384.93 728.81C384.68 728.84 384.68 728.66 384.93 728.65Z" fill="white"/>
<path d="M411.42 707.259C415.96 706.319 421.55 706.929 425.09 710.109C425.23 710.239 425.09 710.429 424.9 710.379C420.52 709.056 416.011 708.201 411.45 707.829C411.383 707.821 411.32 707.789 411.274 707.739C411.228 707.689 411.201 707.625 411.197 707.557C411.193 707.489 411.214 707.422 411.255 707.367C411.295 707.313 411.354 707.275 411.42 707.259Z" fill="#39434F"/>
<path d="M408.17 709.299C412.71 708.359 418.3 708.969 421.83 712.149C421.97 712.279 421.83 712.469 421.65 712.419C417.266 711.096 412.754 710.241 408.19 709.869C408.123 709.859 408.062 709.826 408.017 709.776C407.971 709.725 407.945 709.66 407.943 709.592C407.941 709.525 407.962 709.458 408.004 709.405C408.045 709.351 408.104 709.314 408.17 709.299Z" fill="#39434F"/>
<path d="M404.91 711.34C409.45 710.41 415.04 711.01 418.58 714.19C418.72 714.32 418.58 714.51 418.39 714.47C414.011 713.138 409.502 712.28 404.94 711.91C404.873 711.901 404.811 711.869 404.764 711.819C404.718 711.77 404.691 711.705 404.687 711.637C404.683 711.569 404.704 711.502 404.745 711.448C404.785 711.394 404.844 711.355 404.91 711.34Z" fill="#39434F"/>
<path d="M383.1 728.88C381.88 729.38 382.22 733.5 383.1 733.82C383.98 734.14 458.9 732.489 460.17 732.179C461.44 731.869 460.89 727.31 459.41 727.1C457.93 726.89 383.1 728.88 383.1 728.88Z" fill="#39434F"/>
<path d="M448.24 713.91C453.18 711.34 457.19 719 452.24 721.59C447.29 724.18 443.29 716.5 448.24 713.91Z" fill="white"/>
<path d="M429 467.139C429.26 467.949 443.29 506.409 444.62 507.029C446.11 507.719 413.62 562.319 411.68 587.679C410.45 603.909 412.87 695.679 412.87 695.679H460.39C460.39 695.679 458.1 613.139 457.02 586.979C456.6 576.839 489.65 526.349 490.02 494.899C490.15 484.989 483.02 466.899 483.02 466.899L429 467.139Z" fill="#606873"/>
<path d="M456.78 586.359C456.78 585.939 457.11 585.799 457.14 586.229C458.21 600.389 458.46 614.459 459.14 628.639C459.82 642.819 459.43 646.189 460.06 660.319C460.42 668.319 460.06 676.319 460.26 684.319C460.254 684.339 460.241 684.357 460.224 684.369C460.207 684.382 460.186 684.388 460.165 684.388C460.144 684.388 460.124 684.382 460.107 684.369C460.09 684.357 460.077 684.339 460.07 684.319C458.59 670.259 456.79 594.369 456.78 586.359Z" fill="#39434F"/>
<path d="M411.71 588.28C411.788 584.787 412.123 581.304 412.71 577.86C413.368 574.512 414.353 571.236 415.65 568.08C418.27 561.46 421.38 555 424.35 548.53C427.32 542.06 430.42 535.44 433.59 528.96C435.37 525.32 437.16 521.683 438.96 518.05C440.79 514.38 442.76 510.77 444.67 507.14C444.74 507 444.97 507.14 444.9 507.25C441.85 513.79 438.85 520.35 435.8 526.89C432.75 533.43 429.8 540 426.8 546.56C423.8 553.12 420.91 559.48 418.13 566.01C416.749 569.119 415.615 572.332 414.74 575.62C413.932 579.027 413.443 582.502 413.28 586C412.82 594.11 412.6 602.26 411.8 610.35C411.8 610.45 411.62 610.44 411.62 610.35C411.38 603 411.49 595.61 411.71 588.28Z" fill="#39434F"/>
<path d="M416.34 686.369C419.1 686.009 440.16 685.279 457.77 686.029C457.794 686.029 457.817 686.039 457.834 686.056C457.851 686.072 457.86 686.095 457.86 686.119C457.86 686.143 457.851 686.166 457.834 686.183C457.817 686.2 457.794 686.209 457.77 686.209C452.03 686.719 419.59 686.939 416.36 686.569C416.25 686.559 416.21 686.379 416.34 686.369Z" fill="#39434F"/>
<path d="M438.08 504.929C443.173 506.214 448.145 507.937 452.94 510.079C452.981 510.094 453.015 510.124 453.034 510.164C453.053 510.203 453.055 510.248 453.04 510.289C453.026 510.33 452.995 510.364 452.956 510.383C452.917 510.402 452.871 510.404 452.83 510.389C447.83 508.829 442.77 507.389 437.88 505.529C437.812 505.494 437.759 505.436 437.73 505.366C437.702 505.295 437.699 505.216 437.723 505.144C437.747 505.071 437.797 505.01 437.862 504.97C437.928 504.931 438.005 504.917 438.08 504.929Z" fill="#39434F"/>
<path d="M433.28 472.349C433.28 472.189 433.57 472.119 433.58 472.349C434.13 478.029 435 482.979 436.02 488.229C436.5 490.669 439.87 504.069 444.02 502.639C444.72 502.399 445.02 501.639 445.02 500.569C444.859 499.163 444.523 497.782 444.02 496.459C443.26 493.659 442.58 490.839 442.02 487.989C440.982 482.684 440.489 477.285 440.55 471.879C440.55 471.842 440.565 471.807 440.591 471.78C440.618 471.754 440.653 471.739 440.69 471.739C440.727 471.739 440.763 471.754 440.789 471.78C440.816 471.807 440.83 471.842 440.83 471.879C441.464 479.319 442.657 486.699 444.4 493.959C445.3 497.439 447.63 502.579 443.98 503.509C440.33 504.439 436.92 495.779 436.21 493.379C434.326 486.526 433.341 479.457 433.28 472.349Z" fill="#39434F"/>
<path d="M444 502.999C444.477 503.877 444.895 504.785 445.25 505.719C445.601 506.43 445.814 507.2 445.88 507.989C445.88 508.139 445.69 508.179 445.59 508.089C445.08 507.433 444.669 506.705 444.37 505.929C443.96 505.089 443.53 504.259 443.14 503.409C443.103 503.298 443.108 503.177 443.154 503.07C443.2 502.962 443.283 502.874 443.389 502.824C443.495 502.774 443.615 502.764 443.728 502.796C443.84 502.828 443.937 502.9 444 502.999Z" fill="#39434F"/>
<path d="M451.91 600.32C451.67 593.57 450.91 586.48 453.13 579.96C454.342 576.772 455.793 573.679 457.47 570.71C459.11 567.543 460.727 564.35 462.32 561.13C468.67 548.31 474.65 535.28 479.99 522C482.57 515.61 484.87 509.05 485.79 502.19C486.635 494.981 486.185 487.68 484.46 480.63C484.06 478.87 483.63 477.12 483.15 475.38C483.15 475.26 483.31 475.18 483.35 475.31C485.599 481.962 486.849 488.911 487.06 495.93C487.009 502.654 485.798 509.318 483.48 515.63C481.2 522.27 478.35 528.71 475.54 535.14C472.64 541.753 469.64 548.32 466.54 554.84C463.43 561.32 460.11 567.69 456.83 574.09C455.141 577.128 453.91 580.401 453.18 583.8C452.675 587.319 452.545 590.883 452.79 594.43C453.35 609.38 454.64 659.12 454.79 674.03C454.79 675.92 454.84 677.81 454.86 679.71C454.86 679.87 454.61 679.9 454.6 679.71C453.66 664.85 452.45 615.22 451.91 600.32Z" fill="#39434F"/>
<path d="M462.57 476.82C462.57 476.72 462.74 476.74 462.75 476.82C463.31 480.94 463.63 485.2 465.62 488.93C467.44 492.36 470.62 494.57 474.08 496.11C476.097 496.975 478.156 497.736 480.25 498.39C480.4 498.39 480.37 498.67 480.2 498.63C476.27 497.82 472.28 496.9 468.86 494.69C465.2 492.33 463.32 488.55 462.72 484.32C462.406 481.832 462.356 479.318 462.57 476.82Z" fill="#39434F"/>
<path d="M485.5 470.15C485.41 470.34 422.9 487.37 422.2 486.92C422.13 486.92 419.55 485.48 418.99 480.65C418.83 479.32 420.61 473.65 420.66 469.38C420.8 454.57 420.22 427.07 424.25 412.3C425.33 408.3 433.88 403.78 438.57 406.67C459.7 419.66 485.62 469.9 485.5 470.15Z" fill="#ECEFF2"/>
<path d="M435.43 405.51C435.43 405.51 437.75 437.04 438.59 440.7C439.17 443.26 446.25 469 449.89 487.6C451.45 495.6 450.72 508.11 450.72 508.11C450.72 508.11 472.49 501.04 479.16 496.5C483.02 493.87 491.63 482.5 491.63 482.5C491.63 482.5 477.85 451.93 470 440.45C462.15 428.97 447.23 409.1 440.24 406.2C437.09 404.88 435.43 405.51 435.43 405.51Z" fill="#9EEACC"/>
<path d="M474.4 458.569C473.885 458.838 473.445 459.231 473.12 459.713C472.795 460.195 472.596 460.751 472.54 461.329C472.008 462.922 471.847 464.615 472.07 466.279C472.2 467.179 472.6 468.509 473.77 468.279C474.94 468.049 475.59 466.049 475.9 465.029C476.21 464.009 477.13 457.409 474.4 458.569ZM465.13 466.229C463.85 467.289 463.99 469.469 464.26 470.919C464.445 472.108 464.838 473.256 465.42 474.309C465.689 474.905 466.146 475.397 466.72 475.709C468.31 476.359 468.43 474.269 468.55 473.219C468.86 471.264 468.614 469.261 467.84 467.439C467.32 466.349 466.31 465.249 465.13 466.229ZM469.62 454.049C468.62 453.929 468.09 454.679 467.81 455.669C467.446 456.818 467.314 458.028 467.42 459.229C467.5 459.959 467.66 461.229 468.47 461.529C469.28 461.829 469.93 460.999 470.22 460.349C470.74 459.159 471.78 454.329 469.62 454.049ZM454.46 504.999C453.69 506.569 452.12 505.269 450.86 503.739C450.86 501.929 450.91 499.739 450.86 497.379L451.2 497.659C452.45 498.76 453.438 500.127 454.09 501.659C454.425 502.141 454.635 502.699 454.7 503.282C454.764 503.865 454.682 504.456 454.46 504.999ZM461.65 504.299L459.36 505.129C458.038 504.005 457.035 502.553 456.45 500.919C456.25 500.239 456.16 499.169 457 498.919C457.84 498.669 458.76 499.479 459.3 499.969C460.154 500.811 460.834 501.814 461.3 502.919C461.536 503.34 461.657 503.816 461.65 504.299ZM455.76 450.299C456.71 450.249 457.6 451.599 458.02 452.299C458.691 453.467 459.113 454.761 459.26 456.099C459.36 456.869 459.64 458.499 458.92 459.099C458.05 459.809 457.21 458.999 456.59 457.889C455.359 456.304 454.706 454.346 454.74 452.339C454.75 451.639 454.83 450.359 455.76 450.299ZM462.88 478.299C461.62 479.229 462.16 481.059 462.65 482.249C463.451 484.152 464.78 485.787 466.48 486.959C467.19 487.439 468.26 488.019 469.02 487.739C469.78 487.459 470.14 486.839 470.02 485.839C469.673 483.731 468.661 481.79 467.13 480.299C466.21 479.279 464.51 477.129 462.88 478.339V478.299ZM470.8 478.639C471.64 481.449 473.19 482.639 473.92 482.309C475.36 481.659 475.11 479.199 474.57 477.389C474.15 475.969 472.72 473.609 471.63 473.829C470.74 474.049 470 476.089 470.8 478.679V478.639ZM441.88 429.639C441.521 430.788 440.963 431.864 440.23 432.819C439.62 433.728 438.822 434.495 437.89 435.069C437.72 433.419 437.54 431.509 437.37 429.489C437.862 429.01 438.383 428.563 438.93 428.149C439.77 427.499 441.37 426.149 442 427.749C442.174 428.388 442.132 429.067 441.88 429.679V429.639ZM446.55 428.699C448.09 428.969 449.04 427.319 449.55 426.139C450.375 424.254 450.639 422.171 450.31 420.139C450.17 419.299 449.85 418.139 449.13 417.759C448.41 417.379 447.7 417.579 447.05 418.329C445.771 420.04 445.071 422.113 445.05 424.249C444.93 425.679 444.55 428.399 446.55 428.739V428.699ZM441.33 422.699C439.99 425.049 438.02 425.939 437.27 425.419C437.134 425.32 437.032 425.18 436.98 425.019C436.98 424.629 436.91 424.229 436.87 423.829C436.998 422.779 437.32 421.762 437.82 420.829C438.76 419.189 440.37 417.309 441.82 417.909C442.57 418.289 442.78 420.229 441.33 422.769V422.699ZM483.51 477.809C482.76 478.809 483.11 480.079 483.83 481.219C484.324 482.092 484.955 482.878 485.7 483.549C486.18 483.969 486.96 484.399 487.47 483.749C487.98 483.099 487.59 481.749 487.3 481.039C486.93 480.209 485 475.939 483.51 477.879V477.809ZM463.91 444.229C463.533 444.559 463.266 444.997 463.146 445.483C463.026 445.97 463.059 446.482 463.24 446.949C463.387 447.755 463.664 448.532 464.06 449.249C464.32 449.709 464.81 450.249 465.38 449.889C465.95 449.529 466.01 448.359 465.97 447.739C465.93 446.999 465.58 443.199 463.91 444.299V444.229Z" fill="#39434F"/>
<path d="M428.75 421.69C432.28 420.85 435.25 411.57 435.43 406.59C435.43 406.25 434.11 404.59 432.04 401.32C430.78 399.32 429.44 397.07 428.36 394.93L416.54 404.93C418.661 407.227 420.492 409.776 421.99 412.52C422.136 412.815 422.253 413.123 422.34 413.44C422.358 413.494 422.378 413.547 422.4 413.6C423 415.45 425.34 422.5 428.75 421.69Z" fill="#FFC4C0"/>
<path d="M423.91 415.59C423.67 415.72 423.43 415.83 423.2 415.94C422.82 414.94 422.54 414.12 422.39 413.64C422.377 413.586 422.36 413.532 422.34 413.48C422.251 413.16 422.134 412.849 421.99 412.55C420.49 409.81 418.66 407.264 416.54 404.97L428.36 394.97C428.59 395.42 428.82 395.87 429.07 396.33C430.44 401.21 432 411.29 423.91 415.59Z" fill="#39434F"/>
<path d="M422.66 380.44C426.54 384.44 431.05 399.44 429.23 404.28C426.59 411.23 418.77 415.76 411.98 411.79C405.41 407.94 399.88 388.24 402.24 383.53C405.72 376.58 416.93 374.51 422.66 380.44Z" fill="#FFC4C0"/>
<path d="M413.56 396.109C413.56 396.109 413.65 396.109 413.67 396.169C414 397.169 414.55 398.269 415.57 398.269C415.57 398.269 415.62 398.269 415.57 398.329C414.43 398.579 413.72 397.119 413.56 396.109Z" fill="#39434F"/>
<path d="M414.06 394.75C415.61 394.04 416.92 397.2 415.48 397.85C414.04 398.5 412.76 395.35 414.06 394.75Z" fill="#39434F"/>
<path d="M408 398.479C408 398.479 407.95 398.559 408 398.599C408.43 399.599 408.77 400.739 408 401.429C408 401.429 408 401.499 408 401.429C409 400.879 408.52 399.329 408 398.479Z" fill="#39434F"/>
<path d="M406.66 397.82C405.04 398.35 406.22 401.56 407.72 401.06C409.22 400.56 408 397.38 406.66 397.82Z" fill="#39434F"/>
<path d="M414.51 392.2C414.046 392.262 413.579 392.298 413.11 392.31C412.627 392.422 412.12 392.369 411.67 392.16C411.538 392.068 411.441 391.934 411.393 391.78C411.346 391.626 411.352 391.46 411.41 391.31C411.569 391.034 411.798 390.806 412.074 390.648C412.35 390.49 412.662 390.408 412.98 390.41C413.628 390.315 414.287 390.464 414.83 390.83C414.949 390.92 415.039 391.042 415.09 391.182C415.14 391.322 415.149 391.474 415.115 391.619C415.081 391.764 415.006 391.896 414.899 391.999C414.791 392.102 414.656 392.172 414.51 392.2Z" fill="#39434F"/>
<path d="M404.35 395.669C404.74 395.412 405.114 395.131 405.47 394.829C405.9 394.499 406.27 394.289 406.47 393.749C406.503 393.594 406.483 393.433 406.414 393.29C406.346 393.147 406.232 393.031 406.09 392.959C405.789 392.855 405.466 392.834 405.154 392.9C404.842 392.965 404.554 393.113 404.32 393.329C403.775 393.688 403.382 394.237 403.22 394.869C403.197 395.012 403.214 395.158 403.27 395.291C403.325 395.424 403.417 395.539 403.535 395.623C403.653 395.706 403.792 395.755 403.936 395.763C404.08 395.771 404.224 395.739 404.35 395.669Z" fill="#39434F"/>
<path d="M416.2 401.78C416.111 402.269 415.921 402.734 415.644 403.147C415.367 403.56 415.009 403.912 414.59 404.18C414.229 404.419 413.835 404.604 413.42 404.73L413.18 404.79L412.95 404.85C412.893 404.861 412.834 404.853 412.782 404.828C412.73 404.803 412.687 404.761 412.66 404.71V404.6V404.52C412.33 403.78 411.93 402.6 411.93 402.6C411.71 402.85 410.57 404.06 410.43 403.66C409.116 400.233 408.155 396.682 407.56 393.06C407.567 393.04 407.58 393.023 407.597 393.01C407.614 392.998 407.634 392.991 407.655 392.991C407.676 392.991 407.697 392.998 407.714 393.01C407.731 393.023 407.744 393.04 407.75 393.06C408.98 396.22 409.65 399.58 410.84 402.77C411.244 402.333 411.705 401.953 412.21 401.64C412.33 401.64 412.94 403.93 413.12 404.25C413.762 404.057 414.358 403.737 414.873 403.309C415.388 402.882 415.812 402.355 416.12 401.76C416.12 401.64 416.23 401.68 416.2 401.78Z" fill="#39434F"/>
<path d="M428.18 394.92C425.3 395.45 422.93 388.47 422.93 388.47C422.93 388.47 419.06 388.31 415.88 382.31C415.88 382.31 415.59 389.31 403.65 391.74C402.627 389.823 402.232 387.633 402.52 385.48C402.037 387.832 401.749 390.22 401.66 392.62C401.66 392.62 395.77 383.98 402.81 377.93C405.61 375.53 410.63 374.18 419.34 375.42C419.34 375.42 419.34 370.42 420.34 370.77C421.34 371.12 421.11 375.77 421.11 375.77C421.11 375.77 424.06 373.67 424.84 374.18C425.62 374.69 422.62 376.48 422.62 376.48C424.26 376.522 425.831 377.15 427.047 378.251C428.263 379.352 429.045 380.852 429.25 382.48C430.25 388.13 429.61 394.66 428.18 394.92Z" fill="#39434F"/>
<path d="M421.7 376.739C423.133 376.213 424.709 376.227 426.132 376.779C427.555 377.332 428.728 378.384 429.43 379.739C430.136 381.375 430.457 383.15 430.37 384.929C430.305 386.786 430.006 388.627 429.48 390.409C429.48 390.509 429.3 390.409 429.33 390.349C429.751 388.718 429.92 387.032 429.83 385.349C429.826 383.716 429.566 382.093 429.06 380.539C428.521 379.128 427.468 377.971 426.113 377.302C424.757 376.633 423.199 376.5 421.75 376.929C421.66 376.939 421.61 376.779 421.7 376.739Z" fill="#39434F"/>
<path d="M408.85 374.189C410.951 373.987 413.069 374.061 415.15 374.409C417.144 374.648 419.082 375.226 420.88 376.119C420.97 376.119 420.88 376.309 420.82 376.269C417.14 375.167 413.292 374.737 409.46 374.999C405.92 375.139 402.1 376.399 400.46 379.839C400.46 379.899 400.35 379.839 400.37 379.839C401.7 376.289 405.37 374.579 408.85 374.189Z" fill="#39434F"/>
<path d="M425.47 393.64C425.47 393.64 426.47 387.64 429.01 387.75C431.55 387.86 432.39 395.54 430.43 397.59C430.196 397.869 429.908 398.099 429.583 398.265C429.258 398.431 428.903 398.53 428.54 398.556C428.176 398.582 427.81 398.535 427.465 398.417C427.12 398.299 426.802 398.113 426.53 397.87L425.47 393.64Z" fill="#FFC4C0"/>
<path d="M429.18 390C429.18 390 429.25 390 429.23 390.06C427.88 391.56 427.75 393.54 427.92 395.45C427.936 395.235 427.999 395.026 428.103 394.837C428.208 394.649 428.352 394.485 428.526 394.358C428.7 394.23 428.9 394.142 429.111 394.099C429.322 394.057 429.54 394.06 429.75 394.11C429.81 394.11 429.8 394.21 429.75 394.22C429.41 394.27 429.093 394.424 428.843 394.66C428.592 394.896 428.42 395.203 428.35 395.54C428.243 396.107 428.196 396.683 428.21 397.26C428.21 397.45 427.89 397.5 427.87 397.26C426.78 395.08 427 391.28 429.18 390Z" fill="#39434F"/>
<path d="M448.14 420.8C453.21 438.56 456.43 472.01 453.86 478.09C451.58 483.47 434.45 495.97 424.6 502.65C421.39 504.83 405.85 480.27 409.4 478.13C414.24 475.23 431.59 463.76 432.01 462.52C432.43 461.28 434.01 436.14 436.68 421.73C439.08 408.67 446.23 414.08 448.14 420.8Z" fill="#FFC4C0"/>
<path d="M376.62 507.089C379.05 509.569 384.62 503.089 384.62 503.089C384.309 504.551 384.518 506.075 385.21 507.399C386.55 509.669 390.69 508.57 390.69 508.57C390.691 510.152 391.165 511.698 392.05 513.009C393.55 515.009 397.89 514.539 397.89 514.539C398.689 515.994 399.985 517.112 401.54 517.689C405.76 519.069 410.67 514.33 414.29 511.99C418.527 509.058 422.305 505.512 425.5 501.469L411 477.729C411 477.729 390.36 482.869 386.89 486.639C383.92 489.809 372.92 503.309 376.62 507.089Z" fill="#FFC4C0"/>
<path d="M384.63 503C386.92 498.89 390.2 495.32 393.39 491.92C393.46 491.85 393.58 491.92 393.51 492.03C390.29 495.38 387.89 499.67 384.81 503.14C384.789 503.154 384.764 503.161 384.739 503.16C384.714 503.159 384.69 503.15 384.67 503.135C384.65 503.119 384.635 503.098 384.628 503.074C384.621 503.049 384.622 503.023 384.63 503Z" fill="#39434F"/>
<path d="M390.57 508.209C391.176 507.322 391.899 506.521 392.72 505.829C393.54 505.039 394.38 504.259 395.22 503.499C396.92 501.966 398.654 500.482 400.42 499.049C400.5 498.989 400.61 499.049 400.53 499.159C398.85 500.689 397.19 502.239 395.53 503.829C394.72 504.629 393.91 505.429 393.11 506.239C392.405 507.053 391.614 507.787 390.75 508.429C390.722 508.435 390.692 508.433 390.664 508.424C390.636 508.414 390.612 508.397 390.593 508.374C390.575 508.351 390.563 508.324 390.559 508.295C390.555 508.266 390.559 508.236 390.57 508.209Z" fill="#39434F"/>
<path d="M398 514.45C398.567 513.673 399.26 512.997 400.05 512.45L402.4 510.45C403.96 509.07 405.51 507.69 407.02 506.27C407.035 506.254 407.055 506.244 407.076 506.243C407.098 506.242 407.119 506.25 407.135 506.265C407.151 506.279 407.16 506.299 407.161 506.321C407.162 506.343 407.155 506.364 407.14 506.38C405.61 507.84 404.14 509.32 402.57 510.77C401.82 511.48 401.06 512.18 400.29 512.88C399.656 513.587 398.901 514.177 398.06 514.62C398.06 514.62 398 514.49 398 514.45Z" fill="#39434F"/>
<path d="M457.18 461.8L429.61 462.14C429.61 462.14 433.15 431.75 436.96 418.52C440.16 407.4 446.82 408.42 450.48 422.78C453.94 436.36 457.18 461.8 457.18 461.8Z" fill="#9EEACC"/>
<path d="M456.68 458L456.59 457.85C455.359 456.265 454.706 454.307 454.74 452.3C454.74 451.67 454.82 450.53 455.57 450.3C456 453.36 456.4 456 456.68 458ZM435.23 432.65C436.019 430.837 437.301 429.281 438.93 428.16C439.77 427.51 441.37 426.16 442 427.76C442.168 428.389 442.125 429.056 441.88 429.66C441.521 430.808 440.963 431.885 440.23 432.84C439.36 434.04 437.89 435.64 436.23 435.45C434.57 435.26 434.81 433.81 435.23 432.67V432.65ZM445.04 424.25C445.061 422.114 445.761 420.041 447.04 418.33C447.69 417.58 448.48 417.33 449.12 417.76C449.76 418.19 450.12 419.3 450.3 420.14C450.629 422.171 450.365 424.254 449.54 426.14C449.01 427.32 448.06 428.97 446.54 428.7C444.55 428.4 444.93 425.68 445 424.27L445.04 424.25ZM437.27 425.47C436.36 424.83 437.09 422.17 437.82 420.89C438.76 419.25 440.37 417.37 441.82 417.97C442.56 418.27 442.77 420.21 441.32 422.75C440 425.12 438 426 437.27 425.49V425.47ZM435.64 453.69C435.49 454.42 435.08 455.75 434.24 456.02C433.4 456.29 433.05 455.47 432.9 454.84C432.663 453.859 432.588 452.845 432.68 451.84C432.74 450.49 433.19 449.23 434.36 448.84C436.68 448.14 435.85 452.76 435.64 453.71V453.69Z" fill="#39434F"/>
<path d="M433.29 456.399C435.04 456.157 436.804 456.023 438.57 455.999C440.39 455.899 442.21 455.869 444.03 455.829C445.85 455.789 453.09 455.909 454.9 455.939C454.98 455.939 454.97 456.079 454.9 456.089C453.08 456.189 445.85 456.599 444.07 456.629C442.29 456.659 440.51 456.709 438.73 456.679C436.921 456.722 435.112 456.658 433.31 456.489C433.31 456.489 433.24 456.409 433.29 456.399Z" fill="#39434F"/>
<path d="M451.63 427.75C452.29 430.55 452.88 433.37 453.44 436.19C454 439.01 454.51 441.85 455.02 444.68C455.53 447.51 455.96 450.35 456.38 453.2C456.6 454.62 456.77 456.05 456.93 457.48C457.09 458.91 457.25 460.35 457.29 461.8V461.92H457.17L454.39 461.84L457.16 461.69L457.05 461.81C456.72 458.96 456.22 456.13 455.74 453.3L454.3 444.8C453.85 441.96 453.3 439.13 452.9 436.29C452.5 433.45 452 430.61 451.63 427.75Z" fill="#39434F"/>
<path d="M452.87 429.27C453.109 430.122 453.23 431.004 453.23 431.89C453.245 432.776 453.124 433.66 452.87 434.51C452.774 433.64 452.727 432.765 452.73 431.89C452.713 431.014 452.759 430.138 452.87 429.27Z" fill="#39434F"/>
<path d="M190.21 669.689C190.21 669.689 207.31 665.809 216.68 657.179C226.05 648.549 231.29 633.069 231.29 633.069C224.792 634.305 218.384 635.976 212.11 638.069C209.763 640.485 207.807 643.252 206.31 646.269C206.165 644.319 206.165 642.36 206.31 640.409C204.118 641.353 202.068 642.598 200.22 644.109C192.4 650.999 190.21 669.689 190.21 669.689Z" fill="#9EEACC"/>
<path d="M220.61 640.589C222.94 638.979 225.31 637.419 227.61 635.799C227.64 635.781 227.662 635.751 227.671 635.716C227.679 635.682 227.674 635.645 227.655 635.614C227.636 635.584 227.607 635.562 227.572 635.554C227.537 635.545 227.5 635.551 227.47 635.569C223.07 638.199 218.72 641.009 214.47 643.959C213 644.959 211.57 646.049 210.14 647.139L210.44 646.639C210.95 645.779 211.5 644.939 212.04 644.089C213.11 642.376 214.325 640.757 215.67 639.249C215.72 639.189 215.67 639.109 215.58 639.169C214.25 640.699 212.92 642.219 211.71 643.849C211.13 644.629 210.59 645.429 210.08 646.249C209.82 646.669 209.56 647.099 209.31 647.539L209.06 647.979C206.85 649.719 204.69 651.529 202.64 653.439C201.37 654.619 200.15 655.849 198.97 657.109C199.63 655.039 200.2 652.949 200.97 650.909C200.97 650.839 200.88 650.809 200.86 650.909C200.11 653.049 199.3 655.199 198.72 657.389C197.387 658.809 196.14 660.279 194.98 661.799L195.04 661.519C195.24 660.719 195.44 659.909 195.65 659.109C196.07 657.569 196.52 656.029 197.05 654.509C198.031 651.361 199.587 648.421 201.64 645.839C201.69 645.779 201.64 645.699 201.55 645.759C198.348 649.753 196.11 654.431 195.01 659.429C194.82 660.159 194.65 660.889 194.48 661.619C194.4 662.009 194.29 662.409 194.23 662.809C193.71 663.499 193.23 664.209 192.72 664.929C189.804 669.386 187.376 674.143 185.48 679.119C183.349 684.714 181.52 690.419 180 696.209C180 696.319 180.14 696.359 180.18 696.209C183.52 686.209 186.94 676.059 192.66 667.109C193.87 665.224 195.175 663.402 196.57 661.649C199.441 661.478 202.276 660.923 205 659.999C207.937 659.022 210.739 657.678 213.34 655.999C214.817 654.995 216.242 653.917 217.61 652.769C217.622 652.759 217.629 652.744 217.63 652.728C217.631 652.712 217.626 652.696 217.615 652.684C217.604 652.672 217.589 652.665 217.574 652.664C217.558 652.663 217.542 652.669 217.53 652.679C215.147 654.607 212.513 656.202 209.7 657.419C206.934 658.689 204.041 659.661 201.07 660.319C199.81 660.589 198.53 660.799 197.25 660.969C198.818 659.02 200.487 657.155 202.25 655.379C202.83 654.809 203.42 654.259 204.02 653.699C206.011 652.301 208.127 651.089 210.34 650.079C213.14 648.719 215.9 647.289 218.67 645.879C220.24 645.079 221.79 644.269 223.37 643.499C223.43 643.499 223.37 643.369 223.31 643.399C220.5 644.759 217.64 646.019 214.8 647.319C212.14 648.549 209.43 649.779 206.87 651.209L206.55 651.409C208.86 649.409 211.26 647.469 213.72 645.619C215.973 643.873 218.27 642.196 220.61 640.589Z" fill="#39434F"/>
<path d="M219.64 649.409C218.25 650.019 216.83 650.559 215.45 651.199C214.07 651.839 212.7 652.639 211.35 653.429C211.29 653.429 211.35 653.549 211.41 653.519C212.77 652.869 214.15 652.259 215.5 651.579C216.85 650.899 218.25 650.139 219.67 649.519C219.74 649.489 219.71 649.379 219.64 649.409Z" fill="#39434F"/>
<path d="M134.66 583.52C137.819 587.595 139.607 592.566 139.77 597.72C139.77 599.25 139.58 601.39 139.4 603.9C143.669 606.375 147.451 609.608 150.56 613.44C147.149 611.454 143.23 610.515 139.29 610.74C139.374 612.457 139.592 614.166 139.94 615.85C142.427 615.852 144.889 616.337 147.19 617.28C144.944 617.258 142.717 617.7 140.65 618.58C143.7 628.28 152.76 638.24 177.78 642.47C180.436 630.578 178.87 618.132 173.35 607.27C165.85 592.52 134.66 583.52 134.66 583.52Z" fill="#9EEACC"/>
<path d="M186.44 684C186.01 679.86 185.44 675.72 184.82 671.61C183.57 663.367 181.901 655.193 179.82 647.12C178.843 643.33 177.638 639.603 176.21 635.96C176.283 635.296 176.316 634.628 176.31 633.96C176.31 633.16 176.31 632.36 176.31 631.56C176.31 629.96 176.21 628.36 176.08 626.76C175.827 623.596 175.312 620.458 174.54 617.38C174.08 615.6 173.54 613.84 173.03 612.08C173.025 612.069 173.018 612.06 173.008 612.054C172.998 612.047 172.987 612.044 172.975 612.044C172.963 612.044 172.952 612.047 172.942 612.054C172.932 612.06 172.925 612.069 172.92 612.08C173.748 615.157 174.363 618.288 174.76 621.45C175.208 624.563 175.492 627.697 175.61 630.84C175.61 631.7 175.61 632.56 175.61 633.42C175.61 633.78 175.61 634.15 175.61 634.52C174.383 631.531 172.977 628.619 171.4 625.8C168.851 621.33 165.981 617.052 162.81 613C162.796 612.53 162.725 612.063 162.6 611.61L162.24 609.93C161.98 608.79 161.69 607.65 161.38 606.52C160.76 604.25 159.94 602.06 159.23 599.82C159.23 599.75 159.1 599.82 159.12 599.82C159.78 602.03 160.22 604.33 160.73 606.59C160.98 607.7 161.22 608.82 161.47 609.94C161.59 610.49 161.71 611.05 161.82 611.61V611.74C160.82 610.46 159.82 609.2 158.72 607.96C153.94 602.36 148.72 597.19 143.43 592.06C142.78 591.43 142.12 590.82 141.43 590.19C141.38 590.14 141.3 590.19 141.35 590.28C146.35 595.54 151.35 600.85 156.05 606.42C157.17 607.74 158.26 609.08 159.34 610.42L157.64 609.29C156.18 608.34 154.71 607.41 153.19 606.56C151.67 605.71 150.19 604.88 148.58 604.11C146.97 603.34 145.26 602.67 143.71 601.76C143.65 601.76 143.59 601.84 143.66 601.87C145.24 602.601 146.764 603.446 148.22 604.4C149.75 605.3 151.22 606.21 152.76 607.16C154.3 608.11 155.71 609.01 157.17 609.96C158.39 610.75 159.59 611.61 160.85 612.34C163.749 616.066 166.42 619.963 168.85 624.01C170.367 626.557 171.752 629.181 173 631.87L172.1 631.48L169.81 630.48L165.38 628.55C162.58 627.33 159.73 626.21 156.97 624.87C155.418 624.141 153.917 623.306 152.48 622.37C152.42 622.37 152.37 622.43 152.48 622.48C157.61 626.01 163.36 628.48 169.04 631.02L171.5 632.1C172.17 632.4 172.85 632.74 173.5 633C175.178 636.76 176.591 640.633 177.73 644.59C179.967 652.559 181.783 660.64 183.17 668.8C184.61 676.97 185.58 685.2 186.33 693.46C186.42 694.46 186.51 695.52 186.63 696.55C186.644 696.626 186.683 696.695 186.743 696.745C186.802 696.795 186.877 696.823 186.955 696.823C187.033 696.823 187.108 696.795 187.167 696.745C187.227 696.695 187.267 696.626 187.28 696.55C187.31 692.34 186.88 688.14 186.44 684Z" fill="#39434F"/>
<path d="M171.22 614.879C170.76 612.329 170.08 609.879 169.4 607.349C169.4 607.279 169.27 607.349 169.29 607.349C169.92 609.789 170.37 612.279 170.83 614.769C171.29 617.259 171.71 619.829 172.07 622.379H172.14C171.972 619.864 171.665 617.361 171.22 614.879Z" fill="#39434F"/>
<path d="M160.44 621.769C158.699 620.626 156.881 619.603 155 618.709C154.08 618.239 153.16 617.789 152.24 617.339C151.32 616.889 150.24 616.499 149.35 616.019C149.335 616.011 149.318 616.01 149.302 616.014C149.286 616.019 149.273 616.03 149.265 616.044C149.257 616.059 149.255 616.076 149.26 616.092C149.265 616.108 149.275 616.121 149.29 616.129C150.21 616.579 151.08 617.129 151.98 617.629C152.88 618.129 153.82 618.629 154.75 619.149C156.58 620.149 158.38 621.219 160.3 622.019C160.316 622.029 160.334 622.034 160.353 622.037C160.372 622.039 160.391 622.037 160.409 622.032C160.427 622.027 160.444 622.019 160.459 622.007C160.473 621.995 160.486 621.981 160.495 621.964C160.504 621.948 160.51 621.93 160.512 621.911C160.514 621.893 160.513 621.874 160.508 621.855C160.503 621.837 160.494 621.82 160.482 621.806C160.471 621.791 160.456 621.779 160.44 621.769Z" fill="#39434F"/>
<path opacity="0.1" d="M190.52 640.069C190.52 640.069 206.34 636.289 213.61 625.679C220.54 615.539 222.79 598.259 222.96 596.739C222.68 598.129 219.41 613.239 208.64 620.269C200.39 625.659 192.42 630.089 190.52 640.069Z" fill="#39434F"/>
<path d="M205.12 612.73C202.309 615.319 200.288 618.65 199.29 622.34C199.29 622.39 199.29 622.34 199.29 622.34C200.449 618.735 202.459 615.463 205.15 612.8C205.25 612.77 205.17 612.68 205.12 612.73Z" fill="#39434F"/>
<path d="M190.52 640.07C190.52 640.07 206.34 636.29 213.61 625.68C220.54 615.54 222.79 598.26 222.96 596.74C222.964 596.703 222.964 596.666 222.96 596.63C222.96 596.63 215.38 607.42 207.4 610.17C199.42 612.92 188.23 622.44 190.52 640.07Z" fill="#9EEACC"/>
<path d="M220.18 602.58C218.76 605.487 217.125 608.285 215.29 610.95C213.442 613.472 211.251 615.724 208.78 617.64C206.63 619.35 204.36 620.9 202.18 622.57C202.182 622.543 202.182 622.516 202.18 622.49C202.587 621.89 203.017 621.3 203.47 620.72C204.38 619.56 205.37 618.47 206.37 617.39C208.37 615.26 210.37 613.17 212.1 610.86C213.084 609.586 213.935 608.216 214.64 606.77C214.64 606.7 214.56 606.67 214.53 606.77C211.96 612.12 206.84 615.54 203.18 620.06C202.657 620.699 202.169 621.366 201.72 622.06C201.353 622.558 201.048 623.098 200.81 623.67C198.805 625.271 196.993 627.1 195.41 629.12C195.549 628.083 195.759 627.057 196.04 626.05C196.412 624.645 196.978 623.299 197.72 622.05C197.72 621.99 197.66 621.93 197.62 621.99C196.853 623.247 196.236 624.589 195.78 625.99C195.449 627.102 195.254 628.25 195.2 629.41C194.421 630.47 193.709 631.579 193.07 632.73C193.13 632.39 193.2 632.06 193.26 631.73C193.58 630.15 193.93 628.58 194.33 627.02C195.074 623.851 196.363 620.836 198.14 618.11C198.146 618.103 198.151 618.095 198.154 618.087C198.157 618.078 198.158 618.069 198.157 618.06C198.156 618.051 198.153 618.042 198.148 618.035C198.143 618.027 198.136 618.021 198.128 618.016C198.12 618.011 198.112 618.008 198.103 618.008C198.094 618.007 198.084 618.008 198.076 618.011C198.068 618.015 198.06 618.02 198.054 618.026C198.047 618.033 198.043 618.041 198.04 618.05C196.221 620.737 194.803 623.674 193.83 626.77C193.32 628.32 192.92 629.9 192.56 631.49C192.39 632.27 192.23 633.05 192.08 633.84C192.01 634.24 191.92 634.65 191.85 635.07C190.285 638.518 189.062 642.112 188.2 645.8C186.648 652.387 185.523 659.067 184.83 665.8C184.028 672.837 183.677 679.918 183.78 687C183.78 687.89 183.85 688.78 183.89 689.66C183.89 689.89 184.25 689.93 184.26 689.66C184.42 686.15 184.51 682.66 184.72 679.12C184.93 675.58 185.23 672.12 185.6 668.61C186.324 661.734 187.426 654.904 188.9 648.15C190.18 642.37 191.85 636.55 195.01 631.48C196.58 628.956 198.503 626.669 200.72 624.69C202.94 622.69 205.36 620.95 207.72 619.11C210.087 617.31 212.238 615.243 214.13 612.95C216.055 610.393 217.729 607.657 219.13 604.78C219.5 604.06 219.89 603.35 220.27 602.64C220.31 602.58 220.21 602.52 220.18 602.58Z" fill="#39434F"/>
<path d="M217.45 604.899C216.409 607.031 215.23 609.092 213.92 611.069C213.92 611.069 213.92 611.159 213.99 611.119C215.347 609.16 216.541 607.093 217.56 604.939C217.59 604.869 217.48 604.839 217.45 604.899Z" fill="#39434F"/>
<path d="M132.45 633.069C132.45 633.069 132.2 655.559 145.65 662.069C159.1 668.579 166.3 663.149 175.44 665.329C175.08 664.789 168.56 655.419 158.19 652.839C147.51 650.149 135.69 642.439 132.45 633.069Z" fill="#9EEACC"/>
<path opacity="0.1" d="M132.45 633.069C132.45 633.069 132.2 655.559 145.65 662.069C159.1 668.579 166.3 663.149 175.44 665.329C170.613 663.03 165.452 661.508 160.15 660.819C151.66 659.769 135.46 654.239 132.45 633.069Z" fill="#39434F"/>
<path d="M176.32 665.71C174.731 664.252 172.939 663.033 171 662.09C170.71 661.95 170.42 661.84 170.12 661.71C169.981 661.531 169.83 661.36 169.67 661.2C169.27 660.78 168.85 660.37 168.41 659.99C167.555 659.25 166.638 658.585 165.67 658C163.45 656.69 161.01 655.78 158.73 654.56C158.66 654.56 158.6 654.63 158.67 654.66C159.8 655.25 160.89 655.89 161.98 656.53C163.07 657.17 164.14 657.75 165.17 658.42C166.105 659.02 166.994 659.688 167.83 660.42C168.07 660.63 168.3 660.85 168.53 661.08C167.047 660.588 165.534 660.194 164 659.9C161.54 659.41 159 659.05 156.59 658.53C155.387 658.257 154.199 657.923 153.03 657.53C151.91 656.63 150.8 655.74 149.74 654.76C148.457 653.623 147.289 652.363 146.25 651C146.25 650.94 146.1 651 146.15 651.06C147.78 653.265 149.626 655.301 151.66 657.14C151.08 656.92 150.51 656.69 149.94 656.43C145.324 654.355 141.362 651.06 138.48 646.9C138.48 646.84 138.34 646.9 138.38 646.96C140.83 650.528 143.985 653.557 147.65 655.86C149.491 657.005 151.457 657.934 153.51 658.63C155.895 659.369 158.327 659.944 160.79 660.35C163.199 660.733 165.578 661.284 167.91 662C170.064 662.727 172.089 663.79 173.91 665.15C177.313 667.82 180.052 671.243 181.91 675.15C184.317 680.336 185.819 685.897 186.35 691.59C186.35 691.83 186.75 691.83 186.73 691.59C186.13 682.11 183.61 672.27 176.32 665.71Z" fill="#39434F"/>
<path d="M160.72 658.38C160.032 657.334 159.098 656.472 158 655.87C156.723 655.211 155.603 654.283 154.72 653.15C154.67 653.09 154.57 653.15 154.62 653.21C155.423 654.244 156.405 655.124 157.52 655.81C158.741 656.459 159.816 657.35 160.68 658.43C160.67 658.48 160.75 658.43 160.72 658.38Z" fill="#39434F"/>
<path d="M167.85 682.31L168.46 694.67L170.34 732.45H198.54L200.42 694.67L201.03 682.31H167.85Z" fill="#39434F"/>
<path d="M167.85 682.31L168.46 694.67H200.42L201.03 682.31H167.85Z" fill="#39434F"/>
<path d="M165.88 688.939H203.01V677.139H165.88V688.939Z" fill="#39434F"/>
</svg>
