<svg width="660" height="964" viewBox="0 0 660 964" fill="none" xmlns="http://www.w3.org/2000/svg">
<rect width="660" height="964" rx="24" fill="#ECEFF2"/>
<path opacity="0.5" d="M163.21 518.93H136.73V530.12H163.21V518.93Z" fill="#D9DFE6"/>
<path opacity="0.5" d="M148.44 533.04H121.96V544.23H148.44V533.04Z" fill="#D9DFE6"/>
<path opacity="0.5" d="M177.98 533.04H151.5V544.23H177.98V533.04Z" fill="#D9DFE6"/>
<path opacity="0.5" d="M509.27 219.84H482.79V231.03H509.27V219.84Z" fill="#D9DFE6"/>
<path opacity="0.5" d="M524.04 233.95H497.56V245.14H524.04V233.95Z" fill="#D9DFE6"/>
<path opacity="0.5" d="M148.44 219.86H121.96V231.05H148.44V219.86Z" fill="#D9DFE6"/>
<path opacity="0.5" d="M497.57 530.03H524.05V518.84H497.57V530.03Z" fill="#D9DFE6"/>
<path opacity="0.5" d="M473 355.3H499.48V344.11H473V355.3Z" fill="#D9DFE6"/>
<path opacity="0.5" d="M487.77 341.189H514.25V329.999H487.77V341.189Z" fill="#D9DFE6"/>
<path d="M166 65H165V333H166V65Z" fill="url(#paint0_linear_4_78672)"/>
<path d="M202.84 368.829L199.85 375.399H131.5L128.52 368.829L157.62 348.689H173.74L202.84 368.829Z" fill="#D9DFE6"/>
<path d="M175.76 329.29L173.74 348.69H157.62L155.6 329.29H175.76Z" fill="#C6CED9"/>
<path d="M202.83 368.84L199.84 375.41H131.49L128.52 368.84H202.83Z" fill="#C6CED9"/>
<path d="M276.36 47H275.36V290H276.36V47Z" fill="url(#paint1_linear_4_78672)"/>
<path d="M313.32 329.64L310.33 336.21H241.98L239 329.64L268.1 309.5H284.22L313.32 329.64Z" fill="#D9DFE6"/>
<path d="M286.24 290.09L284.22 309.5H268.1L266.08 290.09H286.24Z" fill="#C6CED9"/>
<path d="M313.32 329.64L310.33 336.21H241.98L239 329.64H313.32Z" fill="#C6CED9"/>
<path opacity="0.5" d="M562 774C562 790.024 454.108 803 321 803C187.892 803 80 790.024 80 774C80 757.976 187.892 745 321 745C454.108 745 562 757.976 562 774Z" fill="#D9DFE6"/>
<path d="M479.22 617.73C479.951 622.785 479.69 627.934 478.45 632.89C477.869 635.185 477.093 637.427 476.13 639.59C474.92 642.37 473.66 645.07 473.97 648.11C474.26 648.3 473.26 648.27 473.22 647.98C465.11 643.36 454.71 642.51 448.47 634.98C445.658 631.3 443.88 626.937 443.32 622.34C442.55 617.4 442.32 611.94 443.61 607.08C444.68 603 447.09 599 451 597C454.91 595 460.22 595.1 464.42 596.4C473.43 599.19 477.94 609 479.22 617.73Z" fill="#96D3FF"/>
<path d="M483.38 677.759C482.28 674.073 481.163 670.389 480.03 666.709C477.81 659.499 475.5 652.319 472.93 645.219C471.397 640.973 469.78 636.763 468.08 632.589C468.28 629.961 468.613 627.344 469.08 624.749C469.76 621.609 470.74 618.569 471.66 615.499C471.72 615.309 471.41 615.209 471.33 615.389C469.51 619.629 467.13 625.049 467.08 630.069C465.08 625.349 462.953 620.699 460.7 616.119C460.421 612.246 460.521 608.354 461 604.499C461 604.467 460.988 604.436 460.967 604.411C460.946 604.386 460.917 604.37 460.886 604.364C460.854 604.358 460.821 604.363 460.793 604.379C460.764 604.394 460.742 604.419 460.73 604.449C460.037 607.819 459.769 611.263 459.93 614.699C458.19 611.259 456.347 607.863 454.4 604.509C454.22 604.209 453.81 604.509 453.96 604.819C457.01 610.689 459.83 616.679 462.49 622.749C458.756 619.511 454.439 617.013 449.77 615.389C449.57 615.309 449.42 615.609 449.62 615.689C454.716 617.877 459.376 620.963 463.38 624.799C465.28 629.239 467.097 633.719 468.83 638.239C463.75 633.239 456.83 629.989 450.09 628.239C449.86 628.179 449.8 628.529 450.02 628.589C457.8 630.929 463.83 635.339 469.75 640.589C470.43 642.419 471.11 644.249 471.75 646.079C474.25 653.026 476.633 660.026 478.9 667.079C479.993 670.413 481.067 673.786 482.12 677.199C483.25 680.839 484.12 684.679 485.62 688.199C485.76 688.529 486.36 688.459 486.28 688.049C485.49 684.572 484.523 681.137 483.38 677.759Z" fill="#39434F"/>
<path d="M469.93 610.63C468.493 612.844 467.501 615.317 467.01 617.91C467.01 617.98 467.1 618.02 467.13 617.91C468.033 615.466 469.088 613.081 470.29 610.77C470.42 610.57 470.07 610.42 469.93 610.63Z" fill="#39434F"/>
<path d="M455.46 627.53C453.205 626.28 450.742 625.45 448.19 625.08C448.12 625.08 448.08 625.17 448.19 625.2C449.36 625.68 450.59 626.02 451.77 626.48C452.95 626.94 454.12 627.48 455.32 627.91C455.366 627.914 455.412 627.903 455.451 627.878C455.489 627.853 455.519 627.817 455.535 627.773C455.551 627.73 455.552 627.683 455.539 627.639C455.525 627.595 455.497 627.557 455.46 627.53Z" fill="#39434F"/>
<path d="M451.39 607.21C450.659 606.652 449.875 606.166 449.05 605.76C449.023 605.75 448.993 605.749 448.965 605.759C448.938 605.768 448.914 605.786 448.898 605.81C448.882 605.834 448.874 605.863 448.876 605.892C448.879 605.921 448.891 605.948 448.91 605.97C449.632 606.537 450.405 607.036 451.22 607.46C451.37 607.55 451.54 607.3 451.39 607.21Z" fill="#39434F"/>
<path d="M506.56 645.28C500.72 647.01 494.85 648.61 489.01 650.33C488.5 650.48 478.63 631.56 482.2 621.81C483.899 617.394 486.563 613.413 489.997 610.159C493.431 606.904 497.549 604.458 502.05 603C506.22 601.58 511.34 600.39 515.75 601.36C519.67 602.23 522.43 605.43 523.75 609.12C525.48 614.12 524.9 620.12 523.96 625.21C523.211 630.01 521.23 634.534 518.21 638.34C515.07 642 511.11 643.93 506.56 645.28Z" fill="#96D3FF"/>
<path d="M515 627.29C511.307 629.097 507.475 630.606 503.54 631.8C500.92 632.507 498.364 633.433 495.9 634.57C498.37 629.07 501.07 623.69 503.95 618.35C507.72 617.26 511.69 615.56 514.53 612.89C514.547 612.876 514.56 612.859 514.57 612.84C514.58 612.821 514.586 612.8 514.588 612.779C514.59 612.758 514.587 612.736 514.581 612.716C514.574 612.695 514.564 612.676 514.55 612.66C514.536 612.643 514.519 612.63 514.5 612.62C514.481 612.61 514.461 612.604 514.439 612.602C514.418 612.6 514.396 612.603 514.376 612.609C514.355 612.616 514.337 612.626 514.32 612.64C511.21 614.84 507.77 616.16 504.32 617.64C505.1 616.2 505.88 614.77 506.68 613.34C506.9 612.94 506.36 612.55 506.09 612.93C503.02 617.389 500.247 622.046 497.79 626.87C497.16 622.644 496.959 618.366 497.19 614.1C497.19 613.99 497.04 613.98 497.02 614.1C496.295 618.742 496.342 623.473 497.16 628.1C495.16 632.19 493.25 636.38 491.57 640.62C490.91 638.07 490.04 635.56 489.46 632.99C488.577 629.313 488.294 625.517 488.62 621.75C488.62 621.64 488.47 621.63 488.45 621.75C487.447 628.741 488.327 635.873 491 642.41C490 644.96 489.09 647.52 488.24 650.09C483.836 663.184 481.226 676.815 480.48 690.61C480.48 690.676 480.506 690.74 480.553 690.787C480.6 690.833 480.664 690.86 480.73 690.86C480.796 690.86 480.86 690.833 480.907 690.787C480.954 690.74 480.98 690.676 480.98 690.61C482.51 677.015 485.425 663.612 489.68 650.61C491.37 645.52 493.32 640.61 495.46 635.72C498.91 634.72 502.35 633.32 505.74 632.15C509.13 631.128 512.329 629.557 515.21 627.5C515.238 627.472 515.254 627.434 515.254 627.395C515.254 627.355 515.238 627.318 515.21 627.29C515.182 627.262 515.144 627.246 515.105 627.246C515.066 627.246 515.028 627.262 515 627.29Z" fill="#39434F"/>
<path d="M520.47 621.8C516.9 623.07 513.47 624.85 509.95 626.14C509.78 626.2 509.88 626.46 510.04 626.43C513.82 625.65 517.56 624.48 520.61 622C520.72 621.91 520.6 621.75 520.47 621.8Z" fill="#39434F"/>
<path d="M491.3 614.09C491.35 613.9 491.07 613.79 491.01 613.99C490.01 617.28 489.36 620.78 490.31 624.14C490.31 624.27 490.56 624.28 490.56 624.14C490.73 620.73 490.54 617.43 491.3 614.09Z" fill="#39434F"/>
<path d="M506.06 606.49C504.923 608.126 504.376 610.101 504.51 612.09C504.51 612.21 504.72 612.28 504.75 612.14C505.19 610.25 505.92 608.54 506.5 606.71C506.516 606.653 506.513 606.593 506.489 606.54C506.466 606.486 506.424 606.442 506.372 606.416C506.32 606.39 506.26 606.383 506.203 606.396C506.146 606.41 506.095 606.443 506.06 606.49Z" fill="#39434F"/>
<path d="M437.09 653.62C438.8 659.06 442.87 666.57 449.31 666.62C453.49 666.62 457.69 666.16 461.88 666.1C466.36 666.03 470.88 666.04 475.33 666.31C475.7 666.31 474.79 652.88 464.02 646.31C461.02 644.47 457.31 643.89 453.88 643.15C449.951 642.218 445.917 641.798 441.88 641.9C439.4 642 437.34 642.52 436.46 645.06C435.58 647.6 436.26 651 437.09 653.62Z" fill="#96D3FF"/>
<path d="M441.72 646.82C444.34 647.49 446.98 648.27 449.61 649.1C448.924 648.356 448.2 647.648 447.44 646.98C446.31 646.05 445.07 645.3 443.86 644.47C443.76 644.41 443.86 644.21 443.95 644.26C446.499 645.318 448.699 647.072 450.3 649.32C453.58 650.37 456.82 651.54 459.94 652.82C462.098 653.706 464.167 654.794 466.12 656.07C465.491 654.712 464.742 653.413 463.88 652.19C462.45 650.33 460.52 649.3 458.65 647.99C458.618 647.964 458.597 647.928 458.59 647.888C458.583 647.848 458.59 647.807 458.61 647.772C458.631 647.737 458.663 647.71 458.702 647.697C458.74 647.684 458.782 647.685 458.82 647.7C460.777 648.551 462.535 649.8 463.981 651.369C465.427 652.938 466.531 654.791 467.22 656.81C469.462 658.421 471.512 660.283 473.33 662.36C480.46 670.46 486.08 681.24 486.1 692.23C486.1 692.49 485.68 692.57 485.63 692.29C483.795 681.514 479.098 671.429 472.03 663.09C471.52 662.49 471.03 661.93 470.46 661.38C468.508 661.113 466.541 660.966 464.57 660.94C462.28 660.94 460 661.28 457.72 661.46C453.96 661.77 449.8 661.81 446.4 659.92C446.25 659.84 446.4 659.58 446.52 659.64C454.09 662.39 462.02 658.9 469.6 660.54C466.363 657.452 462.569 655.005 458.42 653.33L457.72 653.05C452.87 653.63 447.72 654.9 443.02 653.32C443.006 653.316 442.992 653.309 442.98 653.3C442.968 653.291 442.959 653.279 442.951 653.266C442.944 653.253 442.939 653.239 442.937 653.224C442.935 653.209 442.936 653.194 442.94 653.18C442.944 653.165 442.951 653.152 442.96 653.14C442.969 653.128 442.981 653.118 442.994 653.111C443.007 653.103 443.021 653.099 443.036 653.097C443.051 653.095 443.066 653.096 443.08 653.1C447.65 654.24 452.03 652.8 456.54 652.57C451.63 650.66 446.62 649.14 441.7 647.24C441.28 647.08 441.27 646.7 441.72 646.82Z" fill="#39434F"/>
<path d="M439.58 651.599C441.926 651.904 444.286 652.084 446.65 652.139C446.7 652.139 446.72 652.219 446.65 652.229C444.273 652.671 441.823 652.517 439.52 651.779C439.41 651.749 439.47 651.579 439.58 651.599Z" fill="#39434F"/>
<path d="M455.54 646.939C456.848 647.525 458.034 648.349 459.04 649.369C459.16 649.479 459.04 649.699 458.86 649.599C458.27 649.169 457.66 648.759 457.04 648.369C456.455 648.039 455.888 647.678 455.34 647.289C455.309 647.257 455.288 647.215 455.283 647.17C455.277 647.125 455.286 647.079 455.309 647.039C455.331 647 455.366 646.969 455.408 646.951C455.449 646.933 455.496 646.929 455.54 646.939Z" fill="#39434F"/>
<path d="M493.59 664.44C493.51 664.61 493.77 664.78 493.87 664.59C493.89 664.618 493.915 664.643 493.944 664.662C493.973 664.681 494.006 664.693 494.04 664.7C498.376 665.734 502.771 666.502 507.2 667C510.76 667.32 514.87 667.51 517.99 665.45C522.22 662.64 524.99 655.15 522.71 650.39C520.01 644.74 511.86 647.81 507.77 649.82C501.483 652.89 496.467 658.062 493.59 664.44Z" fill="#96D3FF"/>
<path d="M490.43 667.049C492.803 664.745 495.442 662.731 498.29 661.049C500.347 657.801 503.075 655.029 506.29 652.919C506.45 652.809 506.58 653.059 506.44 653.169C503.892 655.209 501.632 657.584 499.72 660.229C502.892 658.496 506.188 656.999 509.58 655.749C510.794 653.502 512.635 651.657 514.88 650.439C514.88 650.439 514.98 650.439 514.94 650.509C513.086 651.909 511.469 653.597 510.15 655.509C512.15 654.769 514.15 654.069 516.2 653.399C516.38 653.339 516.45 653.619 516.28 653.679C512.68 655.089 509 656.569 505.43 658.279C509.783 658.974 514.218 658.974 518.57 658.279C518.69 658.279 518.74 658.429 518.57 658.459C514.03 659.803 509.209 659.876 504.63 658.669C502.357 659.774 500.15 661.01 498.02 662.369C499.812 662.223 501.616 662.372 503.36 662.809C506.438 663.526 509.59 663.882 512.75 663.869C512.87 663.869 512.9 664.069 512.75 664.089C507.3 665.019 502.15 662.549 496.75 663.189C494.745 664.555 492.865 666.094 491.13 667.789C487.761 671.153 484.988 675.066 482.93 679.359C480.65 683.989 479.42 688.889 477.58 693.669C477.568 693.713 477.539 693.75 477.5 693.773C477.461 693.795 477.414 693.801 477.37 693.789C477.326 693.778 477.289 693.749 477.267 693.709C477.244 693.67 477.238 693.623 477.25 693.579C478.87 684.159 483.56 673.769 490.43 667.049Z" fill="#39434F"/>
<path d="M506.86 654.119C507.225 653.479 507.698 652.907 508.26 652.429C508.715 651.93 509.261 651.522 509.87 651.229C509.92 651.229 509.95 651.229 509.92 651.319C509.47 651.819 508.85 652.199 508.37 652.679C507.89 653.159 507.48 653.739 506.99 654.219C506.977 654.237 506.957 654.248 506.936 654.251C506.914 654.254 506.892 654.248 506.875 654.234C506.858 654.221 506.847 654.202 506.844 654.18C506.841 654.159 506.847 654.137 506.86 654.119Z" fill="#39434F"/>
<path d="M515.85 657.05C516.66 656.85 517.51 656.86 518.33 656.69C519.146 656.495 519.951 656.255 520.74 655.97C520.763 655.964 520.787 655.967 520.808 655.977C520.829 655.987 520.846 656.005 520.856 656.026C520.865 656.048 520.867 656.072 520.86 656.094C520.854 656.117 520.84 656.137 520.82 656.15C519.325 657.072 517.568 657.476 515.82 657.3C515.72 657.28 515.73 657.08 515.85 657.05Z" fill="#39434F"/>
<path d="M467.98 681.97L468.69 690.09L471.12 717.51H492.6L495.63 690.09L496.52 681.97H467.98Z" fill="#606873"/>
<path d="M467.98 681.97L468.69 690.09H495.63L496.52 681.97H467.98Z" fill="#39434F"/>
<path d="M465.86 686.34H498.66V679.75H465.86V686.34Z" fill="#606873"/>
<path d="M61 717.495L129.008 717.253L197.003 717.162L333.007 717L469.01 717.162L537.005 717.253L605 717.495L537.005 717.747L469.01 717.838L333.007 718L197.003 717.838L129.008 717.747L61 717.495Z" fill="#39434F"/>
<path d="M344.715 641.807L347.497 658.506L366.367 760.389H369.406L355.688 658.506L353.658 641.807H344.715Z" fill="#D9DFE6"/>
<path d="M353.658 641.807H344.715L347.497 658.506H355.688L353.658 641.807Z" fill="#B3BECD"/>
<path d="M285.465 760.389H288.505L307.374 658.506L310.156 641.807H301.214L299.183 658.506L285.465 760.389Z" fill="#D9DFE6"/>
<path d="M301.214 641.807L299.183 658.506H307.375L310.156 641.807H301.214Z" fill="#B3BECD"/>
<path d="M228.879 760.389H231.918L250.788 658.506L253.569 641.807H244.627L242.597 658.506L228.879 760.389Z" fill="#D9DFE6"/>
<path d="M242.597 658.506H250.788L253.569 641.807H244.627L242.597 658.506Z" fill="#B3BECD"/>
<path d="M233.702 649.645H371.941V635.082H320.189L302.798 559.227H238.971L233.702 649.645Z" fill="#D9DFE6"/>
<path d="M233.702 649.645H241.236L246.153 559.227H238.971L233.702 649.645Z" fill="#B3BECD"/>
<path d="M294.783 754.768C297.13 757.009 368.279 773.614 370.884 773.286C373.49 772.957 372.75 765.529 370.497 762.818C367.438 760.058 364.217 757.484 360.851 755.108C353.235 749.381 344.363 743.373 344.363 743.373L348.729 733.915L303.643 722.931C300.228 731.439 297.423 738.761 297.012 740.803C297.012 740.756 294.501 754.521 294.783 754.768Z" fill="#ECEFF2"/>
<path d="M371.143 773.485C368.455 773.767 296.696 757.69 294.36 755.343C293.457 754.463 295.194 743.889 297.658 731.169C297.658 731.039 297.658 730.899 297.74 730.77L344.14 740.627L343.953 741.413C343.953 741.413 368.655 759.837 370.943 762.689C373.232 765.54 373.783 773.215 371.143 773.485Z" fill="#96D3FF"/>
<path d="M370.896 770.528C358.868 767.524 310.074 756.528 297.951 754.463C297.857 754.463 297.846 754.463 297.951 754.533C309.804 757.784 358.692 768.381 370.873 770.728C371.143 770.775 371.143 770.587 370.896 770.528Z" fill="#39434F"/>
<path d="M349.21 741.918C344.645 739.958 338.649 739.383 334.271 741.918C334.095 742.023 334.271 742.258 334.412 742.246C339.288 741.802 344.198 741.881 349.057 742.481C349.119 742.473 349.177 742.446 349.224 742.405C349.271 742.364 349.304 742.31 349.32 742.25C349.337 742.19 349.335 742.126 349.315 742.067C349.296 742.008 349.259 741.956 349.21 741.918Z" fill="#39434F"/>
<path d="M352.179 744.758C347.626 742.798 341.618 742.223 337.24 744.758C337.064 744.863 337.24 745.098 337.381 745.086C342.257 744.644 347.166 744.719 352.027 745.309C352.089 745.304 352.148 745.28 352.196 745.24C352.244 745.2 352.278 745.147 352.295 745.087C352.311 745.027 352.309 744.963 352.288 744.904C352.268 744.845 352.23 744.794 352.179 744.758Z" fill="#39434F"/>
<path d="M355.148 747.586C350.595 745.638 344.586 745.063 340.209 747.586C340.033 747.691 340.209 747.926 340.35 747.914C345.226 747.466 350.135 747.541 354.995 748.137C355.054 748.127 355.109 748.1 355.153 748.06C355.198 748.02 355.23 747.968 355.246 747.91C355.262 747.852 355.261 747.791 355.244 747.734C355.226 747.676 355.193 747.625 355.148 747.586Z" fill="#39434F"/>
<path d="M357.729 732.941C356.439 729.948 352.695 730.324 350.336 731.544C346.322 733.714 342.95 736.903 340.561 740.791C340.549 740.807 340.541 740.826 340.537 740.846C340.534 740.866 340.536 740.886 340.544 740.905C340.551 740.924 340.562 740.941 340.578 740.953C340.593 740.966 340.612 740.975 340.632 740.979C340.605 741.071 340.601 741.168 340.62 741.262C340.639 741.356 340.68 741.443 340.739 741.518C340.799 741.593 340.876 741.652 340.963 741.691C341.051 741.73 341.146 741.747 341.242 741.742C345.502 741.179 350.125 741.085 354.08 739.23C356.38 738.139 358.95 735.769 357.729 732.941ZM347.52 739.559C345.431 739.888 343.342 740.122 341.265 740.533C343.13 738.674 345.089 736.912 347.133 735.252C348.128 734.468 349.175 733.75 350.266 733.105C351.968 732.131 358.187 730.652 356.134 735.675C355.042 738.444 350.02 739.16 347.52 739.559Z" fill="#39434F"/>
<path d="M328.732 736.837C332.253 739.384 336.818 740.358 340.89 741.648C340.983 741.671 341.08 741.671 341.173 741.649C341.266 741.627 341.352 741.583 341.426 741.521C341.499 741.46 341.556 741.382 341.594 741.294C341.631 741.206 341.647 741.11 341.641 741.015C341.711 741.015 341.782 740.933 341.747 740.839C340.106 736.58 337.374 732.829 333.825 729.96C331.725 728.329 328.11 727.285 326.291 729.96C324.473 732.636 326.667 735.347 328.732 736.837ZM327.348 732.965C326.291 727.66 332.136 730.242 333.638 731.509C334.594 732.347 335.492 733.248 336.325 734.208C338.018 736.207 339.609 738.291 341.089 740.452C339.13 739.665 337.111 739.067 335.128 738.363C332.746 737.518 327.934 735.898 327.348 732.965Z" fill="#39434F"/>
<path opacity="0.2" d="M350.161 769.366C361.438 771.83 370.181 773.59 371.084 773.497C373.783 773.227 373.185 765.529 370.897 762.689C367.926 759.883 364.791 757.258 361.508 754.826L350.161 769.366Z" fill="#39434F"/>
<path d="M347.45 741.777L298.057 730.136C298.057 730.136 339.271 635.657 335.609 630.857C333.79 628.452 287.801 627.748 273.179 615.355C254.18 599.255 266.924 574.658 266.924 574.658L318.335 573.145C318.335 573.145 317.713 583.87 319.72 585.478C321.034 586.558 382.232 591.709 388.957 612.328C397.195 637.617 347.45 741.777 347.45 741.777Z" fill="#39434F"/>
<path d="M347.426 734.137C346.135 733.527 333.344 729.772 330.469 729.044C324.695 727.566 318.898 726.111 313.089 724.785C310.05 724.092 303.549 722.59 303.15 722.661C302.962 722.661 302.927 723.013 303.15 723.071C308.783 724.925 314.498 726.498 320.213 728.094C325.928 729.69 345.607 734.419 347.332 734.536C347.461 734.548 347.673 734.22 347.426 734.137Z" fill="#39434F"/>
<path d="M344.434 626.597C343.267 625.878 341.932 625.473 340.562 625.424L318.265 621.704C311.33 620.53 304.347 619.51 297.447 618.183C291.732 617.08 285.911 615.59 281.018 612.492C276.175 609.446 272.589 604.76 270.914 599.29C269.351 593.793 268.909 588.039 269.612 582.368C269.741 580.983 269.999 579.61 270.257 578.249C270.257 578.144 270.104 578.108 270.093 578.249C268.203 588.811 268.039 600.968 275.96 609.359C279.809 613.442 285.09 615.836 290.476 617.397C296.629 618.964 302.867 620.175 309.159 621.023L331.455 624.732C334.976 625.33 338.649 625.788 342.193 626.527C342.904 626.62 343.572 626.918 344.117 627.384C344.378 627.753 344.544 628.18 344.599 628.629C344.654 629.077 344.598 629.532 344.434 629.954C344.082 631.702 343.601 633.474 343.108 635.141C339.059 648.953 309.182 719.398 308.384 720.912C308.373 720.944 308.374 720.978 308.387 721.009C308.399 721.041 308.422 721.066 308.452 721.082C308.482 721.097 308.516 721.102 308.549 721.094C308.582 721.087 308.61 721.068 308.63 721.041C315.437 708.93 337.792 653.482 342.287 640.421C343.47 637.099 344.442 633.704 345.197 630.259C345.326 628.921 345.525 627.525 344.434 626.597Z" fill="#39434F"/>
<path d="M444.346 776.395C441.858 777.228 370.626 776.231 367.916 774.494C364.947 771.666 363.679 704.46 363.679 704.46L409.505 704.084L412.368 752.338C412.368 752.338 422.261 756.457 430.874 760.553C434.644 762.214 438.312 764.099 441.858 766.198C444.639 768.415 446.834 775.574 444.346 776.395Z" fill="#FFC4C0"/>
<path d="M364.923 744.218C365.604 759.321 366.578 773.25 367.904 774.494C370.615 776.231 441.835 777.24 444.346 776.395C446.857 775.55 444.639 768.427 441.882 766.221C438.333 764.121 434.661 762.236 430.886 760.576C422.272 756.481 412.38 752.362 412.38 752.362L411.899 744.241L364.923 744.218Z" fill="#ECEFF2"/>
<path d="M445.813 776.443C443.231 777.299 369.699 776.947 366.918 775.152C365.839 774.495 365.264 763.792 364.947 750.837V750.426L412.38 750.133V750.931C412.38 750.931 440.462 763.64 443.325 765.928C446.188 768.216 448.383 775.61 445.813 776.443Z" fill="#96D3FF"/>
<path d="M444.991 773.591C432.599 773.227 382.572 772.934 370.298 773.509C370.192 773.509 370.192 773.591 370.298 773.591C382.572 774.225 432.599 774.107 444.991 773.802C445.249 773.814 445.249 773.603 444.991 773.591Z" fill="#39434F"/>
<path d="M417.66 750.343C412.79 749.416 406.817 750.132 403.074 753.582C402.933 753.723 403.074 753.923 403.285 753.876C407.955 752.396 412.771 751.421 417.649 750.965C417.721 750.953 417.787 750.915 417.835 750.859C417.883 750.804 417.909 750.733 417.911 750.659C417.912 750.586 417.888 750.514 417.842 750.456C417.797 750.399 417.732 750.359 417.66 750.343Z" fill="#39434F"/>
<path d="M421.181 752.421C416.299 751.493 410.338 752.209 406.594 755.659C406.442 755.8 406.594 756 406.794 755.953C411.464 754.473 416.28 753.498 421.157 753.043C421.23 753.031 421.297 752.995 421.346 752.94C421.395 752.885 421.424 752.815 421.426 752.741C421.429 752.668 421.406 752.595 421.361 752.537C421.317 752.478 421.253 752.437 421.181 752.421Z" fill="#39434F"/>
<path d="M424.69 754.556C419.808 753.629 413.847 754.345 410.103 757.795C409.951 757.936 410.103 758.135 410.303 758.089C414.973 756.609 419.788 755.634 424.666 755.178C424.739 755.167 424.806 755.131 424.855 755.076C424.904 755.021 424.932 754.951 424.935 754.877C424.938 754.803 424.915 754.731 424.87 754.672C424.825 754.614 424.762 754.573 424.69 754.556Z" fill="#39434F"/>
<path d="M424.056 739.7C422.155 737.048 418.576 738.222 416.534 739.923C413.079 742.899 410.469 746.732 408.965 751.036C408.957 751.056 408.954 751.077 408.957 751.097C408.959 751.118 408.966 751.138 408.978 751.155C408.989 751.172 409.005 751.186 409.023 751.196C409.041 751.206 409.061 751.212 409.082 751.212C409.077 751.308 409.094 751.403 409.133 751.491C409.172 751.578 409.231 751.655 409.306 751.715C409.38 751.774 409.468 751.815 409.562 751.834C409.656 751.853 409.753 751.849 409.845 751.823C413.882 750.356 418.376 749.288 421.838 746.624C423.857 745.063 425.863 742.2 424.056 739.7ZM415.513 748.349C413.541 749.123 411.546 749.792 409.645 750.637C411.053 748.426 412.577 746.292 414.21 744.242C415.01 743.256 415.877 742.327 416.804 741.461C418.259 740.146 424.021 737.365 423.141 742.704C422.613 745.65 417.848 747.434 415.513 748.349Z" fill="#39434F"/>
<path d="M396.584 749.71C400.586 751.435 405.209 751.376 409.493 751.811C409.939 751.811 410.161 751.388 410.091 751.024C410.106 751.012 410.118 750.997 410.126 750.98C410.134 750.962 410.138 750.944 410.138 750.925C410.138 750.905 410.134 750.887 410.126 750.869C410.118 750.852 410.106 750.837 410.091 750.825C407.575 747.02 404.103 743.945 400.022 741.906C397.617 740.733 393.873 740.51 392.676 743.537C391.479 746.565 394.237 748.701 396.584 749.71ZM394.39 746.189C392.219 741.225 398.485 742.505 400.257 743.42C401.369 744.032 402.44 744.719 403.461 745.474C405.544 747.065 407.546 748.761 409.457 750.555C407.369 750.215 405.28 750.062 403.179 749.792C400.644 749.51 395.587 748.959 394.39 746.225V746.189Z" fill="#39434F"/>
<path d="M414.914 750.684H363.28C363.28 750.684 363.926 657.425 359.877 652.262C354.479 645.362 278.905 645.514 262.699 623.03C248.148 602.822 260.434 574.236 260.434 574.236L317.666 572.534C316.373 578.665 314.6 584.684 312.362 590.536C312.362 590.536 381.294 603.245 400.609 624.356C413.588 638.626 414.914 750.684 414.914 750.684Z" fill="#39434F"/>
<path d="M322.372 586.628C320.713 586.997 319.091 587.515 317.525 588.177C315.882 588.811 314.263 589.515 312.679 590.29C309.573 591.832 306.553 593.54 303.631 595.406C303.537 595.406 303.631 595.582 303.725 595.535C306.811 593.928 310.015 592.484 313.218 591.111L317.842 589.116C319.443 588.513 321.01 587.823 322.536 587.051C322.578 587.02 322.608 586.977 322.622 586.927C322.637 586.878 322.635 586.825 322.616 586.777C322.597 586.728 322.563 586.688 322.519 586.661C322.475 586.634 322.423 586.623 322.372 586.628Z" fill="#39434F"/>
<path d="M318.945 572.523C318.288 575.128 317.772 577.757 316.962 580.35C316.622 581.524 316.282 582.697 315.789 583.871C315.413 584.833 314.838 585.948 313.712 586.159C312.585 586.37 312.045 585.302 312.151 584.234C312.256 583.166 312.573 581.887 312.808 580.714C313.078 579.364 313.36 578.003 313.606 576.653C313.723 575.973 313.852 575.292 313.97 574.612C313.97 574.436 314.122 573.133 314.216 572.757C314.216 572.757 314.216 572.828 314.287 572.816C314.287 572.816 314.369 572.816 314.369 572.746C314.369 572.675 314.369 572.617 314.298 572.546C314.228 572.476 314.228 572.546 314.181 572.546C313.935 572.687 313.923 573.027 313.841 573.274C313.629 573.931 313.418 574.6 313.219 575.257C312.855 576.501 312.503 577.757 312.186 579.012C311.869 580.268 311.564 581.523 311.259 582.779C310.931 583.708 310.842 584.705 311.001 585.678C311.118 586.14 311.381 586.553 311.751 586.855C312.121 587.157 312.578 587.333 313.054 587.356L312.914 587.602C312.796 587.86 312.714 588.13 312.62 588.4C312.526 588.67 312.432 588.94 312.35 589.21C312.315 589.345 312.292 589.482 312.28 589.621C312.28 589.773 312.28 589.914 312.28 590.067C312.28 590.219 312.573 590.442 312.691 590.219C312.766 590.09 312.848 589.964 312.937 589.844C313.014 589.705 313.077 589.56 313.125 589.409C313.207 589.151 313.289 588.893 313.348 588.623C313.406 588.353 313.5 588.095 313.547 587.825C313.559 587.665 313.559 587.504 313.547 587.344C314.096 587.298 314.62 587.099 315.061 586.769C315.794 586.151 316.335 585.337 316.622 584.422C317.009 583.342 317.314 582.216 317.619 581.101C318.425 578.356 318.983 575.544 319.286 572.699C319.438 572.323 319.016 572.218 318.945 572.523Z" fill="#39434F"/>
<path d="M284.914 578.907C284.679 580.198 284.526 581.512 284.221 582.791C283.916 584.071 283.588 585.303 283.177 586.523C282.806 587.715 282.269 588.849 281.581 589.891C280.865 590.869 280.011 591.739 279.046 592.473C277.2 593.935 275.127 595.085 272.909 595.876C271.796 596.279 270.66 596.612 269.506 596.873C268.907 597.014 268.332 597.12 267.687 597.202C267.181 597.213 266.682 597.325 266.22 597.531C266.176 597.558 266.14 597.596 266.115 597.641C266.09 597.686 266.077 597.737 266.077 597.789C266.077 597.84 266.09 597.891 266.115 597.936C266.14 597.981 266.176 598.019 266.22 598.047C267.102 598.303 268.035 598.331 268.931 598.129C269.907 598.027 270.875 597.858 271.829 597.624C273.758 597.105 275.603 596.315 277.309 595.277C279.062 594.321 280.635 593.066 281.956 591.569C283.177 589.995 284.016 588.159 284.409 586.206C285.014 583.83 285.282 581.381 285.207 578.931C285.148 578.79 284.937 578.766 284.914 578.907Z" fill="#39434F"/>
<path d="M370.662 686C370.153 677.88 369.48 669.779 368.643 661.697C368.432 659.702 368.232 657.695 367.986 655.712C367.844 654.158 367.505 652.628 366.977 651.159C365.803 648.12 363.257 646.582 360.194 645.82C356.58 644.904 352.836 644.353 349.163 643.766C345.49 643.179 341.629 642.592 337.85 642.088C330.211 641.02 322.595 640.034 314.955 638.755C307.365 637.551 299.859 635.866 292.483 633.709C285.723 631.667 278.788 629.144 273.378 624.462C261.725 614.381 261.303 597.471 262.723 583.389C262.922 581.394 263.169 579.411 263.415 577.416C263.415 577.311 263.263 577.275 263.251 577.416C262.335 585.372 261.256 593.387 262.077 601.403C262.587 608.038 264.775 614.434 268.438 619.991C272.381 625.635 278.225 629.285 284.526 631.831C291.478 634.511 298.653 636.572 305.966 637.992C321.069 641.161 336.477 642.499 351.674 645.092C353.552 645.409 355.418 645.749 357.284 646.113C359.019 646.377 360.719 646.834 362.353 647.474C365.803 649.012 366.754 652.368 367.176 655.841C368.174 663.892 368.843 671.989 369.429 680.086C370.603 696.386 371.225 712.78 371.201 729.127C371.201 731.145 371.201 737.94 371.201 739.958C371.201 740.134 371.471 740.111 371.471 739.958C371.905 723.482 371.694 702.347 370.662 686Z" fill="#39434F"/>
<path d="M412.497 742.575C400.762 741.777 367.129 742.106 366.73 742.27C366.554 742.352 366.601 742.669 366.789 742.681C372.656 743.103 410.737 743.303 412.438 742.997C412.626 742.962 412.696 742.587 412.497 742.575Z" fill="#39434F"/>
<path d="M312.667 590.748C323.231 592.013 333.672 594.153 343.882 597.143C354.177 600.035 364.245 603.679 374.006 608.045C379.487 610.498 384.791 613.244 390.036 616.13C390.142 616.189 390.036 616.342 389.942 616.295C380.456 611.392 370.655 607.123 360.605 603.515C350.643 599.888 340.45 596.932 330.094 594.667C324.226 593.4 318.359 592.414 312.491 591.44C312.163 591.311 312.268 590.642 312.667 590.748Z" fill="#39434F"/>
<path d="M363.01 673.116C362.646 667.506 362.06 661.897 361.144 656.335C360.769 654.093 360.675 651.195 358.316 650.08C357.225 649.552 335.327 645.75 332.182 645.808C332.15 645.81 332.119 645.823 332.095 645.843C332.07 645.864 332.052 645.892 332.044 645.923C332.037 645.955 332.039 645.988 332.051 646.018C332.063 646.048 332.084 646.073 332.112 646.09C332.405 646.219 353.235 650.15 355.863 650.784C356.429 650.825 356.98 650.982 357.482 651.244C357.985 651.507 358.428 651.869 358.785 652.309C359.287 653.45 359.585 654.669 359.666 655.912C361.421 666.816 362.394 677.833 362.576 688.876C362.662 691.943 362.713 694.998 362.728 698.041C362.728 701.186 362.623 704.366 362.858 707.488C362.858 707.556 362.885 707.622 362.933 707.67C362.982 707.719 363.047 707.746 363.116 707.746C363.184 707.746 363.25 707.719 363.298 707.67C363.347 707.622 363.374 707.556 363.374 707.488C363.609 704.648 363.526 701.749 363.538 698.898C363.55 696.046 363.538 693.171 363.538 690.296C363.526 684.557 363.397 678.831 363.01 673.116Z" fill="#39434F"/>
<path d="M315.003 520.959C329.8 540.639 364.947 568.31 373.197 561.868C383.336 553.958 381.411 524.855 381.669 521.112C381.892 517.11 348.647 518.119 349.985 522.203C350.771 524.621 351.158 527.214 350.513 526.968C348.553 526.193 344.199 522.274 325.318 511.712C314.815 505.809 305.204 507.933 315.003 520.959Z" fill="#FFC4C0"/>
<path d="M345.326 522.086L337.545 529.725L327.782 539.301C327.782 539.301 316.669 528.529 311.857 519.645C308.337 513.109 308.22 507.593 311.717 506.396C313.459 505.959 315.298 506.133 316.927 506.889C329.519 511.595 345.326 522.086 345.326 522.086Z" fill="#96D3FF"/>
<path d="M340.784 520.091C337.674 522.931 326.409 533.457 325.529 535.346C325.529 535.346 325.611 535.487 325.658 535.475C327.488 534.584 338.12 523.424 340.972 520.337C341.019 520.22 340.843 520.044 340.784 520.091Z" fill="#39434F"/>
<path d="M337.545 529.725L327.782 539.301C327.782 539.301 316.669 528.528 311.857 519.644C308.337 513.108 308.22 507.592 311.717 506.396L337.545 529.725Z" fill="#39434F"/>
<path d="M381.704 503.309C383.582 509.682 382.326 524.221 380.683 527.613C379.041 531.004 354.233 529.702 352.026 526.51C349.82 523.318 345.15 501.373 347.72 495.095C350.29 488.817 379.733 496.703 381.704 503.309Z" fill="#FFC4C0"/>
<path d="M353.247 480.813C352.179 477.926 346.968 469.653 344.457 470.615C341.946 471.578 344.187 478.126 345.173 480.755C347.227 486.164 347.156 494.156 347.062 498.029C346.968 501.901 356.016 498.029 356.016 498.029C356.016 498.029 356.04 488.312 353.247 480.813Z" fill="#FFC4C0"/>
<path d="M349.597 503.497C349.597 503.497 349.245 510.315 352.871 511.712C356.497 513.108 357.765 507.651 357.87 507.276C357.87 507.628 357.694 513.906 361.496 514.951C365.299 515.995 365.909 510.374 365.932 510.01C366.026 510.35 367.329 514.904 370.38 515.044C375.649 515.279 372.645 503.556 374.968 499.977C374.968 499.977 381.481 503.227 381.681 503.286C381.681 503.286 379.052 492.067 374.065 489.204C373.344 488.774 372.499 488.604 371.668 488.721C370.838 488.839 370.073 489.237 369.5 489.849C369.5 489.849 369.054 486.141 366.085 485.226C364.571 484.756 362.47 486.775 362.47 486.775C362.325 485.941 361.952 485.163 361.393 484.528C360.834 483.892 360.11 483.423 359.302 483.172C357.166 482.644 355.101 484.709 354.608 485.625C350.512 492.677 349.597 503.497 349.597 503.497Z" fill="#FFC4C0"/>
<path d="M362.471 486.693C362.471 486.634 362.388 486.575 362.342 486.693C358.343 492.837 356.678 500.21 357.648 507.475C357.648 507.734 357.988 507.91 357.953 507.616C357.518 502.617 359.924 492.255 362.471 486.693Z" fill="#39434F"/>
<path d="M366.19 510.515C365.322 503.404 366.812 496.726 369.335 490.096C369.335 490.002 369.242 489.967 369.195 490.026C367.082 492.948 365.909 497.337 365.299 500.845C364.658 504.081 364.88 507.428 365.944 510.55C365.991 510.668 366.214 510.668 366.19 510.515Z" fill="#39434F"/>
<path d="M349.597 503.497C349.651 504.809 349.823 506.113 350.114 507.393C350.348 508.651 350.911 509.825 351.745 510.796C352.15 511.218 352.698 511.473 353.282 511.512C353.873 511.55 354.464 511.432 354.995 511.172C355.505 510.873 355.945 510.469 356.286 509.988C356.628 509.506 356.864 508.958 356.979 508.379L357.671 505.562L358 508.437C358.132 509.718 358.477 510.967 359.02 512.134C359.24 512.687 359.572 513.187 359.997 513.603C360.421 514.02 360.928 514.343 361.485 514.551C362.006 514.736 362.574 514.736 363.095 514.552C363.616 514.369 364.058 514.012 364.348 513.542C364.979 512.474 365.327 511.262 365.357 510.022L365.569 506.607L366.484 509.881C366.741 510.796 367.111 511.675 367.587 512.498C368.01 513.291 368.66 513.941 369.453 514.364C369.816 514.543 370.222 514.616 370.625 514.575C371.028 514.533 371.411 514.379 371.729 514.129C372.361 513.483 372.793 512.668 372.973 511.782C373.396 509.851 373.663 507.888 373.771 505.914C373.865 504.917 373.959 503.919 374.1 502.922C374.179 501.912 374.475 500.932 374.968 500.047C374.581 500.969 374.378 501.957 374.37 502.957C374.311 503.943 374.299 504.94 374.288 505.95C374.305 507.975 374.136 509.998 373.783 511.993C373.606 513.079 373.116 514.09 372.375 514.903C371.922 515.299 371.363 515.554 370.767 515.638C370.171 515.721 369.563 515.629 369.019 515.373C368.029 514.868 367.212 514.079 366.672 513.108C366.124 512.206 365.698 511.235 365.404 510.221L366.578 510.092C366.554 511.559 366.15 512.994 365.404 514.258C364.971 514.948 364.311 515.467 363.538 515.725C362.774 515.962 361.956 515.962 361.191 515.725C360.483 515.467 359.837 515.062 359.297 514.536C358.757 514.01 358.335 513.375 358.058 512.674C357.492 511.377 357.136 509.999 357.002 508.59L358.023 508.66C357.855 509.374 357.532 510.042 357.078 510.618C356.624 511.194 356.049 511.663 355.394 511.993C354.716 512.277 353.978 512.386 353.247 512.31C352.504 512.217 351.821 511.859 351.322 511.301C350.478 510.21 349.953 508.906 349.808 507.534C349.587 506.2 349.516 504.846 349.597 503.497Z" fill="#39434F"/>
<path d="M350.548 522.919C350.548 522.919 332.57 501.185 344.504 498.275C348.025 497.418 363.632 498.158 363.55 501.291C363.433 505.328 356.873 506.243 352.66 506.149C352.66 506.149 359.818 512.686 356.755 519.058C356.173 520.208 355.287 521.176 354.192 521.857C353.097 522.538 351.837 522.905 350.548 522.919Z" fill="#FFC4C0"/>
<path d="M343.53 498.616C344.88 498.118 346.295 497.821 347.731 497.736C349.167 497.61 350.61 497.579 352.05 497.642C354.938 497.736 357.812 498.081 360.64 498.674C361.391 498.826 362.115 499.091 362.787 499.461C363.18 499.668 363.52 499.961 363.785 500.317C363.927 500.514 364.038 500.732 364.113 500.963C364.174 501.192 364.202 501.429 364.195 501.667C364.16 502.54 363.815 503.372 363.221 504.014C362.667 504.581 362.02 505.049 361.309 505.399C359.954 506.031 358.502 506.428 357.014 506.572C355.568 506.732 354.113 506.787 352.66 506.736L352.988 505.856C353.78 506.631 354.495 507.48 355.124 508.391C355.753 509.29 356.291 510.249 356.732 511.254C357.156 512.266 357.433 513.333 357.553 514.423C357.671 515.506 357.579 516.601 357.283 517.65C357.437 516.597 357.413 515.526 357.213 514.481C357.001 513.451 356.646 512.456 356.157 511.524C355.684 510.586 355.118 509.697 354.467 508.872C353.823 508.056 353.108 507.298 352.331 506.607L351.357 505.774H352.672C354.073 505.771 355.473 505.673 356.861 505.481C358.218 505.323 359.541 504.95 360.781 504.378C361.954 503.791 362.987 502.829 362.998 501.725C363.01 500.622 361.649 500.176 360.358 499.836C358.993 499.493 357.61 499.223 356.216 499.026C354.819 498.803 353.411 498.592 352.003 498.463C349.188 498.074 346.329 498.125 343.53 498.616Z" fill="#39434F"/>
<path d="M350.512 526.968L351.486 529.749L352.425 532.542L354.326 538.093C354.96 539.947 355.605 541.789 356.286 543.62C356.626 544.535 356.967 545.45 357.342 546.354C357.718 547.258 358.105 548.161 358.516 549.077C357.438 547.425 356.493 545.69 355.688 543.89C354.866 542.094 354.174 540.24 353.517 538.386C352.859 536.532 352.343 534.643 351.815 532.741C351.287 530.84 350.818 528.916 350.512 526.968Z" fill="#39434F"/>
<path d="M325.306 588.19C323.546 589.598 253.851 590.384 253.558 589.891C252.76 588.553 271.665 524.973 301.378 505.211C306.612 501.691 314.592 504.143 318.042 506.842C319.779 508.204 324.813 518.495 325.505 526.909C326.198 535.323 326.421 587.286 325.306 588.19Z" fill="#96D3FF"/>
<path d="M326.08 562.067V562.583C325.752 562.384 325.411 562.161 325.095 561.926C322.569 559.952 320.388 557.573 318.64 554.885C316.81 552.291 315.12 549.581 313.5 546.905C311.244 543.085 308.644 539.479 305.732 536.132L305.368 535.745C304.212 534.534 302.956 533.423 301.613 532.424C299.091 530.576 296.177 529.336 293.097 528.8C290.017 528.265 286.855 528.449 283.858 529.338C281.243 530.197 278.842 531.605 276.817 533.468L277.673 532.037C279.463 530.608 281.494 529.511 283.67 528.798C286.751 527.872 290.004 527.671 293.175 528.211C296.349 528.793 299.34 530.116 301.906 532.072C303.378 533.172 304.745 534.405 305.99 535.757C306.119 535.898 306.248 536.027 306.365 536.168C309.182 539.46 311.703 542.994 313.899 546.729C315.566 549.416 317.197 552.115 319.004 554.697C320.723 557.323 322.86 559.65 325.329 561.586C325.599 561.75 325.834 561.914 326.08 562.067ZM319.509 565.071C316.193 564.959 312.936 564.16 309.945 562.724C303.901 559.849 299.043 555.096 294.196 550.508C292.436 548.841 290.676 547.175 288.833 545.602L288.54 545.344C287.93 544.828 287.366 544.323 286.662 543.831C284.044 541.669 280.984 540.107 277.697 539.254C276.416 538.961 275.102 538.842 273.789 538.902L273.519 539.371C274.889 539.281 276.265 539.392 277.603 539.7C280.818 540.551 283.81 542.093 286.369 544.218C286.979 544.687 287.542 545.168 288.153 545.661C288.26 545.741 288.362 545.827 288.458 545.919C290.312 547.492 292.084 549.193 293.856 550.872C298.679 555.472 303.561 560.26 309.698 563.217C312.757 564.709 316.096 565.541 319.497 565.658C321.712 565.715 323.926 565.482 326.08 564.965C326.08 564.766 326.08 564.578 326.08 564.379C323.929 564.896 321.72 565.128 319.509 565.071ZM326.033 548.642C325.318 547.468 324.578 546.295 323.792 545.121C322.028 542.452 319.793 540.126 317.197 538.256C314.512 536.458 311.333 535.539 308.102 535.628C307.41 535.628 306.729 535.628 306.037 535.745L305.38 535.827C304.697 535.917 304.019 536.043 303.35 536.203C301.806 536.61 300.308 537.172 298.879 537.881C295.153 539.948 291.683 542.445 288.54 545.321C288.411 545.426 288.282 545.544 288.153 545.638C286.698 546.893 285.231 548.126 283.729 549.287C281.267 551.256 278.576 552.919 275.714 554.239C272.831 555.513 269.742 556.253 266.595 556.422C266.103 556.422 265.621 556.422 265.14 556.422C265.14 556.528 265.046 556.633 265.011 556.739L266.619 556.68C269.8 556.516 272.925 555.776 275.843 554.498C278.733 553.171 281.455 551.504 283.952 549.534C285.489 548.36 286.979 547.105 288.458 545.849L288.833 545.532C291.941 542.693 295.376 540.234 299.066 538.209C300.469 537.516 301.94 536.969 303.455 536.578C304.228 536.392 305.012 536.254 305.802 536.168H306.471C307.034 536.109 307.645 536.085 308.161 536.074C311.302 536.004 314.388 536.905 316.997 538.655C319.542 540.497 321.729 542.788 323.452 545.415C324.39 546.764 325.259 548.149 326.104 549.569C326.033 549.24 326.033 548.912 326.022 548.595L326.033 548.642Z" fill="white"/>
<path d="M317.56 518.918C313.477 518.742 308.56 511.02 307.304 505.551C307.222 505.176 312.256 492.561 312.995 489.956C313.148 489.428 328.251 498.569 328.251 498.569C326.395 501.557 324.913 504.761 323.839 508.11C323.698 508.485 321.515 519.094 317.56 518.918Z" fill="#FFC4C0"/>
<path d="M313.512 490.096C313.148 494.52 313.054 506.278 321.879 509.013C322.412 509.174 322.958 509.292 323.51 509.365C323.686 508.649 323.792 508.191 323.804 508.097C324.88 504.753 326.361 501.553 328.216 498.568C328.14 498.508 328.058 498.456 327.969 498.416C327.864 498.334 327.723 498.263 327.559 498.158L327.383 498.052C327.289 497.982 327.171 497.923 327.054 497.853L326.632 497.594L325.928 497.184L325.669 497.019L325.13 496.691L322.994 495.423L322.184 494.942C321.832 494.743 321.48 494.543 321.14 494.32L320.095 493.722L319.966 493.651L318.194 492.619L317.607 492.278L316.434 491.645L315.671 491.222L314.169 490.424L313.829 490.26L313.512 490.096Z" fill="#39434F"/>
<path d="M318.253 470.346C314.404 475.322 311.212 492.643 313.852 497.841C317.666 505.293 326.984 509.4 334.095 504.12C340.995 499.003 344.751 476.284 341.524 471.261C336.771 464.009 323.944 463 318.253 470.346Z" fill="#FFC4C0"/>
<path d="M329.824 486.986C329.824 486.986 329.718 486.986 329.718 487.068C329.46 488.242 328.967 489.58 327.805 489.709V489.779C329.143 489.92 329.777 488.16 329.824 486.986Z" fill="#39434F"/>
<path d="M329.085 485.496C327.219 484.886 326.127 488.653 327.911 489.228C329.695 489.803 330.645 486.013 329.085 485.496Z" fill="#39434F"/>
<path d="M336.512 488.395C336.512 488.395 336.595 488.477 336.512 488.524C336.137 489.697 335.89 491.058 336.829 491.762C336.829 491.762 336.829 491.845 336.829 491.762C335.621 491.258 335.937 489.427 336.512 488.395Z" fill="#39434F"/>
<path d="M337.921 487.479C339.834 487.901 338.86 491.703 337.088 491.316C335.316 490.929 336.313 487.138 337.921 487.479Z" fill="#39434F"/>
<path d="M326.55 496.585C326.738 496.949 326.89 497.407 327.289 497.583C327.72 497.725 328.177 497.769 328.627 497.712C328.627 497.712 328.697 497.77 328.627 497.794C328.384 497.964 328.101 498.065 327.805 498.088C327.51 498.111 327.214 498.054 326.949 497.923C326.735 497.782 326.567 497.581 326.467 497.345C326.367 497.109 326.338 496.849 326.385 496.597C326.385 496.586 326.386 496.575 326.389 496.565C326.393 496.555 326.398 496.545 326.405 496.537C326.412 496.529 326.421 496.522 326.431 496.517C326.44 496.513 326.451 496.51 326.462 496.509C326.473 496.508 326.483 496.51 326.494 496.513C326.504 496.516 326.513 496.522 326.522 496.529C326.53 496.536 326.536 496.545 326.541 496.554C326.546 496.564 326.549 496.574 326.55 496.585Z" fill="#39434F"/>
<path d="M333.238 493.347C333.238 493.347 332.992 495.166 332.769 495.987C331.15 495.557 329.48 495.347 327.805 495.365C327.406 495.365 327.488 495.083 327.969 494.954C329.376 494.562 330.869 494.603 332.253 495.072C332.382 494.86 332.581 492.267 332.71 492.302C333.337 492.534 333.929 492.85 334.471 493.241C335.081 489.474 335.093 485.625 335.761 481.881C335.769 481.858 335.784 481.838 335.804 481.823C335.824 481.809 335.848 481.801 335.873 481.801C335.898 481.801 335.922 481.809 335.942 481.823C335.962 481.838 335.977 481.858 335.984 481.881C336.108 485.996 335.818 490.112 335.116 494.168C335.057 494.673 333.59 493.581 333.238 493.347Z" fill="#39434F"/>
<path d="M327.723 482.363C328.263 482.281 328.768 482.281 329.307 482.245C329.862 482.133 330.438 482.203 330.95 482.445C331.095 482.553 331.2 482.706 331.248 482.88C331.297 483.054 331.287 483.239 331.22 483.407C331.036 483.717 330.772 483.973 330.457 484.148C330.142 484.323 329.785 484.412 329.425 484.405C328.691 484.503 327.948 484.328 327.336 483.912C327.2 483.809 327.098 483.669 327.042 483.508C326.985 483.348 326.977 483.175 327.018 483.01C327.06 482.845 327.148 482.695 327.274 482.58C327.399 482.465 327.555 482.39 327.723 482.363Z" fill="#39434F"/>
<path d="M341.219 483.372C340.818 483.02 340.399 482.691 339.963 482.386C339.575 481.979 339.063 481.71 338.508 481.623C338.328 481.627 338.154 481.692 338.016 481.807C337.877 481.922 337.782 482.081 337.745 482.257C337.718 482.618 337.789 482.979 337.95 483.303C338.111 483.627 338.357 483.902 338.66 484.099C339.21 484.596 339.926 484.868 340.667 484.862C340.835 484.852 340.997 484.793 341.132 484.692C341.267 484.592 341.37 484.454 341.429 484.297C341.487 484.139 341.498 483.967 341.461 483.803C341.424 483.639 341.339 483.489 341.219 483.372Z" fill="#39434F"/>
<path d="M322.278 485.132C323.722 485.684 323.991 482.668 324.062 481.612C324.237 480.526 324.508 479.458 324.872 478.42C324.447 479.436 323.928 480.41 323.323 481.33C322.654 482.14 320.835 484.557 322.278 485.132Z" fill="white"/>
<path d="M312.55 487.009C312.55 487.009 309.792 474.782 312.327 469.09C313.5 466.52 317.69 465.945 317.69 465.945C317.774 464.768 318.186 463.638 318.878 462.682C319.571 461.726 320.517 460.982 321.609 460.535C325.74 458.622 333.133 461.838 333.133 461.838C333.133 461.838 340.444 456.358 346.476 461.509C352.507 466.661 345.302 473.068 345.302 473.068C345.302 473.068 346.652 477.551 339.435 478.302C332.394 479.041 320.87 472.153 320.87 472.153C320.017 476.633 318.498 480.961 316.363 484.991C315.975 485.645 315.413 486.18 314.74 486.536C314.067 486.892 313.309 487.056 312.55 487.009Z" fill="#39434F"/>
<path d="M334.306 462.331C332.959 461.178 331.389 460.315 329.694 459.796C328.187 459.263 326.599 458.997 325 459.01C323.594 458.939 322.195 459.253 320.954 459.919C319.713 460.585 318.678 461.577 317.959 462.788C317.63 463.431 317.433 464.132 317.379 464.851C317.324 465.571 317.414 466.294 317.642 466.978C317.642 467.037 317.748 466.978 317.725 466.978C316.786 464.431 318.675 461.615 320.893 460.5C323.508 459.416 326.429 459.324 329.108 460.242C330.847 460.789 332.514 461.546 334.072 462.495C334.082 462.511 334.096 462.524 334.112 462.534C334.128 462.544 334.145 462.551 334.164 462.554C334.183 462.557 334.202 462.557 334.22 462.553C334.238 462.549 334.256 462.541 334.271 462.53C334.286 462.52 334.3 462.506 334.31 462.49C334.32 462.474 334.327 462.456 334.33 462.438C334.333 462.419 334.333 462.4 334.329 462.382C334.325 462.364 334.317 462.346 334.306 462.331Z" fill="#39434F"/>
<path d="M350.348 466.556C350.332 465.521 350.063 464.506 349.564 463.6C349.065 462.694 348.351 461.923 347.485 461.357C345.537 459.973 343.183 459.279 340.796 459.386C338.394 459.5 336.068 460.258 334.06 461.58C334.06 461.58 334.06 461.686 334.06 461.662C335.858 460.509 337.935 459.862 340.07 459.789C342.206 459.717 344.321 460.222 346.194 461.252C347.081 461.65 347.856 462.262 348.448 463.033C349.04 463.805 349.431 464.711 349.585 465.671C349.74 466.631 349.654 467.615 349.334 468.533C349.015 469.452 348.472 470.276 347.755 470.933C346.075 472.472 343.998 473.509 341.758 473.925C341.758 473.925 341.758 474.019 341.758 474.008C343.844 473.729 345.823 472.921 347.508 471.661C348.319 471.063 348.993 470.297 349.483 469.417C349.972 468.536 350.268 467.56 350.348 466.556Z" fill="#39434F"/>
<path d="M340.866 479.147C337.707 479.336 334.543 478.852 331.584 477.727C328.493 476.6 325.534 475.141 322.759 473.374C321.14 472.364 319.556 471.285 317.995 470.182C317.995 470.182 317.901 470.182 317.995 470.264C320.599 472.581 323.438 474.618 326.468 476.343C329.298 477.912 332.407 478.917 335.621 479.3C337.385 479.495 339.168 479.468 340.925 479.218C340.925 479.218 340.913 479.135 340.866 479.147Z" fill="#39434F"/>
<path d="M316.716 484.909C316.716 484.909 314.897 478.291 312.022 478.76C309.146 479.23 309.193 487.89 311.646 489.944C311.937 490.225 312.281 490.445 312.658 490.592C313.035 490.739 313.437 490.809 313.842 490.798C314.246 490.787 314.644 490.695 315.013 490.528C315.381 490.362 315.713 490.123 315.988 489.826L316.716 484.909Z" fill="#FFC4C0"/>
<path d="M312.092 481.236V481.307C313.782 482.821 314.169 485.015 314.228 487.174C314.183 486.934 314.086 486.707 313.945 486.507C313.803 486.308 313.62 486.142 313.408 486.021C313.196 485.899 312.96 485.825 312.717 485.803C312.474 485.781 312.228 485.813 311.998 485.895C311.998 485.895 311.998 486.012 311.998 486.012C312.386 486.028 312.76 486.162 313.068 486.397C313.377 486.633 313.606 486.957 313.723 487.327C313.914 487.946 314.04 488.583 314.099 489.228C314.099 489.439 314.474 489.463 314.486 489.228C315.413 486.681 314.709 482.457 312.092 481.236Z" fill="#39434F"/>
<path d="M295.475 517.603C292.037 536.801 294.102 577.052 302.845 583.8C312.972 591.604 357.307 593.188 367.165 590.301C371.096 589.128 361.743 563.158 357.378 563.193C339.036 563.322 323.593 561.21 322.02 559.039C319.603 555.718 313.277 532.307 308.959 517.638C303.549 499.214 297.013 508.989 295.475 517.603Z" fill="#FFC4C0"/>
<path d="M406.629 536.226L378.465 554.627C378.29 554.717 378.141 554.851 378.031 555.015C377.921 555.179 377.854 555.367 377.837 555.564C377.819 555.761 377.851 555.958 377.93 556.139C378.01 556.32 378.133 556.478 378.289 556.598L391.386 566.432C391.808 566.7 392.299 566.843 392.8 566.843C393.3 566.843 393.791 566.7 394.214 566.432L422.378 548.031C422.555 547.941 422.707 547.808 422.819 547.643C422.93 547.478 422.998 547.287 423.016 547.089C423.033 546.89 423 546.691 422.919 546.509C422.839 546.327 422.713 546.168 422.554 546.048L409.458 536.226C409.035 535.958 408.544 535.815 408.043 535.815C407.543 535.815 407.052 535.958 406.629 536.226Z" fill="#39434F"/>
<path d="M405.421 535.405L377.257 553.805C377.081 553.896 376.932 554.03 376.822 554.193C376.712 554.357 376.645 554.546 376.628 554.743C376.61 554.939 376.642 555.137 376.722 555.318C376.801 555.498 376.924 555.656 377.08 555.777L390.177 565.611C390.6 565.879 391.09 566.021 391.591 566.021C392.092 566.021 392.582 565.879 393.005 565.611L421.169 547.21C421.347 547.12 421.498 546.986 421.61 546.821C421.722 546.656 421.789 546.466 421.807 546.267C421.825 546.069 421.791 545.869 421.711 545.687C421.63 545.505 421.504 545.347 421.345 545.227L408.249 535.405C407.826 535.137 407.335 534.994 406.835 534.994C406.334 534.994 405.843 535.137 405.421 535.405Z" fill="#39434F"/>
<path d="M404.834 536.942L379.017 553.817C378.219 554.333 378.113 555.155 378.77 555.647L390.505 564.437C390.9 564.681 391.356 564.81 391.82 564.81C392.284 564.81 392.739 564.681 393.134 564.437L418.951 547.55C420.571 546.506 420.395 545.872 419.737 545.379L417.39 543.619C417.289 543.571 417.176 543.552 417.064 543.565C416.952 543.577 416.846 543.62 416.757 543.689H416.663C416.51 543.815 416.315 543.877 416.118 543.862C415.921 543.846 415.738 543.755 415.607 543.607L410.173 539.535C409.868 539.301 409.634 539.113 410.173 538.784L410.256 538.726C410.479 538.585 410.537 538.397 410.396 538.291L408.049 536.531C407.334 536.062 406.348 535.98 404.834 536.942Z" fill="white"/>
<path d="M412.755 540.627L414.234 541.801C414.264 541.818 414.298 541.827 414.333 541.827C414.368 541.827 414.403 541.818 414.433 541.801C414.443 541.792 414.451 541.781 414.457 541.769C414.462 541.757 414.465 541.744 414.465 541.73C414.465 541.717 414.462 541.704 414.457 541.692C414.451 541.679 414.443 541.669 414.433 541.66L412.943 540.557C412.916 540.536 412.883 540.524 412.849 540.524C412.815 540.524 412.782 540.536 412.755 540.557C412.708 540.533 412.708 540.592 412.755 540.627Z" fill="white"/>
<path d="M391.667 548.443L401.619 555.906L412.72 548.677L402.757 541.202L391.667 548.443Z" fill="#96D3FF"/>
<path d="M393.991 552.738L399.8 557.103L400.457 556.669L394.648 552.315L393.991 552.738Z" fill="#B3BECD"/>
<path d="M391.855 552.632L398.732 557.796L399.06 557.584L392.172 552.421L391.855 552.632Z" fill="#B3BECD"/>
<path d="M391.257 553.019L398.134 558.182L398.462 557.971L391.574 552.808L391.257 553.019Z" fill="#B3BECD"/>
<path d="M390.658 553.418L397.535 558.57L397.864 558.359L390.987 553.195L390.658 553.418Z" fill="#B3BECD"/>
<path d="M414.856 545.544L416.1 546.471L416.358 546.295L415.126 545.368L414.856 545.544Z" fill="#B3BECD"/>
<path d="M414.363 545.861L415.595 546.788L415.865 546.612L414.633 545.685L414.363 545.861Z" fill="#B3BECD"/>
<path d="M413.87 546.178L415.114 547.117L415.372 546.941L414.14 546.002L413.87 546.178Z" fill="#B3BECD"/>
<path d="M390.142 549.592C390.103 549.742 390.103 549.9 390.142 550.05C390.364 550.084 390.589 550.084 390.811 550.05C391.245 550.05 391.574 549.768 391.339 549.58C391.104 549.392 390.787 549.58 390.787 549.58C390.787 549.58 391.057 549.357 390.858 549.216C390.658 549.076 390.224 549.287 390.142 549.592Z" fill="#96D3FF"/>
<path d="M383.148 555.343L391.174 561.375L393.744 559.709L385.706 553.677L383.148 555.343Z" fill="#96D3FF"/>
<path d="M365.756 590.383C367.915 590.383 386.081 585.877 391.573 582.791C397.457 579.652 402.792 575.578 407.369 570.727C414.55 563.029 418.787 557.021 418.928 553.7C419.08 549.839 418.928 549.158 404.411 560.999C396.197 567.688 390.916 566.866 386.691 565.27C369.324 558.652 352.589 563.17 352.589 563.17C352.589 563.17 357.448 590.36 365.756 590.383Z" fill="#FFC4C0"/>
<path d="M388.839 565.963C384.415 564.45 401.947 560.671 403.966 555.73C405.984 550.79 400.48 550.614 395.669 552.022C378.771 557.033 368.854 552.926 358.704 559.873C357.624 560.6 354.444 562.22 354.385 562.736C353.904 567.595 388.839 565.963 388.839 565.963Z" fill="#FFC4C0"/>
<path d="M377.726 555.061C374.598 554.752 371.443 554.843 368.338 555.331C365.491 555.952 362.79 557.116 360.382 558.757C360.276 558.816 360.382 558.992 360.476 558.933C365.686 555.8 371.823 555.495 377.726 555.202C377.745 555.202 377.763 555.194 377.776 555.181C377.789 555.168 377.796 555.15 377.796 555.131C377.796 555.112 377.789 555.095 377.776 555.081C377.763 555.068 377.745 555.061 377.726 555.061Z" fill="#39434F"/>
<path d="M291.966 543.338L302.645 541.331L316.094 538.808C316.094 538.808 312.937 523.834 309.053 514.493C305.086 504.894 298.491 501.76 294.865 514.951C291.344 527.918 291.966 543.338 291.966 543.338Z" fill="#96D3FF"/>
<path d="M292.917 538.491C297.024 537.564 312.104 534.349 314.111 534.665C314.111 534.665 314.181 534.818 314.111 534.841C312.339 535.839 297.095 538.174 292.929 538.737C292.882 538.749 292.835 538.515 292.917 538.491Z" fill="#39434F"/>
<path d="M293.903 542.974C293.269 543.161 292.635 543.326 292.001 543.49H291.825V543.291C291.661 541.612 291.638 539.923 291.638 538.245C291.638 536.566 291.72 534.877 291.837 533.198C291.955 531.52 292.107 529.842 292.342 528.176C292.576 526.509 292.823 524.855 293.175 523.2C293.175 524.89 293.058 526.556 292.975 528.235C292.893 529.913 292.788 531.579 292.694 533.257C292.518 536.59 292.283 539.934 292.142 543.279L291.955 543.138C292.588 543.103 293.245 543.021 293.903 542.974Z" fill="#39434F"/>
<path d="M291.086 526.968C291.421 527.986 291.672 529.03 291.837 530.089C291.919 530.617 292.002 531.145 292.049 531.674C292.105 532.211 292.133 532.752 292.131 533.293C291.71 532.298 291.418 531.253 291.262 530.183C291.074 529.122 291.015 528.043 291.086 526.968Z" fill="#39434F"/>
<path d="M315.202 538.973L316.07 538.715L316 538.832C315.542 537.436 315.178 536.027 314.768 534.631L313.676 530.406C312.972 527.59 312.315 524.774 311.705 521.91C312.319 523.237 312.848 524.601 313.289 525.994C313.77 527.379 314.146 528.787 314.463 530.195C314.779 531.603 315.143 533.035 315.425 534.467C315.706 535.898 315.953 537.33 316.129 538.785V538.891H316.035C315.812 538.938 315.507 538.949 315.202 538.973Z" fill="#39434F"/>
<path d="M313.899 524.737C314.159 525.525 314.294 526.349 314.298 527.178C314.306 527.594 314.278 528.011 314.216 528.422C314.165 528.826 314.059 529.221 313.899 529.596C313.779 528.787 313.716 527.972 313.711 527.155C313.69 526.345 313.753 525.534 313.899 524.737Z" fill="#39434F"/>
<path d="M387.836 429.046C387.951 430.39 387.666 431.738 387.015 432.919C386.364 434.101 385.377 435.063 384.18 435.683C382.982 436.304 381.627 436.556 380.287 436.406C378.946 436.257 377.68 435.713 376.648 434.844C375.617 433.975 374.866 432.819 374.492 431.523C374.117 430.228 374.135 428.85 374.544 427.564C374.952 426.279 375.733 425.143 376.787 424.301C377.841 423.46 379.121 422.949 380.465 422.835C381.357 422.758 382.255 422.857 383.109 423.128C383.962 423.398 384.754 423.834 385.439 424.411C386.123 424.988 386.688 425.694 387.099 426.49C387.51 427.285 387.761 428.154 387.836 429.046Z" fill="white"/>
<path d="M387.836 429.045C387.99 430.871 387.434 432.685 386.283 434.11C385.132 435.535 383.475 436.46 381.658 436.693C380.721 436.791 379.774 436.701 378.872 436.429C377.97 436.156 377.132 435.707 376.405 435.108C375.679 434.508 375.079 433.769 374.641 432.935C374.203 432.101 373.935 431.188 373.854 430.25C373.772 429.311 373.879 428.366 374.166 427.469C374.454 426.572 374.918 425.741 375.53 425.025C376.142 424.309 376.891 423.722 377.733 423.299C378.574 422.875 379.492 422.623 380.431 422.558C382.264 422.474 384.059 423.103 385.439 424.312C386.819 425.521 387.678 427.217 387.836 429.045ZM387.836 429.045C387.763 428.166 387.512 427.31 387.098 426.53C386.685 425.749 386.117 425.061 385.43 424.506C384.744 423.952 383.951 423.542 383.102 423.302C382.252 423.062 381.362 422.997 380.487 423.111C378.82 423.347 377.306 424.208 376.252 425.52C375.197 426.831 374.68 428.495 374.806 430.173C374.953 431.854 375.742 433.414 377.01 434.528C378.279 435.642 379.928 436.223 381.614 436.152C382.496 436.113 383.361 435.897 384.157 435.515C384.953 435.132 385.663 434.593 386.244 433.929C386.826 433.265 387.267 432.49 387.54 431.65C387.814 430.811 387.914 429.925 387.836 429.045Z" fill="#39434F"/>
<path d="M373.137 441.612C373.2 442.358 373.04 443.106 372.678 443.762C372.315 444.417 371.767 444.951 371.102 445.295C370.437 445.639 369.684 445.779 368.94 445.696C368.196 445.613 367.493 445.311 366.919 444.829C366.346 444.347 365.929 443.706 365.72 442.986C365.511 442.267 365.52 441.502 365.745 440.788C365.97 440.073 366.402 439.442 366.986 438.973C367.57 438.504 368.28 438.218 369.026 438.152C370.03 438.067 371.027 438.383 371.797 439.031C372.568 439.68 373.05 440.608 373.137 441.612Z" fill="white"/>
<path d="M373.137 441.612C373.232 442.647 372.929 443.679 372.291 444.5C371.653 445.321 370.727 445.868 369.7 446.032C368.893 446.157 368.068 446.036 367.33 445.686C366.592 445.336 365.977 444.773 365.563 444.069C365.149 443.365 364.956 442.553 365.009 441.738C365.061 440.924 365.357 440.143 365.859 439.499C366.36 438.854 367.043 438.375 367.82 438.123C368.596 437.871 369.431 437.858 370.215 438.085C370.999 438.313 371.697 438.771 372.218 439.399C372.739 440.028 373.059 440.799 373.137 441.612ZM373.137 441.612C373.09 441.119 372.942 440.64 372.703 440.207C372.463 439.774 372.137 439.394 371.745 439.092C371.2 438.684 370.549 438.442 369.87 438.396C369.192 438.35 368.514 438.501 367.919 438.832C367.324 439.162 366.838 439.657 366.519 440.258C366.199 440.859 366.06 441.539 366.119 442.217C366.178 442.895 366.431 443.541 366.849 444.078C367.267 444.615 367.831 445.02 368.474 445.243C369.116 445.467 369.81 445.499 370.471 445.337C371.132 445.175 371.731 444.826 372.198 444.33C372.532 443.965 372.788 443.536 372.95 443.068C373.111 442.601 373.175 442.105 373.137 441.612Z" fill="#39434F"/>
<path d="M438.828 397.339C439.253 400.803 438.759 404.318 437.396 407.531C436.034 410.743 433.85 413.541 431.064 415.643C428.278 417.745 424.988 419.077 421.524 419.505C418.061 419.933 414.546 419.443 411.332 418.083C409.768 420.117 407.758 421.763 405.455 422.895C403.153 424.026 400.621 424.612 398.056 424.606C395.491 424.601 392.961 424.005 390.664 422.864C388.366 421.723 386.362 420.068 384.808 418.028C384.087 418.249 383.347 418.404 382.598 418.492C379.996 418.817 377.356 418.38 374.997 417.234C372.639 416.088 370.664 414.282 369.311 412.036C367.959 409.789 367.287 407.199 367.378 404.579C367.469 401.958 368.318 399.42 369.822 397.273C366.852 393.545 365.319 388.875 365.502 384.112C365.685 379.349 367.572 374.811 370.82 371.322C374.068 367.834 378.46 365.627 383.197 365.104C387.935 364.581 392.703 365.776 396.633 368.473C398.475 366.17 400.895 364.397 403.645 363.332C406.395 362.268 409.378 361.951 412.291 362.414C415.203 362.876 417.941 364.102 420.226 365.966C422.511 367.83 424.262 370.266 425.301 373.026C425.997 372.79 426.715 372.627 427.445 372.54C429.659 372.267 431.904 372.68 433.877 373.722C435.85 374.765 437.457 376.386 438.48 378.369C439.503 380.352 439.895 382.601 439.601 384.813C439.308 387.025 438.343 389.094 436.838 390.741C437.889 392.805 438.563 395.039 438.828 397.339Z" fill="white"/>
<path d="M438.828 397.339C439.24 400.801 438.749 404.312 437.402 407.528C436.716 409.129 435.837 410.64 434.783 412.026C433.707 413.389 432.463 414.611 431.08 415.662C428.289 417.782 424.991 419.134 421.515 419.586C418.039 420.038 414.506 419.573 411.265 418.237H411.453C409.872 420.313 407.834 421.998 405.497 423.16C403.161 424.322 400.588 424.93 397.978 424.938C395.368 424.945 392.792 424.352 390.449 423.203C388.105 422.054 386.058 420.382 384.465 418.314L384.863 418.447C383.488 418.863 382.056 419.06 380.619 419.033C379.179 419.031 377.749 418.792 376.386 418.326C373.629 417.402 371.227 415.645 369.512 413.297C368.679 412.116 368.02 410.821 367.556 409.451C367.112 408.075 366.874 406.642 366.849 405.196C366.822 402.277 367.707 399.422 369.38 397.029V397.604C366.362 393.781 364.815 389.003 365.018 384.137C365.22 379.271 367.16 374.639 370.485 371.08C373.818 367.539 378.297 365.292 383.128 364.737C387.948 364.22 392.794 365.447 396.788 368.196L396.301 368.273C398.194 365.939 400.674 364.151 403.486 363.09C406.298 362.03 409.341 361.736 412.304 362.239C415.242 362.728 418 363.983 420.297 365.879C422.595 367.775 424.351 370.244 425.389 373.036L425.245 372.97C427.563 372.22 430.064 372.251 432.362 373.058C434.071 373.664 435.603 374.684 436.821 376.026C438.039 377.369 438.906 378.992 439.344 380.751C439.782 382.51 439.777 384.35 439.33 386.107C438.883 387.863 438.008 389.482 436.783 390.818C437.844 392.854 438.537 395.061 438.828 397.339ZM438.828 397.339C438.555 395.025 437.87 392.779 436.805 390.708C438.014 389.377 438.873 387.767 439.306 386.022C439.739 384.277 439.732 382.452 439.287 380.711C438.841 378.969 437.97 377.366 436.752 376.044C435.534 374.722 434.006 373.722 432.307 373.136C430.044 372.357 427.586 372.357 425.323 373.136H425.212V373.025C424.158 370.305 422.404 367.911 420.128 366.085C417.866 364.25 415.152 363.055 412.271 362.626C409.408 362.184 406.478 362.51 403.783 363.573C401.088 364.635 398.723 366.394 396.931 368.671L396.732 368.936L396.445 368.737C392.583 366.166 387.932 365.052 383.324 365.594C378.716 366.137 374.451 368.301 371.292 371.699C368.168 375.103 366.351 379.504 366.163 384.121C365.974 388.737 367.427 393.271 370.264 396.919L370.496 397.217L370.275 397.538C368.712 399.747 367.881 402.391 367.899 405.097C367.909 406.443 368.121 407.781 368.529 409.064C368.952 410.343 369.558 411.553 370.33 412.656C371.922 414.855 374.146 416.517 376.707 417.419C377.985 417.874 379.329 418.116 380.685 418.138C382.041 418.188 383.395 418.02 384.697 417.64L384.94 417.563L385.106 417.773C386.622 419.777 388.572 421.413 390.809 422.558C394.219 424.282 398.123 424.766 401.851 423.927C405.579 423.088 408.899 420.979 411.243 417.961L411.32 417.861H411.431C414.617 419.239 418.112 419.746 421.559 419.331C425.005 418.915 428.28 417.592 431.047 415.496C432.43 414.454 433.677 413.244 434.761 411.894C435.815 410.533 436.698 409.048 437.391 407.473C438.735 404.275 439.23 400.784 438.828 397.339Z" fill="#39434F"/>
<path d="M413.078 396.798L412.448 399.815C412.4 400.12 412.29 400.412 412.123 400.672C411.955 400.932 411.736 401.154 411.477 401.324C411.219 401.494 410.928 401.607 410.623 401.658C410.318 401.708 410.006 401.694 409.707 401.616C409.408 401.554 409.123 401.434 408.871 401.262C408.618 401.09 408.402 400.87 408.235 400.614C408.067 400.359 407.952 400.072 407.895 399.772C407.839 399.472 407.842 399.163 407.905 398.864L408.911 394.035C408.911 394.035 408.911 394.035 408.977 393.957C409.044 393.88 408.977 393.957 408.977 393.847C409.12 393.253 409.485 392.736 409.997 392.403C410.509 392.07 411.129 391.946 411.729 392.056C413.11 392.35 414.55 392.082 415.734 391.313C416.917 390.544 417.747 389.337 418.04 387.956C418.333 386.576 418.065 385.135 417.297 383.952C416.528 382.769 415.32 381.939 413.94 381.646C413.037 381.459 412.1 381.511 411.224 381.798C410.348 382.085 409.562 382.597 408.944 383.282C408.746 383.529 408.5 383.733 408.22 383.882C407.94 384.031 407.633 384.121 407.317 384.147C407.001 384.173 406.683 384.135 406.383 384.034C406.082 383.933 405.806 383.772 405.57 383.561C405.333 383.35 405.143 383.092 405.009 382.805C404.876 382.517 404.803 382.206 404.794 381.889C404.785 381.572 404.84 381.257 404.957 380.962C405.074 380.668 405.25 380.4 405.474 380.176C406.573 378.949 407.96 378.013 409.509 377.454C411.059 376.895 412.723 376.73 414.353 376.973C415.982 377.216 417.526 377.861 418.845 378.848C420.163 379.835 421.217 381.134 421.909 382.629C422.602 384.124 422.912 385.767 422.813 387.412C422.713 389.056 422.207 390.65 421.339 392.051C420.471 393.451 419.269 394.614 417.84 395.435C416.412 396.255 414.802 396.709 413.155 396.753L413.078 396.798ZM410.967 406.965L410.79 407.805C410.734 408.107 410.617 408.395 410.446 408.65C410.276 408.906 410.056 409.125 409.799 409.293C409.541 409.461 409.253 409.576 408.95 409.63C408.648 409.684 408.337 409.676 408.038 409.606C407.437 409.476 406.91 409.114 406.573 408.6C406.236 408.085 406.115 407.458 406.237 406.854L406.413 406.015C406.551 405.419 406.915 404.9 407.429 404.567C407.943 404.235 408.565 404.116 409.165 404.235C409.765 404.36 410.291 404.717 410.629 405.229C410.966 405.74 411.088 406.364 410.967 406.965Z" fill="#96D3FF"/>
<path d="M388.93 390.664L388.609 387.658C388.554 387.352 388.564 387.038 388.639 386.737C388.713 386.435 388.85 386.153 389.041 385.908C389.232 385.663 389.472 385.461 389.746 385.315C390.02 385.169 390.322 385.082 390.632 385.061C391.243 384.989 391.857 385.161 392.341 385.54C392.825 385.918 393.141 386.473 393.218 387.083L393.826 391.979C393.826 391.979 393.826 391.979 393.826 392.078C393.826 392.178 393.826 392.078 393.881 392.167C393.941 392.775 393.765 393.384 393.388 393.865C393.012 394.347 392.464 394.665 391.859 394.753C391.146 394.813 390.452 395.016 389.82 395.351C389.187 395.685 388.629 396.144 388.178 396.7C387.727 397.255 387.393 397.896 387.196 398.584C386.998 399.272 386.942 399.992 387.03 400.702C387.117 401.412 387.348 402.098 387.707 402.717C388.066 403.335 388.546 403.876 389.118 404.305C389.691 404.733 390.345 405.042 391.039 405.213C391.734 405.383 392.457 405.411 393.163 405.296C394.077 405.19 394.948 404.844 395.685 404.293C396.423 403.741 397.002 403.005 397.362 402.157C397.482 401.871 397.657 401.611 397.878 401.392C398.098 401.174 398.36 401.002 398.648 400.886C398.936 400.769 399.244 400.712 399.555 400.716C399.865 400.719 400.172 400.785 400.457 400.909C400.736 401.03 400.988 401.205 401.2 401.424C401.411 401.643 401.577 401.902 401.688 402.186C401.799 402.469 401.852 402.772 401.846 403.076C401.84 403.38 401.773 403.68 401.65 403.959C400.997 405.466 399.981 406.788 398.693 407.807C397.404 408.826 395.884 409.51 394.266 409.798C392.649 410.086 390.986 409.968 389.425 409.457C387.864 408.945 386.454 408.055 385.321 406.865C384.188 405.676 383.368 404.224 382.932 402.64C382.497 401.057 382.461 399.389 382.827 397.788C383.193 396.187 383.95 394.701 385.031 393.464C386.111 392.226 387.481 391.276 389.018 390.697L388.93 390.664ZM387.659 380.364L387.549 379.513C387.495 379.208 387.506 378.895 387.582 378.595C387.657 378.295 387.794 378.014 387.985 377.77C388.175 377.526 388.415 377.325 388.688 377.18C388.962 377.035 389.262 376.948 389.571 376.927C389.874 376.888 390.181 376.91 390.476 376.991C390.77 377.072 391.045 377.21 391.286 377.399C391.526 377.587 391.727 377.82 391.877 378.087C392.026 378.353 392.121 378.646 392.157 378.949L392.268 379.789C392.334 380.4 392.16 381.012 391.782 381.497C391.405 381.982 390.854 382.301 390.245 382.386C389.942 382.426 389.634 382.406 389.339 382.325C389.044 382.245 388.768 382.106 388.527 381.918C388.287 381.73 388.086 381.495 387.937 381.228C387.788 380.962 387.693 380.668 387.659 380.364Z" fill="#96D3FF"/>
<defs>
<linearGradient id="paint0_linear_4_78672" x1="165.5" y1="65" x2="165.5" y2="333" gradientUnits="userSpaceOnUse">
<stop stop-color="#A0AEC0" stop-opacity="0"/>
<stop offset="1" stop-color="#A0AEC0"/>
</linearGradient>
<linearGradient id="paint1_linear_4_78672" x1="275.86" y1="47" x2="275.86" y2="290" gradientUnits="userSpaceOnUse">
<stop stop-color="#A0AEC0" stop-opacity="0"/>
<stop offset="1" stop-color="#A0AEC0"/>
</linearGradient>
</defs>
</svg>
