<svg width="660" height="964" viewBox="0 0 660 964" fill="none" xmlns="http://www.w3.org/2000/svg">
<rect width="660" height="964" rx="24" fill="#ECEFF2"/>
<path d="M144.66 610.23L130.91 610.5L123.91 610.62C121.58 610.62 119.24 610.62 116.91 610.67H116.47V610.23L116.41 598.51V598H116.91L130.78 598.06C135.4 598.06 140.02 598.17 144.64 598.22H144.92V598.49C144.92 600.49 144.83 602.49 144.79 604.4L144.66 610.23ZM144.66 610.23L144.52 604.31C144.52 602.36 144.41 600.43 144.39 598.51L144.66 598.78C140.04 598.78 135.42 598.94 130.8 598.94L116.93 599.01L117.43 598.51V610.23L116.98 609.78C119.27 609.78 121.55 609.78 123.84 609.78L130.73 609.9L144.66 610.23Z" fill="#C6CED9"/>
<path d="M129.19 625L115.44 625.28L108.44 625.39C106.11 625.44 103.77 625.39 101.44 625.45H101V625V613.28V612.78H101.5L115.37 612.85C119.99 612.85 124.61 612.96 129.23 613.01H129.51V613.28C129.51 615.28 129.42 617.28 129.38 619.2L129.19 625ZM129.19 625L129.05 619.08C129.05 617.13 128.94 615.2 128.92 613.28L129.19 613.56C124.57 613.61 119.95 613.72 115.33 613.72L101.46 613.78L101.96 613.28L101.91 625L101.46 624.56C103.75 624.56 106.03 624.56 108.32 624.61L115.21 624.72L129.19 625Z" fill="#C6CED9"/>
<path d="M543.29 577.53L529.54 577.81L522.54 577.92C520.21 577.97 517.87 577.92 515.54 577.98H515.09V577.53L515.04 565.81V565.31H515.55L529.41 565.38C534.04 565.38 538.66 565.49 543.28 565.54H543.55V565.81C543.55 567.81 543.47 569.81 543.42 571.73L543.29 577.53ZM543.29 577.53L543.15 571.61C543.15 569.66 543.04 567.73 543.02 565.81L543.29 566.09C538.67 566.14 534.05 566.25 529.42 566.25L515.56 566.31L516.06 565.81L516 577.53L515.56 577.09C517.84 577.09 520.12 577.09 522.42 577.14L529.31 577.25L543.29 577.53Z" fill="#C6CED9"/>
<path d="M528.25 226.28L514.5 226.56L507.5 226.67C505.17 226.67 502.83 226.67 500.5 226.67H500.05V226.22L500 214.5V214H500.51L514.37 214.06C518.99 214.06 523.62 214.18 528.24 214.23H528.51V214.5C528.51 216.5 528.43 218.5 528.38 220.42L528.25 226.28ZM528.25 226.28L528.11 220.36C528.06 218.36 528 216.48 527.98 214.56L528.25 214.83C523.63 214.83 519 214.99 514.38 215L500.52 215.06L501.02 214.56L500.96 226.28L500.52 225.83C502.8 225.83 505.08 225.83 507.38 225.89L514.27 226L528.25 226.28Z" fill="#C6CED9"/>
<path d="M543.72 241.06L529.97 241.33L522.97 241.45C520.64 241.45 518.3 241.45 515.97 241.45H515.52V241.01L515.47 229.29V228.79H515.98L529.84 228.85C534.47 228.85 539.09 228.96 543.71 229.01H543.98V229.28C543.98 231.28 543.9 233.28 543.85 235.2L543.72 241.06ZM543.72 241.06L543.58 235.14C543.58 233.14 543.47 231.26 543.45 229.34L543.72 229.61C539.1 229.61 534.48 229.77 529.85 229.77L515.99 229.84L516.49 229.34L516.43 241.06L515.99 240.61C518.27 240.61 520.55 240.61 522.85 240.67L529.74 240.78L543.72 241.06Z" fill="#C6CED9"/>
<path d="M131.19 240.28L117.44 240.56L110.44 240.67C108.11 240.67 105.77 240.67 103.44 240.67H103V240.22V228.5V228H103.5L117.37 228.06C121.99 228.06 126.61 228.18 131.23 228.23H131.51V228.5C131.51 230.5 131.42 232.5 131.38 234.42L131.19 240.28ZM131.19 240.28L131.05 234.36C131.05 232.36 130.94 230.48 130.92 228.56L131.19 228.83C126.57 228.83 121.95 228.99 117.33 229L103.46 229.06L103.96 228.56L103.91 240.28L103.46 239.83C105.75 239.83 108.03 239.83 110.32 239.89L117.21 240L131.19 240.28Z" fill="#C6CED9"/>
<path d="M339.17 416.68L325.42 416.96L318.42 417.07C316.09 417.12 313.75 417.07 311.42 417.13H311V416.68L310.94 404.96V404.46H311.44L325.31 404.52C329.93 404.52 334.55 404.64 339.17 404.69H339.45V404.96C339.45 406.96 339.36 408.96 339.32 410.88L339.17 416.68ZM339.17 416.68L339.03 410.76C339.03 408.76 338.92 406.88 338.9 404.96L339.17 405.23C334.55 405.29 329.93 405.39 325.31 405.4L311.44 405.46L311.94 404.96L311.89 416.68L311.44 416.23C313.73 416.23 316.01 416.23 318.3 416.29L325.19 416.4L339.17 416.68Z" fill="#C6CED9"/>
<path d="M323.45 431.46L309.7 431.74L302.7 431.85C300.37 431.85 298.03 431.85 295.7 431.9H295.26V431.45L295.21 419.73V419.23H295.71L309.58 419.29C314.2 419.29 318.83 419.4 323.45 419.45H323.72V419.72C323.72 421.72 323.63 423.72 323.59 425.64L323.45 431.46ZM323.45 431.46L323.31 425.54C323.26 423.59 323.19 421.66 323.17 419.74L323.45 420.01C318.83 420.01 314.2 420.17 309.58 420.17L295.71 420.24L296.21 419.74L296.16 431.46L295.71 431.01C298 431.01 300.28 431.01 302.57 431.07L309.47 431.18L323.45 431.46Z" fill="#C6CED9"/>
<path d="M307.72 416.68L293.97 416.96L286.97 417.07C284.64 417.12 282.3 417.07 279.97 417.13H279.52V416.68V404.96V404.46H280.02L293.88 404.52C298.51 404.52 303.13 404.64 307.75 404.69H308V404.96C308 406.96 307.92 408.96 307.87 410.88L307.72 416.68ZM307.72 416.68L307.58 410.76C307.53 408.76 307.47 406.88 307.45 404.96L307.72 405.23C303.1 405.29 298.48 405.39 293.85 405.4L279.99 405.46L280.49 404.96L280.43 416.68L279.99 416.23C282.27 416.23 284.55 416.23 286.85 416.29L293.74 416.4L307.72 416.68Z" fill="#C6CED9"/>
<g opacity="0.5">
<path d="M235.5 389.83V283H128.67V389.83H235.5Z" fill="#C6CED9"/>
<path d="M227.71 290.79H136.47V382.02H227.71V290.79Z" fill="white"/>
<path d="M136.52 356.48C150.34 342.68 189.64 303.58 202.26 290.79H136.52V356.48Z" fill="#ECEFF2"/>
<path d="M124 389.83H128.67V283H124L124 389.83Z" fill="#D9DFE6"/>
<path d="M176.41 457.58V409.84H128.67V457.58H176.41Z" fill="#C6CED9"/>
<path d="M169.01 450.17V417.24H136.08V450.17H169.01Z" fill="white"/>
<path d="M169.01 417.24H136.08V450.17L169.01 417.24Z" fill="#ECEFF2"/>
<path d="M124 457.57H128.67V409.83H124V457.57Z" fill="#D9DFE6"/>
<path d="M235.81 457.58V409.84H188.07V457.58H235.81Z" fill="#C6CED9"/>
<path d="M228.41 450.17V417.24H195.48V450.17H228.41Z" fill="white"/>
<path d="M218.74 417.24H195.48V440.5L218.74 417.24Z" fill="#ECEFF2"/>
<path d="M183.41 457.57H188.08V409.83H183.41V457.57Z" fill="#D9DFE6"/>
<path d="M235.51 539.97V477.58H128.68V539.97H235.51Z" fill="#C6CED9"/>
<path d="M227.71 532.25V485.29H136.48V532.25H227.71Z" fill="white"/>
<path d="M196.28 485.3H136.47V516.08L196.28 485.3Z" fill="#ECEFF2"/>
<path d="M124 539.97H128.67V477.58H124L124 539.97Z" fill="#D9DFE6"/>
</g>
<g opacity="0.5">
<path d="M330 768.72C441.744 768.72 532.33 758.893 532.33 746.77C532.33 734.648 441.744 724.82 330 724.82C218.256 724.82 127.67 734.648 127.67 746.77C127.67 758.893 218.256 768.72 330 768.72Z" fill="#D9DFE6"/>
</g>
<path d="M116.71 717.5L170.03 717.26L223.35 717.17L330 717L436.64 717.17L489.97 717.26L543.29 717.5L489.97 717.75L436.64 717.84L330 718L223.35 717.83L170.03 717.75L116.71 717.5Z" fill="#39434F"/>
<path d="M494.69 659.6C509.03 673.6 511.43 695.35 508.41 714.37C508.33 714.8 507.67 714.68 507.67 714.28C507.67 709.95 507.8 705.66 507.78 701.38C507.71 701.19 507.64 701 507.56 700.81C503.82 698.08 500.38 695.01 498.25 690.81C495.85 686.1 494.91 680.81 493.08 675.87C492.91 675.4 493.41 675.54 493.74 675.78C502.46 682.21 505.24 689.13 507.74 698.38C507.684 693.543 507.176 688.722 506.22 683.98C504.33 675.2 500.61 666.51 494.3 659.98C494.08 659.73 494.44 659.35 494.69 659.6Z" fill="#202326"/>
<path d="M492 661.241C489.53 661.321 488 665.241 486.06 666.411C485.86 666.576 485.626 666.698 485.376 666.767C485.125 666.836 484.863 666.852 484.606 666.812C484.349 666.772 484.103 666.678 483.885 666.537C483.667 666.395 483.481 666.209 483.34 665.991C481.44 663.331 484.05 660.051 486.51 658.211C484.75 658.941 483.29 660.211 481.4 660.571C481.157 660.649 480.9 660.674 480.646 660.645C480.393 660.615 480.148 660.532 479.929 660.4C479.71 660.268 479.522 660.092 479.378 659.881C479.233 659.671 479.135 659.432 479.09 659.181C478.25 655.561 482.8 653.951 485.92 653.871C484.41 652.821 480.07 649.961 482.38 648.561C484.69 647.161 489.79 651.231 491.45 652.561C493.89 654.561 496.8 657.491 496.91 660.561C497.05 664.221 493.89 662.001 492 661.241Z" fill="#B4DC8A"/>
<path opacity="0.1" d="M492 661.241C489.53 661.321 488 665.241 486.06 666.411C485.86 666.576 485.626 666.698 485.376 666.767C485.125 666.836 484.863 666.852 484.606 666.812C484.349 666.772 484.103 666.678 483.885 666.537C483.667 666.395 483.481 666.209 483.34 665.991C481.44 663.331 484.05 660.051 486.51 658.211C484.75 658.941 483.29 660.211 481.4 660.571C481.157 660.649 480.9 660.674 480.646 660.645C480.393 660.615 480.148 660.532 479.929 660.4C479.71 660.268 479.522 660.092 479.378 659.881C479.233 659.671 479.135 659.432 479.09 659.181C478.25 655.561 482.8 653.951 485.92 653.871C484.41 652.821 480.07 649.961 482.38 648.561C484.69 647.161 489.79 651.231 491.45 652.561C493.89 654.561 496.8 657.491 496.91 660.561C497.05 664.221 493.89 662.001 492 661.241Z" fill="#39434F"/>
<path d="M492.71 661.85C489.56 660.41 483.5 662.48 482.98 661.28C481.98 658.85 486.78 657.19 489.39 656.86C486.99 656.21 482.39 655.17 482.52 652.86C482.69 650.03 489.59 652.47 493.08 655.14C497.48 658.52 497.45 661.77 496.73 662.42C495.73 663.31 493.23 662.08 492.71 661.85Z" fill="#B4DC8A"/>
<path d="M527.34 658.21C512.48 671.69 509.25 693.3 511.55 712.42C511.61 712.85 512.28 712.76 512.29 712.36C512.46 708.03 512.49 703.74 512.67 699.46L512.91 698.9C516.75 696.32 520.31 693.38 522.6 689.25C525.17 684.64 526.31 679.37 528.33 674.52C528.52 674.06 528.01 674.18 527.67 674.41C518.67 680.5 515.67 687.31 512.82 696.41C513.055 691.579 513.748 686.78 514.89 682.08C517.1 673.38 521.16 664.83 527.71 658.56C528 658.37 527.6 658 527.34 658.21Z" fill="#202326"/>
<path d="M530 660C532.46 660.18 533.86 664.18 535.73 665.4C535.926 665.572 536.155 665.701 536.404 665.778C536.653 665.855 536.915 665.879 537.174 665.848C537.433 665.817 537.682 665.732 537.905 665.597C538.128 665.463 538.321 665.283 538.47 665.07C540.47 662.49 537.99 659.07 535.6 657.19C537.33 657.98 538.74 659.3 540.6 659.73C540.839 659.819 541.094 659.855 541.349 659.837C541.603 659.819 541.851 659.746 542.074 659.623C542.298 659.501 542.493 659.332 542.646 659.128C542.799 658.924 542.906 658.689 542.96 658.44C543.96 654.85 539.45 653.06 536.33 652.87C537.88 651.87 542.33 649.19 540.08 647.69C537.83 646.19 532.56 650.09 530.85 651.37C528.34 653.25 525.32 656.09 525.1 659.18C524.81 662.74 528.05 660.63 530 660Z" fill="#B4DC8A"/>
<path opacity="0.1" d="M530 660C532.46 660.18 533.86 664.18 535.73 665.4C535.926 665.572 536.155 665.701 536.404 665.778C536.653 665.855 536.915 665.879 537.174 665.848C537.433 665.817 537.682 665.732 537.905 665.597C538.128 665.463 538.321 665.283 538.47 665.07C540.47 662.49 537.99 659.07 535.6 657.19C537.33 657.98 538.74 659.3 540.6 659.73C540.839 659.819 541.094 659.855 541.349 659.837C541.603 659.819 541.851 659.746 542.074 659.623C542.298 659.501 542.493 659.332 542.646 659.128C542.799 658.924 542.906 658.689 542.96 658.44C543.96 654.85 539.45 653.06 536.33 652.87C537.88 651.87 542.33 649.19 540.08 647.69C537.83 646.19 532.56 650.09 530.85 651.37C528.34 653.25 525.32 656.09 525.1 659.18C524.81 662.74 528.05 660.63 530 660Z" fill="#39434F"/>
<path d="M529.23 660.53C532.44 659.22 538.42 661.53 538.98 660.34C540.11 657.95 535.34 656.1 532.74 655.68C535.17 655.12 539.81 654.26 539.74 651.93C539.68 649.09 532.69 651.27 529.1 653.81C524.57 657.01 524.48 660.27 525.18 660.94C526.16 661.88 528.71 660.75 529.23 660.53Z" fill="#B4DC8A"/>
<path d="M512.14 693.81C511.142 701.023 509.6 708.149 507.53 715.13C507.477 715.233 507.391 715.316 507.287 715.366C507.182 715.416 507.064 715.43 506.95 715.406C506.837 715.382 506.734 715.322 506.658 715.234C506.582 715.146 506.537 715.036 506.53 714.92C507.53 708.35 509.29 701.92 510.26 695.33C511.332 688.687 511.718 681.952 511.41 675.23C510.78 664.16 507.77 652.39 500.55 643.73C500.39 643.52 500.73 643.23 500.89 643.42C515.31 660.28 513 681 513 682.81C515.05 675.81 517.16 667.81 524.9 660.72C525.23 660.41 525.49 660.56 525.44 661.08C524.05 674.02 520.44 680.78 512.95 687.7C512.743 689.76 512.473 691.797 512.14 693.81Z" fill="#202326"/>
<path d="M500.38 645.67C497.78 644.51 494.19 647.82 491.62 648.05C491.328 648.118 491.026 648.125 490.732 648.069C490.438 648.013 490.159 647.895 489.913 647.725C489.667 647.554 489.459 647.334 489.304 647.078C489.148 646.823 489.048 646.537 489.01 646.24C488.37 642.52 492.73 640.43 496.21 639.76C494.02 639.63 491.87 640.21 489.72 639.63C489.422 639.595 489.136 639.495 488.882 639.337C488.627 639.179 488.41 638.967 488.246 638.716C488.082 638.466 487.975 638.182 487.933 637.886C487.89 637.589 487.913 637.287 488 637C489 632.82 494.49 633.43 497.76 634.92C496.76 633.07 493.67 627.92 496.76 627.63C499.85 627.34 503.11 634.14 504.16 636.37C505.69 639.65 507.22 644.18 505.78 647.44C504.13 651.3 502 647.41 500.38 645.67Z" fill="#B4DC8A"/>
<path opacity="0.1" d="M500.38 645.67C497.78 644.51 494.19 647.82 491.62 648.05C491.328 648.118 491.026 648.125 490.732 648.069C490.438 648.013 490.159 647.895 489.913 647.725C489.667 647.554 489.459 647.334 489.304 647.078C489.148 646.823 489.048 646.537 489.01 646.24C488.37 642.52 492.73 640.43 496.21 639.76C494.02 639.63 491.87 640.21 489.72 639.63C489.422 639.595 489.136 639.495 488.882 639.337C488.627 639.179 488.41 638.967 488.246 638.716C488.082 638.466 487.975 638.182 487.933 637.886C487.89 637.589 487.913 637.287 488 637C489 632.82 494.49 633.43 497.76 634.92C496.76 633.07 493.67 627.92 496.76 627.63C499.85 627.34 503.11 634.14 504.16 636.37C505.69 639.65 507.22 644.18 505.78 647.44C504.13 651.3 502 647.41 500.38 645.67Z" fill="#39434F"/>
<path d="M500.82 646.66C498.27 643.58 490.94 642.66 491.01 641.18C491.15 638.13 497.01 638.84 499.88 639.82C497.71 637.93 493.45 634.53 494.77 632.2C496.37 629.34 502.31 635.34 504.58 639.88C507.45 645.59 505.78 648.96 504.7 649.27C503.21 649.69 501.24 647.16 500.82 646.66Z" fill="#B4DC8A"/>
<path d="M521.66 697.71L528 746.44H489.23C490.03 742.12 497.23 697.65 497.23 697.65L521.66 697.71Z" fill="#B4DC8A"/>
<path d="M406.839 606.431C406.825 606.691 406.715 606.937 406.53 607.122C406.346 607.306 406.1 607.416 405.839 607.431L401.509 607.261C398.719 596.811 395.409 588.391 396.169 591.621C397.301 596.688 397.665 601.896 397.249 607.071L388.709 606.591C387.239 588.591 384.339 574.991 384.179 579.071C383.519 595.501 381.999 600.641 380.279 606.121C359.669 604.901 332.669 603.021 313.179 601.231C311.969 591.231 311.119 580.441 310.699 581.141C307.459 586.391 305.889 594.321 305.179 600.481C298.979 599.871 294.039 599.271 291.039 598.751C291.039 598.751 290.459 590.381 290.539 587.651C290.726 580.658 292.2 573.759 294.889 567.301C297.679 560.671 301.889 554.991 305.889 549.151C305.915 549.104 305.945 549.061 305.979 549.021C305.979 549.021 305.979 549.021 305.979 548.971C308.632 545.179 310.82 541.083 312.499 536.771C312.507 536.741 312.507 536.71 312.499 536.681C313.658 533.557 314.541 530.338 315.139 527.061C317.319 515.061 325.219 505.371 336.899 503.371C358.159 489.481 381.019 496.211 385.899 512.371C386.369 513.951 386.789 515.741 387.179 517.691V517.751C388.629 524.951 389.639 534.211 390.709 541.401C390.709 541.401 390.709 541.401 390.709 541.481C391.092 544.298 391.656 547.087 392.399 549.831C396.619 563.051 408.229 571.501 406.839 606.431Z" fill="#202326"/>
<path d="M331.759 506.191C323.899 509.281 318.759 514.471 316.649 523.191C315.429 528.251 314.559 533.191 312.079 537.871C309.599 542.551 305.859 546.421 302.079 550.161C296.079 556.161 291.779 562.221 290.079 570.781C288.379 579.341 287.649 589.871 289.739 598.371H289.819C288.289 589.811 289.449 578.311 291.819 569.761C294.459 560.381 300.509 554.931 306.819 548.251C311.839 543.068 315.363 536.623 317.019 529.601C318.019 525.311 318.449 520.771 320.639 516.851C323.249 512.181 327.749 509.501 332.179 507.171C332.244 507.143 332.302 507.103 332.351 507.053C332.4 507.003 332.438 506.944 332.464 506.879C332.49 506.814 332.503 506.744 332.502 506.674C332.501 506.604 332.487 506.535 332.459 506.471C332.432 506.406 332.392 506.348 332.341 506.299C332.291 506.25 332.232 506.212 332.167 506.186C332.102 506.16 332.033 506.147 331.963 506.148C331.893 506.148 331.824 506.163 331.759 506.191Z" fill="#202326"/>
<path d="M403.589 564.701C399.059 557.311 394.209 550.901 392.029 542.091C390.029 534.091 389.309 525.711 387.279 517.691C387.279 517.664 387.269 517.639 387.25 517.62C387.231 517.601 387.206 517.591 387.179 517.591C387.153 517.591 387.127 517.601 387.108 517.62C387.09 517.639 387.079 517.664 387.079 517.691C390.029 531.871 389.409 545.801 397.079 558.271C401.229 565.051 405.429 571.361 407.809 579.211C410.196 587.431 410.997 596.031 410.169 604.551C410.169 604.851 410.529 604.881 410.589 604.551C413.328 590.86 410.83 576.639 403.589 564.701Z" fill="#202326"/>
<path d="M458.719 544.29L430.929 596.62C429.929 598.11 430.419 599.62 432.029 600.04L460.819 607.13C461.716 607.277 462.636 607.166 463.473 606.813C464.31 606.459 465.029 605.875 465.549 605.13L493.339 552.8C494.339 551.31 493.839 549.8 492.239 549.38L463.449 542.3C462.553 542.15 461.633 542.258 460.796 542.61C459.959 542.962 459.239 543.545 458.719 544.29Z" fill="#606873"/>
<path d="M462.139 545.101L434.349 597.431C433.349 598.921 433.849 600.431 435.459 600.851L464.249 607.941C465.145 608.089 466.064 607.979 466.899 607.625C467.735 607.271 468.453 606.687 468.969 605.941L496.759 553.601C497.759 552.111 497.269 550.601 495.659 550.181L466.869 543.101C465.972 542.952 465.052 543.061 464.214 543.415C463.377 543.769 462.657 544.354 462.139 545.101Z" fill="#606873"/>
<path d="M469.409 549.59C469.279 550.071 469.01 550.503 468.635 550.831C468.26 551.159 467.796 551.369 467.302 551.433C466.808 551.497 466.306 551.414 465.859 551.193C465.412 550.972 465.041 550.624 464.792 550.192C464.544 549.76 464.429 549.264 464.462 548.767C464.495 548.27 464.674 547.794 464.978 547.399C465.281 547.004 465.695 546.707 466.167 546.547C466.639 546.387 467.148 546.371 467.629 546.5C467.949 546.586 468.249 546.734 468.511 546.936C468.774 547.138 468.994 547.389 469.16 547.676C469.325 547.963 469.432 548.28 469.475 548.608C469.518 548.937 469.495 549.27 469.409 549.59Z" fill="#202326"/>
<path d="M341.099 616.541C353.099 654.151 384.419 705.051 399.839 707.281C407.179 708.341 420.079 711.821 430.839 704.641C454.309 688.961 477.709 657.641 484.969 639.391C487.689 632.561 452.089 609.151 446.169 614.321C432.299 626.421 414.729 651.451 412.619 651.011C404.789 649.371 377.229 619.561 358.019 598.591C334.689 573.131 336.319 601.551 341.099 616.541Z" fill="#FFC4C0"/>
<path d="M493.519 606.44C493.519 591.28 491.219 587.38 498.039 574.59C502.519 566.2 499.039 559.74 490.899 565.3C477.519 574.4 473.379 593.95 473.899 601.15L493.519 606.44Z" fill="#FFC4C0"/>
<path d="M480.179 648.171C480.179 648.171 491.609 629.941 493.239 613.781C494.359 602.611 494.099 578.021 467.089 558.181C460.679 553.471 448.209 551.311 455.879 562.801C461.329 570.961 467.259 574.491 469.559 579.801C469.559 579.801 453.379 578.941 448.909 585.541C445.023 591.321 441.551 597.37 438.519 603.641C439.54 604.458 440.612 605.21 441.729 605.891C441.729 605.891 437.729 612.211 440.359 623.281L480.179 648.171Z" fill="#FFC4C0"/>
<path d="M492.609 603.001C489.199 598.201 481.809 588.141 472.909 582.001C463.009 575.201 442.119 564.771 437.179 572.131C433.559 577.521 441.179 582.201 441.179 582.201C441.179 582.201 431.639 579.711 429.429 585.301C427.429 590.391 433.529 593.661 433.529 593.661C433.529 593.661 427.529 593.141 426.529 598.421C425.329 604.771 438.209 604.811 442.529 612.291C443.519 613.941 492.609 603.001 492.609 603.001Z" fill="#FFC4C0"/>
<path d="M467.519 593.621C463.569 589.621 452.289 582.871 441.449 582.061C441.209 582.061 441.059 582.221 441.279 582.281C450.434 585.019 459.222 588.86 467.449 593.721C467.459 593.751 467.519 593.671 467.519 593.621Z" fill="#202326"/>
<path d="M460.309 603.41C456.549 600.32 444.619 593.87 433.609 593.41C433.359 593.41 433.229 593.59 433.449 593.64C442.727 595.901 451.718 599.209 460.249 603.5C460.309 603.54 460.359 603.45 460.309 603.41Z" fill="#202326"/>
<path d="M357.949 664.601L388.519 626.321C388.519 626.321 364.189 599.481 348.639 588.321C339.929 582.091 334.969 588.771 336.199 598.371C340.519 632.001 357.949 664.601 357.949 664.601Z" fill="#B4DC8A"/>
<path d="M357.949 664.601L388.519 626.321C388.519 626.321 364.189 599.481 348.639 588.321C339.929 582.091 334.969 588.771 336.199 598.371C340.519 632.001 357.949 664.601 357.949 664.601Z" fill="#B4DC8A"/>
<path opacity="0.1" d="M385.019 630.681L357.959 664.611C357.959 664.611 340.519 632.001 336.199 598.421C335.349 591.821 337.439 586.611 341.639 586.021L385.019 630.681Z" fill="#39434F"/>
<path d="M381.419 622.841C376.229 628.341 362.589 643.671 355.019 654.841C354.969 654.911 355.209 655.111 355.259 655.051C362.949 646.751 377.079 629.121 381.769 623.191C381.859 623.001 381.519 622.741 381.419 622.841Z" fill="#202326"/>
<path d="M246.749 718.451L378.579 718.141L371.289 672.811C371.289 672.811 381.719 660.161 379.749 646.441C377.579 631.441 350.469 593.281 348.189 591.131C339.009 582.521 329.289 580.971 319.959 584.081C276.829 611.181 246.749 718.451 246.749 718.451Z" fill="#B4DC8A"/>
<path d="M362.519 609.44C365.069 613.68 367.889 617.78 370.519 621.96C369.449 618.96 368.389 616.03 367.209 613.11C367.209 613.05 367.269 613 367.299 613.06C369.169 616.572 370.696 620.256 371.859 624.06C373.85 627.223 375.631 630.513 377.189 633.91C379.109 637.974 380.317 642.338 380.759 646.81C381.046 651.318 380.41 655.837 378.889 660.09C377.093 664.967 374.858 669.669 372.209 674.14C371.869 674.74 371.039 674.19 371.319 673.59C375.059 665.59 379.189 657.23 378.819 648.19C378.449 639.15 374.279 631.01 370.199 623.26C367.828 618.534 365.155 613.965 362.199 609.58C362.069 609.43 362.379 609.25 362.519 609.44Z" fill="#202326"/>
<path d="M350.429 669.35C345.038 669.83 339.69 670.709 334.429 671.98C331.819 672.65 329.259 673.43 326.709 674.27C325.429 674.69 324.149 675.07 322.859 675.44C321.522 675.864 320.139 676.126 318.739 676.22C318.719 676.227 318.702 676.239 318.689 676.256C318.677 676.274 318.67 676.294 318.67 676.315C318.67 676.336 318.677 676.357 318.689 676.374C318.702 676.391 318.719 676.404 318.739 676.41C320.073 676.478 321.409 676.454 322.739 676.34C324.014 676.185 325.277 675.945 326.519 675.62C329.169 674.97 331.789 674.19 334.439 673.51C339.769 672.14 345.099 670.77 350.519 669.79C350.739 669.75 350.679 669.32 350.429 669.35Z" fill="#202326"/>
<path d="M363.749 674.121C359.308 673.658 354.844 673.444 350.379 673.481C348.139 673.481 345.929 673.661 343.699 673.881C342.639 673.981 341.579 674.101 340.519 674.241C339.359 674.391 338.209 674.691 337.039 674.821C336.919 674.821 336.919 675.031 337.039 675.021C338.139 674.921 339.259 675.021 340.369 675.021L343.709 674.931C345.939 674.931 348.159 674.851 350.389 674.771C354.849 674.621 359.289 674.521 363.749 674.521C363.999 674.491 363.979 674.151 363.749 674.121Z" fill="#202326"/>
<path d="M304.129 596C270.519 631.15 228.799 704.7 237.059 719.33C246.259 735.63 294.299 685.82 292.779 683.42C291.489 681.42 308.599 636.81 320.779 604.42C332.959 572.03 312.429 587.26 304.129 596Z" fill="#FFC4C0"/>
<path d="M262.989 638.16L311.199 646.84C311.199 646.84 323.199 612.67 325.629 593.71C326.959 583.08 320.719 582.64 312.859 588.29C285.349 608.06 262.989 638.16 262.989 638.16Z" fill="#B4DC8A"/>
<path d="M310.889 638.94C303.579 636.99 283.609 632.28 270.229 630.94C270.149 630.94 270.079 631.23 270.159 631.25C281.159 634.07 303.339 638.11 310.789 639.42C310.929 639.41 311.019 639 310.889 638.94Z" fill="#202326"/>
<path d="M305.329 645.781C307.329 645.971 309.329 646.211 311.269 646.471L310.849 646.721C312.289 641.474 313.872 636.267 315.599 631.101C317.319 625.951 319.129 620.821 321.209 615.761C319.949 621.071 318.429 626.301 316.819 631.491C315.209 636.681 313.449 641.851 311.519 647.001L311.399 647.311L311.109 647.251C309.189 646.761 307.259 646.291 305.329 645.781Z" fill="#202326"/>
<path d="M318.019 626.16C318.448 625.1 318.999 624.093 319.659 623.16C320.314 622.201 321.043 621.295 321.839 620.45C321.732 621.028 321.54 621.588 321.269 622.11C321.021 622.633 320.73 623.135 320.399 623.61C319.741 624.577 318.938 625.437 318.019 626.16Z" fill="#202326"/>
<path d="M238.139 720.83C247.249 730.69 268.279 729.93 321.389 732.99C328.739 733.41 345.679 682.35 337.849 681.5C327.999 680.42 289.509 678.37 286.679 678.58C262.789 680.31 231.969 714.15 238.139 720.83Z" fill="#FFC4C0"/>
<path d="M327.179 680.551C327.179 680.551 349.549 680.871 361.249 684.671C376.919 689.761 388.349 700.611 392.859 705.451C402.289 715.541 418.099 746.451 409.989 752.561C402.639 758.091 388.079 725.671 388.079 725.671C388.079 725.671 408.379 756.271 398.319 761.311C388.259 766.351 373.519 727.741 373.519 727.741C373.519 727.741 393.679 759.651 382.519 763.201C374.059 765.881 358.709 731.681 358.709 731.681C358.709 731.681 375.849 759.231 367.259 762.361C357.779 765.821 341.629 735.141 341.629 735.141C318.469 739.421 305.689 731.991 297.229 725.621C295.109 724.081 327.179 680.551 327.179 680.551Z" fill="#FFC4C0"/>
<path d="M381.729 714.64C384.249 718.14 386.819 721.64 389.009 725.4C391.199 729.16 393.279 732.92 395.109 736.83C399.619 746.41 400.949 753.12 400.819 752.71C397.819 743.13 390.169 729.71 387.969 725.97C385.769 722.23 383.779 718.43 381.589 714.71C381.519 714.62 381.669 714.55 381.729 714.64Z" fill="#202326"/>
<path d="M368.159 722.321C371.159 726.941 374.339 731.411 377.159 736.161C379.979 740.911 382.159 745.631 384.669 750.541C384.859 750.921 384.589 750.901 384.389 750.541C381.719 745.731 378.889 741.541 376.169 736.721C373.449 731.901 370.919 727.061 368.039 722.401C367.999 722.311 368.109 722.251 368.159 722.321Z" fill="#202326"/>
<path d="M355.319 726.811C360.319 733.641 363.999 741.371 367.459 749.041C367.629 749.421 367.289 749.361 367.089 748.981C363.199 741.511 360.189 735.631 355.089 726.981C354.999 726.851 355.209 726.671 355.319 726.811Z" fill="#202326"/>
<path d="M267.009 687.001C270.209 684.401 279.379 678.081 289.179 678.361C289.289 678.361 289.309 678.511 289.179 678.521C281.239 679.441 270.389 684.861 267.089 687.131C267.073 687.135 267.055 687.134 267.04 687.127C267.024 687.121 267.011 687.109 267.002 687.095C266.993 687.08 266.989 687.063 266.99 687.047C266.991 687.03 266.998 687.013 267.009 687.001Z" fill="#202326"/>
<path d="M326.569 583.41C326.749 585.73 335.189 601.89 345.489 602.99C348.839 603.34 351.569 585.12 351.569 585.12L352.079 583.82L359.199 565.63L339.259 548L336.349 545.62C336.349 545.62 334.729 550.73 332.779 557.11C332.689 557.4 332.589 557.7 332.499 558.01C332.409 558.32 332.259 558.71 332.169 559.01C331.859 560.01 331.559 560.93 331.269 561.9C331.049 562.64 330.829 563.36 330.629 564.14C330.429 564.92 330.209 565.69 329.979 566.47C327.949 574.29 326.519 582.43 326.569 583.41Z" fill="#FFC4C0"/>
<path d="M332.779 557.13C333.867 562.713 336.156 567.992 339.489 572.601C342.822 577.21 347.118 581.038 352.079 583.82L359.199 565.63L339.259 548L336.349 545.62C336.349 545.62 334.729 550.75 332.779 557.13Z" fill="#202326"/>
<path d="M390.959 544C386.449 578 365.579 579.12 358.249 578.13C351.599 577.24 329.069 573.36 330.049 539.13C331.029 504.9 348.259 496.22 363.579 497.46C378.899 498.7 395.519 510 390.959 544Z" fill="#FFC4C0"/>
<path d="M386.079 540.311C385.336 540.037 384.608 539.723 383.899 539.371C383.1 539.135 382.399 538.647 381.899 537.981C381.782 537.738 381.749 537.464 381.803 537.2C381.857 536.936 381.996 536.698 382.199 536.521C382.655 536.23 383.181 536.069 383.722 536.053C384.262 536.037 384.797 536.168 385.269 536.431C386.307 536.804 387.167 537.553 387.679 538.531C387.787 538.762 387.825 539.02 387.787 539.272C387.75 539.525 387.639 539.76 387.468 539.95C387.298 540.14 387.075 540.275 386.828 540.34C386.581 540.404 386.32 540.394 386.079 540.311Z" fill="#202326"/>
<path d="M363.099 534.481C363.888 534.526 364.68 534.526 365.469 534.481C366.302 534.596 367.15 534.43 367.879 534.011C368.083 533.835 368.224 533.596 368.278 533.332C368.332 533.068 368.298 532.793 368.179 532.551C367.875 532.106 367.456 531.751 366.966 531.524C366.477 531.297 365.936 531.206 365.399 531.261C364.31 531.214 363.242 531.57 362.399 532.261C362.225 532.428 362.101 532.642 362.042 532.876C361.982 533.11 361.989 533.357 362.062 533.587C362.134 533.818 362.27 534.024 362.453 534.182C362.637 534.339 362.86 534.443 363.099 534.481Z" fill="#202326"/>
<path d="M366.719 542C366.719 541.91 366.529 542.08 366.509 542.17C366.169 544.48 365.389 547.07 363.169 547.46C363.156 547.465 363.145 547.474 363.137 547.486C363.129 547.497 363.125 547.511 363.125 547.525C363.125 547.539 363.129 547.553 363.137 547.564C363.145 547.576 363.156 547.585 363.169 547.59C365.769 547.64 366.769 544.19 366.719 542Z" fill="#202326"/>
<path d="M365.109 539.18C361.459 538.18 359.839 545.59 363.209 546.47C366.579 547.35 368.159 540 365.109 539.18Z" fill="#202326"/>
<path d="M363.579 539.25C362.839 539.52 362.049 540.12 361.259 540.02C360.469 539.92 359.839 539.02 359.409 538.12C359.409 538.03 359.289 538.12 359.269 538.18C358.939 539.59 359.159 541.18 360.619 541.7C362.079 542.22 363.229 541.16 363.889 539.82C364.009 539.58 363.869 539.14 363.579 539.25Z" fill="#202326"/>
<path d="M380.329 544.08C380.329 544 380.479 544.23 380.459 544.32C379.859 546.58 379.559 549.32 381.459 550.49C381.519 550.49 381.459 550.65 381.409 550.62C378.969 549.69 379.399 546.13 380.329 544.08Z" fill="#202326"/>
<path d="M382.899 542.171C386.629 542.731 385.229 550.171 381.779 549.621C378.329 549.071 379.779 541.701 382.899 542.171Z" fill="#202326"/>
<path d="M384.359 543.001C384.869 543.501 385.309 544.321 385.999 544.501C386.689 544.681 387.549 544.021 388.209 543.351C388.279 543.281 388.329 543.351 388.309 543.451C388.089 544.871 387.309 546.261 385.929 546.281C384.549 546.301 383.929 544.901 383.929 543.431C383.869 543.111 384.149 542.751 384.359 543.001Z" fill="#202326"/>
<path d="M363.089 561.601C363.489 562.271 363.829 563.141 364.629 563.431C365.473 563.641 366.352 563.672 367.209 563.521C367.226 563.519 367.243 563.523 367.258 563.532C367.272 563.54 367.284 563.553 367.29 563.569C367.297 563.585 367.298 563.602 367.295 563.618C367.291 563.635 367.282 563.65 367.269 563.661C366.829 564.019 366.299 564.25 365.737 564.329C365.175 564.409 364.602 564.333 364.079 564.111C363.652 563.868 363.306 563.504 363.087 563.064C362.868 562.624 362.785 562.128 362.849 561.641C362.849 561.501 363.029 561.501 363.089 561.601Z" fill="#202326"/>
<path d="M374.369 555.341C374.369 555.341 374.129 558.851 373.789 560.461C373.789 560.611 373.359 560.601 372.789 560.461C372.789 560.461 372.789 560.461 372.729 560.461C371.295 560.423 369.898 559.992 368.691 559.214C367.485 558.437 366.516 557.342 365.889 556.051C365.874 556.013 365.873 555.971 365.886 555.933C365.9 555.894 365.926 555.862 365.961 555.841C365.996 555.821 366.038 555.813 366.078 555.821C366.118 555.828 366.154 555.849 366.179 555.881C367.94 557.71 370.244 558.924 372.749 559.341C372.959 558.921 372.959 553.341 373.219 553.341C374.446 553.712 375.616 554.247 376.699 554.931C377.419 547.631 376.959 540.281 377.779 533.021C377.779 532.962 377.802 532.906 377.844 532.865C377.885 532.824 377.941 532.801 377.999 532.801C378.058 532.801 378.114 532.824 378.155 532.865C378.196 532.906 378.219 532.962 378.219 533.021C379.219 540.701 378.609 549.121 378.069 556.671C378.019 557.651 374.959 555.741 374.369 555.341Z" fill="#202326"/>
<path d="M339.319 502.81C338.159 505.5 322.709 507.35 315.909 496.92C309.209 486.64 318.079 473.99 330.369 480.02C338.139 483.84 341.769 497.11 339.319 502.81Z" fill="#202326"/>
<path d="M315.699 482.791C318.334 479.934 321.859 478.055 325.699 477.461C327.488 477.146 329.327 477.308 331.033 477.929C332.739 478.55 334.252 479.61 335.419 481.001C337.879 483.771 339.149 487.501 339.829 491.261C340.145 493.17 340.286 495.105 340.249 497.041C340.3 499.005 339.984 500.962 339.319 502.811C340.39 501.085 341.072 499.147 341.319 497.131C341.629 495.102 341.696 493.045 341.519 491.001C341.267 486.809 339.716 482.799 337.079 479.531C335.685 477.863 333.848 476.623 331.78 475.954C329.711 475.285 327.496 475.215 325.389 475.751C323.38 476.204 321.485 477.062 319.819 478.272C318.153 479.483 316.751 481.02 315.699 482.791Z" fill="#202326"/>
<path d="M331.739 540.55C337.739 543.02 343.179 529.2 343.179 529.2C343.179 529.2 370.879 531.86 378.949 510.9C378.949 510.9 379.779 525.9 391.949 535.84C391.949 535.84 397.409 511.94 379.949 502.29C379.949 502.29 358.949 487.55 340.949 502.48C322.949 517.41 327.709 538.9 331.739 540.55Z" fill="#202326"/>
<path d="M379.519 509.33C378.93 512.743 377.621 515.992 375.679 518.86C373.763 521.794 371.261 524.3 368.329 526.22C367.599 526.698 366.841 527.132 366.059 527.52L364.909 528.15C364.509 528.32 364.099 528.47 363.689 528.63C362.869 528.93 362.069 529.27 361.239 529.53C360.409 529.79 359.549 529.94 358.709 530.13C358.279 530.22 357.859 530.33 357.439 530.4L356.149 530.54L353.579 530.81C351.859 530.81 350.139 530.75 348.439 530.65C350.139 530.39 351.839 530.32 353.499 530.05L355.989 529.57L357.219 529.34C357.629 529.23 358.019 529.09 358.419 528.97C359.219 528.71 360.019 528.47 360.819 528.24C361.619 528.01 362.349 527.59 363.109 527.24L364.259 526.75L365.339 526.15C366.076 525.768 366.791 525.344 367.479 524.88C370.258 523.061 372.704 520.778 374.709 518.13C375.733 516.804 376.646 515.396 377.439 513.92C378.263 512.453 378.959 510.917 379.519 509.33Z" fill="#202326"/>
<path d="M329.979 517.91L327.199 520.29L334.029 531.83L340.129 526.4L329.979 517.91ZM334.669 528.41L329.669 521.02L330.309 520.45L336.839 526.54L334.669 528.41Z" fill="#5B892A"/>
<path d="M332.669 512.751L330.999 516.001L341.669 524.111L345.279 516.781L332.669 512.751ZM340.979 520.751L333.589 515.751L333.959 514.981L342.299 518.161L340.979 520.751Z" fill="#5B892A"/>
<path d="M335.099 542.38C335.099 542.38 330.099 530.31 324.799 531.86C319.499 533.41 321.609 549.78 326.709 553.09C327.335 553.559 328.049 553.896 328.809 554.082C329.568 554.268 330.358 554.298 331.129 554.171C331.901 554.044 332.639 553.763 333.299 553.343C333.959 552.924 334.527 552.375 334.969 551.73L335.099 542.38Z" fill="#FFC4C0"/>
<path d="M325.519 536.541C325.429 536.541 325.389 536.631 325.459 536.681C329.009 539.131 330.259 543.201 330.859 547.271C330.019 545.571 328.619 544.431 326.379 545.381C326.259 545.431 326.319 545.611 326.439 545.611C327.173 545.549 327.909 545.715 328.546 546.085C329.182 546.455 329.69 547.012 329.999 547.681C330.504 548.807 330.887 549.983 331.139 551.191C331.249 551.581 331.919 551.531 331.879 551.101C331.879 551.101 331.879 551.031 331.879 551.001C333.079 546.051 330.759 538.231 325.519 536.541Z" fill="#202326"/>
<path d="M460.733 404.95V429.22H453.877V404.95C453.877 395.727 446.873 388.229 438.274 388.229C429.676 388.229 422.672 395.727 422.672 404.95V429.22H415.815V404.95C415.815 391.74 425.896 381 438.292 381C450.687 381 460.733 391.74 460.733 404.95Z" fill="#D9DFE6"/>
<path d="M415.781 411.252L422.637 411.529V429.204H415.781V411.252Z" fill="#B3BECD"/>
<path d="M460.733 413.08V429.203H453.877V412.803L460.733 413.08Z" fill="#B3BECD"/>
<path d="M469.514 415.395H407V472.11H469.514V415.395Z" fill="#B4DC8A"/>
<path opacity="0.1" d="M469.514 415.395H438.257V472.11H469.514V415.395Z" fill="#39434F"/>
<path d="M440.901 445.828L443.501 458.241H432.415L435.015 445.828C433.99 445.191 433.2 444.236 432.765 443.11C432.331 441.983 432.275 440.745 432.607 439.584C432.938 438.423 433.639 437.402 434.603 436.674C435.567 435.947 436.742 435.554 437.949 435.554C439.157 435.554 440.332 435.947 441.296 436.674C442.26 437.402 442.96 438.423 443.292 439.584C443.624 440.745 443.568 441.983 443.133 443.11C442.699 444.236 441.909 445.191 440.883 445.828H440.901Z" fill="#202326"/>
<g opacity="0.2">
<path d="M381.066 325.281V335.699H378.122V325.281C378.122 321.322 375.116 318.103 371.425 318.103C367.734 318.103 364.727 321.322 364.727 325.281V335.699H361.784V325.281C361.784 319.61 366.112 315 371.432 315C376.753 315 381.066 319.61 381.066 325.281Z" fill="#B3BECD"/>
<path d="M361.769 327.986L364.712 328.105V335.692H361.769V327.986Z" fill="#B3BECD"/>
<path d="M381.066 328.77V335.691H378.123V328.651L381.066 328.77Z" fill="#B3BECD"/>
<path d="M384.835 329.765H358V354.11H384.835V329.765Z" fill="#808B9A"/>
<path opacity="0.1" d="M384.835 329.765H371.417V354.11H384.835V329.765Z" fill="#39434F"/>
<path d="M372.552 342.828L373.669 348.157H368.91L370.026 342.828C369.586 342.555 369.247 342.145 369.06 341.661C368.874 341.178 368.85 340.647 368.992 340.148C369.134 339.65 369.435 339.211 369.849 338.899C370.263 338.587 370.767 338.418 371.285 338.418C371.804 338.418 372.308 338.587 372.722 338.899C373.136 339.211 373.437 339.65 373.579 340.148C373.721 340.647 373.697 341.178 373.511 341.661C373.324 342.145 372.985 342.555 372.545 342.828H372.552Z" fill="#202326"/>
</g>
<g opacity="0.2">
<path d="M451.893 282.747V288.57H450.248V282.747C450.248 280.534 448.567 278.735 446.504 278.735C444.441 278.735 442.76 280.534 442.76 282.747V288.57H441.115V282.747C441.115 279.577 443.534 277 446.508 277C449.483 277 451.893 279.577 451.893 282.747Z" fill="#B3BECD"/>
<path d="M441.107 284.259L442.752 284.325V288.566H441.107V284.259Z" fill="#B3BECD"/>
<path d="M451.893 284.697V288.566H450.248V284.631L451.893 284.697Z" fill="#B3BECD"/>
<path d="M454 285.253H439V298.861H454V285.253Z" fill="#808B9A"/>
<path opacity="0.1" d="M454 285.253H446.5V298.861H454V285.253Z" fill="#39434F"/>
<path d="M447.134 292.555L447.758 295.534H445.098L445.722 292.555C445.476 292.402 445.287 292.173 445.182 291.903C445.078 291.633 445.065 291.336 445.144 291.057C445.224 290.778 445.392 290.533 445.623 290.359C445.855 290.184 446.136 290.09 446.426 290.09C446.716 290.09 446.998 290.184 447.229 290.359C447.46 290.533 447.629 290.778 447.708 291.057C447.788 291.336 447.774 291.633 447.67 291.903C447.566 292.173 447.376 292.402 447.13 292.555H447.134Z" fill="#202326"/>
</g>
</svg>
