<svg width="660" height="964" viewBox="0 0 660 964" fill="none" xmlns="http://www.w3.org/2000/svg">
<rect width="660" height="964" rx="24" fill="#ECEFF2"/>
<path d="M172.984 492.41C167.912 495.545 162.066 497.205 156.103 497.205C150.14 497.205 144.295 495.545 139.222 492.41C133.282 488.738 128.701 483.228 126.174 476.716C123.648 470.205 123.313 463.047 125.222 456.329C127.131 449.61 131.179 443.698 136.752 439.488C142.325 435.278 149.119 433 156.103 433C163.088 433 169.882 435.278 175.454 439.488C181.027 443.698 185.075 449.61 186.984 456.329C188.893 463.047 188.559 470.205 186.033 476.716C183.506 483.228 178.925 488.738 172.984 492.41Z" fill="#D9DFE6"/>
<path d="M165.873 461.398C165.873 463.33 165.3 465.219 164.226 466.825C163.153 468.432 161.627 469.684 159.842 470.423C158.057 471.163 156.093 471.356 154.197 470.979C152.302 470.602 150.561 469.672 149.195 468.306C147.829 466.939 146.898 465.199 146.521 463.303C146.145 461.408 146.338 459.444 147.077 457.659C147.817 455.874 149.069 454.348 150.676 453.274C152.282 452.201 154.171 451.628 156.103 451.628C158.694 451.628 161.179 452.657 163.011 454.489C164.844 456.322 165.873 458.806 165.873 461.398Z" fill="white"/>
<path d="M172.984 488.343V492.41C167.912 495.545 162.066 497.205 156.103 497.205C150.14 497.205 144.295 495.545 139.222 492.41V488.389C139.222 483.912 141.001 479.618 144.167 476.452C147.333 473.286 151.626 471.508 156.103 471.508C160.58 471.508 164.874 473.286 168.04 476.452C171.206 479.618 172.984 483.912 172.984 488.389V488.343Z" fill="white"/>
<path opacity="0.5" d="M131.269 305.599C131.833 305.254 132.482 305.071 133.143 305.071C133.805 305.071 134.453 305.254 135.018 305.599C135.336 305.781 135.654 305.974 135.983 306.145C136.313 306.315 136.642 306.485 136.983 306.644C137.583 306.919 138.095 307.354 138.464 307.901C138.833 308.449 139.043 309.087 139.073 309.746L139.209 314.369L154.25 313.972L154.102 309.36C154.088 308.699 154.257 308.046 154.589 307.475C154.922 306.904 155.406 306.436 155.988 306.122C156.644 305.778 157.281 305.399 157.897 304.986C158.437 304.605 159.072 304.381 159.732 304.339C160.391 304.297 161.05 304.438 161.634 304.747L165.69 306.928L172.824 293.58L168.768 291.399C168.188 291.086 167.706 290.617 167.377 290.045C167.048 289.473 166.885 288.821 166.905 288.162C166.919 287.404 166.893 286.645 166.826 285.89C166.757 285.224 166.875 284.551 167.168 283.949C167.462 283.347 167.917 282.839 168.484 282.482L172.403 280.051L164.451 267.396L160.509 269.781C159.947 270.127 159.301 270.31 158.641 270.31C157.981 270.31 157.334 270.127 156.772 269.781C156.465 269.588 156.136 269.406 155.818 269.236L154.829 268.736C154.227 268.461 153.712 268.025 153.341 267.476C152.97 266.926 152.758 266.285 152.728 265.624L152.592 261L137.608 261.443L137.755 266.044C137.774 266.706 137.607 267.359 137.274 267.931C136.94 268.503 136.454 268.971 135.87 269.281C135.215 269.628 134.578 270.007 133.961 270.417C133.421 270.799 132.786 271.023 132.126 271.065C131.466 271.107 130.808 270.965 130.224 270.656L126.111 268.532L119 281.8L123.056 283.97C123.638 284.285 124.12 284.755 124.449 285.329C124.779 285.903 124.941 286.558 124.919 287.219C124.905 287.977 124.931 288.736 124.998 289.491C125.067 290.157 124.948 290.829 124.655 291.432C124.362 292.034 123.906 292.542 123.34 292.899L119.432 295.25L127.384 308.03L131.269 305.599ZM135.04 281.868C136.192 279.723 137.954 277.966 140.103 276.822C142.253 275.677 144.694 275.196 147.117 275.439C149.54 275.681 151.837 276.637 153.717 278.184C155.597 279.732 156.976 281.803 157.68 284.134C158.383 286.465 158.38 288.953 157.67 291.282C156.96 293.612 155.575 295.678 153.69 297.221C151.806 298.763 149.506 299.712 147.082 299.948C144.658 300.184 142.219 299.695 140.073 298.545C137.196 296.999 135.05 294.375 134.106 291.248C133.162 288.121 133.498 284.748 135.04 281.868Z" fill="#D9DFE6"/>
<path opacity="0.8" d="M544.56 604.137C544.799 603.739 545.142 603.414 545.553 603.198C545.963 602.981 546.426 602.882 546.889 602.91H547.661H548.445C548.9 602.89 549.351 602.993 549.751 603.209C550.151 603.426 550.485 603.746 550.717 604.137L552.33 606.943L561.418 601.672L559.805 598.866C559.574 598.464 559.46 598.005 559.476 597.541C559.492 597.078 559.638 596.628 559.896 596.242C560.182 595.806 560.443 595.355 560.68 594.89C560.89 594.469 561.214 594.115 561.616 593.87C562.018 593.625 562.481 593.498 562.952 593.504H566.178V582.962H562.952C562.482 582.967 562.019 582.84 561.617 582.595C561.216 582.35 560.891 581.997 560.68 581.576C560.443 581.112 560.182 580.661 559.896 580.225C559.638 579.837 559.493 579.385 559.477 578.92C559.461 578.454 559.575 577.994 559.805 577.589L561.418 574.794L552.33 569.523L550.706 572.341C550.475 572.732 550.141 573.053 549.741 573.267C549.34 573.482 548.888 573.582 548.434 573.556H547.65H546.878C546.414 573.586 545.951 573.487 545.54 573.271C545.13 573.054 544.786 572.728 544.549 572.329L542.936 569.523L533.848 574.794L535.461 577.589C535.692 577.991 535.806 578.45 535.79 578.914C535.774 579.378 535.628 579.828 535.37 580.213C535.084 580.653 534.823 581.108 534.586 581.576C534.375 581.997 534.051 582.35 533.649 582.595C533.247 582.84 532.785 582.967 532.314 582.962H529.088V593.504H532.314C532.785 593.499 533.247 593.626 533.649 593.872C534.051 594.117 534.375 594.47 534.586 594.89C534.828 595.36 535.09 595.814 535.37 596.254C535.628 596.639 535.774 597.089 535.79 597.553C535.806 598.016 535.692 598.475 535.461 598.878L533.848 601.672L542.936 606.943L544.56 604.137ZM539.028 588.233C539.028 586.526 539.534 584.857 540.483 583.437C541.432 582.017 542.78 580.91 544.358 580.257C545.935 579.603 547.671 579.433 549.346 579.766C551.021 580.099 552.559 580.921 553.766 582.128C554.974 583.336 555.796 584.874 556.129 586.549C556.462 588.224 556.291 589.96 555.638 591.537C554.984 593.115 553.878 594.463 552.458 595.412C551.038 596.361 549.369 596.867 547.661 596.867C545.373 596.864 543.178 595.953 541.56 594.335C539.941 592.716 539.031 590.522 539.028 588.233Z" fill="#D9DFE6"/>
<path opacity="0.7" d="M203.795 365.461C204.186 365.693 204.506 366.027 204.722 366.427C204.939 366.827 205.042 367.279 205.021 367.733C205.021 367.994 205.021 368.256 205.021 368.517C205.021 368.778 205.021 369.039 205.021 369.289C205.043 369.744 204.94 370.196 204.724 370.596C204.508 370.996 204.187 371.33 203.795 371.561L201 373.186L206.26 382.274L209.088 380.786C209.491 380.555 209.95 380.441 210.413 380.457C210.877 380.473 211.327 380.618 211.712 380.876C212.153 381.162 212.608 381.424 213.076 381.66C213.495 381.872 213.847 382.197 214.09 382.599C214.333 383.001 214.458 383.463 214.45 383.932V387.159H224.992V383.932C224.987 383.462 225.114 382.999 225.359 382.598C225.605 382.196 225.958 381.871 226.378 381.66C226.84 381.418 227.295 381.157 227.741 380.876C228.127 380.618 228.577 380.473 229.041 380.457C229.504 380.441 229.963 380.555 230.366 380.786L233.16 382.399L238.431 373.311L235.614 371.686C235.225 371.453 234.906 371.118 234.692 370.718C234.478 370.318 234.377 369.867 234.398 369.414C234.398 369.153 234.398 368.892 234.398 368.642C234.398 368.392 234.398 368.119 234.398 367.858C234.378 367.404 234.481 366.952 234.697 366.552C234.913 366.152 235.234 365.818 235.625 365.586L238.431 363.961L233.16 354.873L230.377 356.487C229.972 356.717 229.512 356.831 229.046 356.815C228.581 356.799 228.129 356.654 227.741 356.396C227.303 356.108 226.848 355.846 226.378 355.612C225.958 355.401 225.605 355.076 225.359 354.675C225.114 354.273 224.987 353.81 224.992 353.34V350H214.428V353.226C214.434 353.697 214.307 354.16 214.062 354.562C213.817 354.964 213.463 355.289 213.042 355.498C212.572 355.733 212.118 355.994 211.678 356.282C211.293 356.54 210.843 356.686 210.379 356.702C209.916 356.718 209.457 356.604 209.054 356.373L206.26 354.76L201 363.848L203.795 365.461ZM219.699 359.917C221.406 359.917 223.074 360.423 224.494 361.372C225.913 362.32 227.02 363.667 227.674 365.244C228.328 366.821 228.499 368.557 228.167 370.231C227.835 371.905 227.014 373.444 225.807 374.652C224.601 375.86 223.064 376.683 221.39 377.017C219.716 377.352 217.98 377.182 216.402 376.531C214.825 375.879 213.476 374.774 212.526 373.356C211.575 371.937 211.067 370.269 211.065 368.562C211.065 366.271 211.974 364.074 213.593 362.453C215.212 360.832 217.408 359.92 219.699 359.917Z" fill="#D9DFE6"/>
<path d="M481.991 217H419V293.407H481.991V217Z" fill="#D9DFE6"/>
<path d="M474.789 223.975H426.191V286.432H474.789V223.975Z" fill="white"/>
<path d="M428.088 223.975H426.191V286.432H428.088V223.975Z" fill="#C6CED9"/>
<path d="M483.877 217H481.98V293.407H483.877V217Z" fill="#C6CED9"/>
<path d="M451.569 272.551H463.031V238.414H451.569V272.551Z" fill="#D9DFE6"/>
<path d="M468.598 249.875H436.915V232.018H468.598V249.875ZM438.051 248.74H467.462V233.154H438.051V248.74Z" fill="#D9DFE6"/>
<path d="M470.663 335H426V390H470.663V335Z" fill="#D9DFE6"/>
<path d="M465.556 340.021H431.099V384.979H465.556V340.021Z" fill="white"/>
<path d="M432.444 340.021H431.099V384.979H432.444V340.021Z" fill="#C6CED9"/>
<path d="M472 335H470.655V390H472V335Z" fill="#C6CED9"/>
<path d="M450.776 350.422H442.649V374.994H450.776V350.422Z" fill="#D9DFE6"/>
<path d="M461.167 358.665H438.702V345.811H461.167V358.665ZM439.508 357.847H460.361V346.628H439.508V357.847Z" fill="#D9DFE6"/>
<path d="M564.758 278H501.767V354.407H564.758V278Z" fill="#D9DFE6"/>
<path d="M557.556 284.975H508.958V347.432H557.556V284.975Z" fill="white"/>
<path d="M510.855 284.975H508.958V347.432H510.855V284.975Z" fill="#C6CED9"/>
<path d="M566.644 278H564.747V354.407H566.644V278Z" fill="#C6CED9"/>
<path d="M538.369 301.117H528.554V325.939H538.369V301.117Z" fill="#D9DFE6"/>
<path d="M549.275 333.88H521.761V315.636H549.275V333.88ZM522.897 332.744H548.139V316.772H522.897V332.744Z" fill="#D9DFE6"/>
<path d="M139.463 567.502V731.609H238.624V567.502H139.463ZM148.471 628.323H229.661V671.048H148.471V628.323ZM148.471 575.431H229.661V618.156H148.471V575.431Z" fill="#D9DFE6"/>
<path d="M99.7935 731.608H139.463L139.463 567.513H99.7935L99.7935 731.608Z" fill="#D9DFE6"/>
<path d="M210.36 618.145H229.65V575.431H210.36V618.145Z" fill="#D9DFE6"/>
<path d="M229.536 721.725H148.051V680.147H229.536V721.725ZM148.88 720.873H228.707V680.999H148.88V720.873Z" fill="#D9DFE6"/>
<path d="M184.176 700.141H200.205V692.03H184.176V700.141Z" fill="#D9DFE6"/>
<path d="M195.899 699.959H179.018V692.223H195.899V699.959ZM179.87 699.107H195.047V693.075H179.87V699.107Z" fill="#D9DFE6"/>
<path d="M210.36 671.048H229.65V628.334H210.36V671.048Z" fill="#D9DFE6"/>
<path d="M140.564 668.197C140.564 668.197 149.834 634.935 157.241 623.689C164.648 612.443 178.416 599.924 178.416 599.924C178.416 599.924 178.109 651.214 140.564 668.197Z" fill="#FFC542"/>
<path d="M141.235 667.629C144.356 662.421 147.178 657.039 149.686 651.509C150.746 645.563 152.284 639.713 154.287 634.015C154.287 633.913 154.469 634.015 154.446 634.083C153.219 639.331 151.788 644.546 150.493 649.782C154.23 641.683 157.786 633.492 162.239 625.836C163.268 622.138 164.708 618.568 166.533 615.191C166.533 615.089 166.749 615.191 166.704 615.248C165.575 617.837 164.608 620.492 163.807 623.2C165.908 619.787 168.262 616.537 170.85 613.476C171.009 613.283 171.339 613.476 171.18 613.692C165.216 621.303 161.103 629.948 157.195 638.684C161.403 634.117 165.286 629.262 168.817 624.154C168.817 624.154 168.93 624.154 168.896 624.211C165.201 629.94 161.02 635.34 156.4 640.354C153.549 646.772 150.72 653.213 147.312 659.313C154.128 653.577 159.331 646.136 164.511 638.968C164.625 638.809 164.875 638.968 164.761 639.138C159.592 647.011 154.23 654.417 146.778 660.245C145.269 662.931 143.607 665.529 141.803 668.027C141.739 668.057 141.668 668.07 141.598 668.065C141.528 668.059 141.46 668.035 141.402 667.994C141.344 667.954 141.298 667.898 141.269 667.834C141.239 667.77 141.228 667.699 141.235 667.629Z" fill="#39434F"/>
<path d="M138.804 668.242C138.804 668.242 155.469 637.57 150.63 607.83C145.79 578.089 140.61 567.502 140.61 567.502C140.61 567.502 114.414 613.76 138.804 668.242Z" fill="#FFC542"/>
<path d="M131.965 620.019C133.378 628.451 135.53 636.741 138.395 644.796C138.395 633.879 138.656 622.962 138.951 612.056C137.076 605.432 136.019 598.603 135.805 591.722C135.805 591.528 136.1 591.54 136.111 591.722C136.633 597.62 137.609 603.468 139.031 609.216C139.281 600.211 139.572 591.207 139.906 582.202C139.914 582.177 139.929 582.154 139.951 582.139C139.972 582.123 139.998 582.114 140.025 582.114C140.052 582.114 140.078 582.123 140.099 582.139C140.12 582.154 140.136 582.177 140.144 582.202C140.144 596.266 140.144 610.329 140.053 624.393C142.082 618.955 143.684 613.368 144.847 607.682C144.847 607.626 144.95 607.682 144.95 607.682C144.278 614.233 142.62 620.644 140.031 626.699C139.962 635.696 139.872 644.682 139.667 653.668C142.484 644.137 145.472 634.89 146.313 624.825C146.32 624.802 146.335 624.782 146.354 624.768C146.373 624.754 146.397 624.747 146.421 624.747C146.445 624.747 146.468 624.754 146.487 624.768C146.507 624.782 146.521 624.802 146.529 624.825C146.301 635.969 143.427 647.272 139.713 657.769C139.671 657.868 139.609 657.957 139.531 658.03C139.44 661.313 139.349 664.607 139.235 667.89C139.235 667.987 139.197 668.079 139.129 668.147C139.061 668.216 138.968 668.254 138.872 668.254C138.776 668.254 138.683 668.216 138.615 668.147C138.547 668.079 138.508 667.987 138.508 667.89C138.387 661.165 138.334 654.44 138.349 647.715C134.732 638.892 132.535 629.552 131.84 620.042C131.84 619.963 131.954 619.94 131.965 620.019Z" fill="#39434F"/>
<path d="M133.112 615.282C133.683 617.952 134.062 620.658 134.248 623.382C134.248 623.473 134.112 623.484 134.089 623.382C133.442 620.726 132.987 618.026 132.726 615.305C132.726 615.112 133.067 615.078 133.112 615.282Z" fill="#39434F"/>
<path d="M142.848 592.858C142.848 592.767 143.007 592.801 143.007 592.858C142.982 594.75 142.703 596.63 142.178 598.447C142.173 598.462 142.166 598.476 142.156 598.488C142.146 598.5 142.134 598.51 142.12 598.517C142.106 598.525 142.091 598.529 142.076 598.531C142.06 598.532 142.045 598.531 142.03 598.527C142.015 598.522 142.001 598.515 141.989 598.505C141.977 598.495 141.967 598.483 141.959 598.469C141.952 598.455 141.947 598.44 141.946 598.425C141.944 598.409 141.946 598.394 141.95 598.379C142.314 596.561 142.541 594.71 142.848 592.858Z" fill="#39434F"/>
<path d="M132.726 668.242C132.726 668.242 133.396 636.184 124.217 620.28C115.039 604.376 99.7935 596.254 99.7935 596.254C99.7935 596.254 105.939 652.724 132.726 668.242Z" fill="#FFC542"/>
<path d="M115.936 640.864C119.652 646.461 123.832 651.735 128.432 656.632C126.603 650.089 124.467 643.648 122.07 637.32C116.924 632.776 111.846 628.13 108.654 621.95C108.642 621.929 108.639 621.904 108.645 621.881C108.652 621.857 108.667 621.837 108.688 621.825C108.709 621.813 108.734 621.81 108.758 621.816C108.781 621.823 108.801 621.838 108.813 621.859C112.221 627.335 116.765 631.708 121.525 635.923C117.843 626.387 113.575 617.088 108.745 608.079C108.724 608.033 108.72 607.981 108.736 607.932C108.751 607.883 108.784 607.842 108.828 607.817C108.872 607.791 108.924 607.783 108.974 607.794C109.024 607.804 109.068 607.833 109.097 607.875C112.017 612.593 114.672 617.47 117.049 622.484C116.197 619.076 115.504 615.566 114.618 612.169C114.624 612.154 114.634 612.142 114.647 612.133C114.661 612.124 114.676 612.119 114.692 612.119C114.708 612.119 114.723 612.124 114.737 612.133C114.75 612.142 114.76 612.154 114.766 612.169C116.577 616.541 117.843 621.12 118.537 625.801C121.753 632.899 124.456 640.219 126.626 647.703C126.387 642.909 126.092 638.127 125.592 633.344C125.592 633.253 125.74 633.231 125.751 633.344C126.777 638.658 127.246 644.064 127.148 649.475C128.466 654.247 129.575 659.067 130.477 663.937C130.477 664.062 130.306 664.13 130.272 663.993C129.784 661.949 129.238 659.927 128.682 657.916C128.682 657.916 128.614 657.916 128.58 657.916C123.46 652.976 119.188 647.226 115.936 640.899V640.864Z" fill="#39434F"/>
<path d="M105.337 614.816C106.36 615.952 107.303 617.088 108.291 618.224C109.249 619.187 110.134 620.219 110.938 621.314C110.946 621.325 110.95 621.339 110.949 621.352C110.948 621.366 110.942 621.379 110.932 621.388C110.923 621.398 110.91 621.404 110.896 621.405C110.883 621.406 110.869 621.402 110.858 621.394C109.709 620.528 108.681 619.512 107.802 618.372C106.838 617.311 105.964 616.171 105.19 614.964C105.133 614.839 105.269 614.737 105.337 614.816Z" fill="#39434F"/>
<path d="M158.911 670.594L157.775 685.759L154.265 731.608H123.888L120.4 685.759L119.264 670.594H159.024H158.911Z" fill="#808B9A"/>
<path d="M158.911 670.594L158.207 679.807L120.003 681.34L119.185 670.594H158.945H158.911Z" fill="#39434F"/>
<path d="M116.481 674.774H161.615V663.142H116.481V674.774Z" fill="#808B9A"/>
<path d="M44 731.5L116.747 731.25L189.507 731.17L335 731L480.507 731.16L553.253 731.25L626 731.5L553.253 731.74L480.507 731.83L335 732L189.507 731.83L116.747 731.74L44 731.5Z" fill="#39434F"/>
<path d="M181.994 729.973C185.56 731.251 291.037 733.347 294.999 730.919C295.471 730.676 297.184 695.777 297.184 695.777C297.056 695.278 298.819 691.943 301.516 687.253C309.03 674.129 323.738 650.616 323.738 650.616L261.122 631.69L235.41 683.202L228.855 696.339C228.855 696.339 214.478 701.962 201.929 707.572C194.262 711.009 187.477 714.153 185.905 715.329C181.867 718.472 178.442 728.721 181.994 729.973Z" fill="#FFC4C0"/>
<path d="M181.994 729.974C185.56 731.252 291.037 733.348 294.998 730.92C295.471 730.677 297.184 695.778 297.184 695.778C297.056 695.279 298.819 691.944 301.516 687.254L235.423 683.203L228.867 696.34C228.867 696.34 214.491 701.963 201.942 707.573C194.275 711.01 187.489 714.154 185.917 715.329C181.866 718.473 178.442 728.722 181.994 729.974Z" fill="white"/>
<path d="M181.56 730.37C185.227 731.648 290.833 733.476 294.909 730.996C296.455 730.064 298.321 713.809 297.184 695.778L229.097 694.691C229.097 694.691 189.662 712.122 185.483 715.317C181.304 718.511 177.892 729.067 181.56 730.37Z" fill="#FFC542"/>
<path opacity="0.1" d="M294.909 731.009C293.414 731.903 278.411 732.287 259.767 732.287L295.548 695.803H297.209C298.321 713.808 296.455 730.076 294.909 731.009Z" fill="#202326"/>
<path d="M183.144 726.165C200.856 726.037 272.303 727.175 289.823 728.401C289.963 728.401 289.963 728.504 289.823 728.504C272.265 729.015 200.83 727.302 183.132 726.459C182.761 726.446 182.774 726.165 183.144 726.165Z" fill="#39434F"/>
<path d="M192.345 711.635C194.315 711.616 196.268 712.008 198.078 712.784C199.889 713.561 201.518 714.706 202.862 716.146C205.324 718.704 206.699 722.117 206.696 725.667C206.696 725.769 206.491 725.769 206.479 725.667C205.937 722.158 204.276 718.918 201.743 716.431C199.21 713.944 195.94 712.342 192.422 711.865C192.391 711.876 192.358 711.873 192.329 711.859C192.3 711.845 192.279 711.819 192.268 711.789C192.258 711.758 192.261 711.725 192.275 711.696C192.289 711.667 192.315 711.646 192.345 711.635Z" fill="#39434F"/>
<path d="M223.462 696.378C230.541 696.378 238.72 699.036 243.027 704.914C243.193 705.131 242.86 705.374 242.656 705.259C236.517 701.903 230.035 699.217 223.321 697.247C223.223 697.212 223.139 697.144 223.086 697.053C223.032 696.963 223.012 696.857 223.029 696.754C223.045 696.65 223.098 696.556 223.177 696.487C223.256 696.419 223.357 696.38 223.462 696.378Z" fill="#39434F"/>
<path d="M218.005 698.409C225.085 698.409 233.263 701.08 237.57 706.946C237.736 707.176 237.404 707.406 237.199 707.291C231.055 703.945 224.574 701.259 217.865 699.278C217.766 699.243 217.683 699.175 217.629 699.085C217.576 698.995 217.555 698.888 217.572 698.785C217.589 698.681 217.641 698.587 217.721 698.518C217.8 698.45 217.901 698.411 218.005 698.409Z" fill="#39434F"/>
<path d="M212.498 700.454C219.577 700.454 227.756 703.112 232.062 708.99C232.228 709.22 231.896 709.45 231.692 709.335C225.552 705.98 219.07 703.293 212.357 701.323C212.258 701.288 212.175 701.22 212.121 701.13C212.068 701.039 212.048 700.933 212.064 700.83C212.081 700.726 212.134 700.632 212.213 700.563C212.292 700.495 212.393 700.456 212.498 700.454Z" fill="#39434F"/>
<path d="M206.99 702.486C214.069 702.486 222.248 705.157 226.554 711.023C226.72 711.253 226.388 711.483 226.184 711.381C220.043 708.026 213.561 705.335 206.849 703.355C206.75 703.32 206.667 703.252 206.613 703.162C206.56 703.072 206.54 702.966 206.557 702.862C206.573 702.759 206.626 702.664 206.705 702.596C206.784 702.527 206.885 702.488 206.99 702.486Z" fill="#39434F"/>
<path d="M285.593 711.508C293.542 711.661 293.26 724.018 285.35 723.852C277.44 723.686 277.632 711.341 285.593 711.508Z" fill="#39434F"/>
<path d="M216.561 687.726C220.306 692.736 226.069 695.93 231.065 699.508C231.182 699.579 231.313 699.62 231.449 699.629C231.585 699.638 231.72 699.615 231.845 699.562C231.97 699.508 232.081 699.425 232.167 699.32C232.254 699.216 232.314 699.092 232.343 698.959C232.371 698.965 232.401 698.964 232.428 698.957C232.456 698.95 232.482 698.937 232.504 698.918C232.527 698.9 232.544 698.877 232.556 698.851C232.568 698.825 232.574 698.796 232.573 698.767C232.165 692.256 230.049 685.966 226.439 680.532C224.28 677.401 219.807 674.423 216.216 677.337C212.625 680.251 214.376 684.813 216.561 687.726ZM216.331 681.861C217.175 674.193 223.999 680.199 225.519 682.564C226.48 684.114 227.334 685.728 228.075 687.394C229.531 690.85 230.811 694.377 231.909 697.962C229.57 696.045 227.078 694.359 224.676 692.544C221.737 690.371 215.871 686.103 216.331 681.861Z" fill="#39434F"/>
<path d="M257.812 694.678C257.339 690.039 252.074 688.953 248.33 689.567C241.927 690.807 235.964 693.711 231.04 697.988C231.016 698.004 230.997 698.026 230.983 698.052C230.97 698.078 230.963 698.106 230.963 698.135C230.963 698.164 230.97 698.192 230.983 698.218C230.997 698.243 231.016 698.265 231.04 698.282C230.972 698.396 230.932 698.525 230.922 698.657C230.912 698.79 230.932 698.923 230.981 699.046C231.031 699.17 231.108 699.28 231.207 699.369C231.305 699.458 231.423 699.524 231.551 699.56C237.596 700.608 243.934 702.473 250.119 701.63C253.735 701.195 258.259 699.061 257.812 694.678ZM241.059 699.33C238.068 698.895 235.116 698.307 232.113 697.975C235.5 696.339 238.784 694.576 242.337 693.273C244.033 692.625 245.77 692.091 247.538 691.675C250.272 691.087 259.384 691.675 254.489 697.732C251.78 701.042 244.611 699.854 241.059 699.33Z" fill="#39434F"/>
<path d="M306.269 686.563L232.011 675.318C232.011 675.318 267.703 604.165 289.797 565.559C302.091 544.091 335.699 543.043 352.044 568.754C373.883 603.117 390.828 635.32 400.54 653.159L417.395 654.603L413.753 682.129L357.769 694.665C336.326 697.221 321.272 659.05 320.927 659.702C318.205 664.711 306.269 686.563 306.269 686.563Z" fill="#39434F"/>
<path d="M320.582 659.868C322.69 655.549 324.339 650.923 326.217 646.527C328.096 642.131 329.859 637.952 331.661 633.659C335.303 624.982 339.073 616.343 342.613 607.628C344.593 602.734 346.446 597.775 348.274 592.83C348.285 592.808 348.304 592.791 348.326 592.782C348.349 592.773 348.374 592.772 348.397 592.78C348.42 592.787 348.44 592.803 348.452 592.824C348.465 592.845 348.47 592.87 348.466 592.894C347.021 597.558 345.539 602.222 343.967 606.848C344.389 606.056 344.798 605.251 345.245 604.471C346.434 602.337 347.673 600.229 348.9 598.082C348.903 598.071 348.909 598.061 348.917 598.052C348.925 598.044 348.935 598.037 348.946 598.033C348.957 598.029 348.968 598.027 348.98 598.028C348.991 598.029 349.003 598.033 349.013 598.039C349.023 598.045 349.031 598.053 349.037 598.063C349.044 598.073 349.048 598.084 349.049 598.095C349.051 598.107 349.05 598.118 349.046 598.129C349.042 598.14 349.036 598.15 349.028 598.159C347.89 600.267 346.753 602.376 345.565 604.471C344.977 605.507 344.287 606.542 343.712 607.577C339.365 620.592 334.2 633.319 328.249 645.684C325.885 650.527 323.138 655.166 320.761 660.009C320.684 660.162 320.454 660.022 320.582 659.868Z" fill="#808B9A"/>
<path d="M304.608 673.363C308.186 667.842 316.723 651.115 319.777 645.339C325.949 633.646 331.597 621.71 336.952 609.622C339.968 602.785 342.792 595.884 345.59 588.958C345.59 588.958 345.68 588.958 345.667 588.958C341.405 601.427 336.512 613.673 331.01 625.646C325.566 637.646 308.007 669.977 304.838 673.478C304.723 673.631 304.519 673.504 304.608 673.363Z" fill="#808B9A"/>
<path d="M350.715 598.197C357.104 609.621 363.647 620.969 370.075 632.38C373.321 638.156 376.558 643.933 379.787 649.709C381.295 652.431 382.764 655.178 384.336 657.874C385.683 660.411 387.715 662.519 390.202 663.957C393.18 665.376 396.304 666.469 399.517 667.216C403.121 668.264 406.712 669.401 410.341 670.398C410.375 670.408 410.403 670.431 410.42 670.462C410.437 670.493 410.441 670.53 410.431 670.564C410.42 670.598 410.397 670.626 410.366 670.643C410.335 670.66 410.298 670.663 410.264 670.653C407.031 669.784 403.76 669.043 400.514 668.238C397.523 667.601 394.567 666.807 391.658 665.861C389.089 664.997 386.817 663.425 385.103 661.325C383.36 658.9 381.822 656.336 380.502 653.657C374.087 641.909 367.728 630.14 361.423 618.349C357.832 611.64 354.28 604.918 350.651 598.235C350.638 598.197 350.689 598.107 350.715 598.197Z" fill="#808B9A"/>
<path d="M307.956 676.149C303.509 675.331 298.947 674.948 294.462 674.372L280.967 672.622C272.022 671.459 241.442 666.59 239.142 665.823C239.11 665.814 239.082 665.795 239.063 665.768C239.043 665.742 239.032 665.709 239.032 665.676C239.032 665.643 239.043 665.611 239.063 665.585C239.082 665.558 239.11 665.539 239.142 665.529C241.327 665.466 261.326 668.085 265.824 668.788C274.769 670.066 283.715 671.702 292.66 673.21C295.216 673.644 297.772 674.13 300.327 674.577C302.883 675.024 305.439 675.574 307.995 675.855C308.034 675.86 308.069 675.88 308.093 675.911C308.117 675.943 308.128 675.982 308.122 676.021C308.117 676.06 308.097 676.095 308.066 676.119C308.035 676.143 307.995 676.154 307.956 676.149Z" fill="#808B9A"/>
<path d="M260.955 745.87C262.233 742.331 329.553 661.057 333.974 659.625C334.473 659.434 362.024 680.902 362.024 680.902C363.136 682.512 417.702 673.503 417.702 673.503L415.402 738.676L317.004 732.286C317.004 732.286 303.369 739.532 290.935 745.372C283.267 749.001 276.52 752.03 274.603 752.439C269.581 753.487 259.588 749.385 260.955 745.87Z" fill="#FFC4C0"/>
<path d="M274.578 752.438C276.495 752.042 283.255 749.001 290.909 745.372C303.343 739.532 316.978 732.286 316.978 732.286L338.869 733.705L375.608 679.892C368.03 680.902 362.382 681.451 362.024 680.94C362.024 680.94 334.486 659.472 333.974 659.663C329.553 661.095 262.31 742.356 260.955 745.896C259.601 749.435 269.581 753.499 274.578 752.438Z" fill="white"/>
<path d="M260.368 745.948C261.786 742.331 329.374 661.121 333.859 659.652C335.572 659.076 349.105 668.277 361.973 680.903L318.371 733.207C318.371 733.207 279.434 751.711 274.284 752.797C269.134 753.883 258.962 749.577 260.368 745.948Z" fill="#FFC542"/>
<path d="M264.585 747.493C276.239 734.152 322 679.266 332.505 665.197C332.594 665.082 332.505 665.018 332.428 665.133C320.582 678.091 275.268 733.347 264.367 747.302C264.137 747.621 264.354 747.774 264.585 747.493Z" fill="#39434F"/>
<path d="M281.606 749.998C282.904 748.516 283.881 746.782 284.475 744.903C285.069 743.025 285.267 741.044 285.056 739.085C284.696 735.562 282.999 732.31 280.315 729.999C280.226 729.999 280.111 730.088 280.175 730.165C282.493 732.866 283.871 736.246 284.102 739.798C284.332 743.35 283.403 746.88 281.453 749.858C281.446 749.878 281.446 749.901 281.451 749.922C281.457 749.943 281.469 749.962 281.485 749.976C281.501 749.991 281.521 750.001 281.542 750.005C281.564 750.009 281.586 750.006 281.606 749.998Z" fill="#39434F"/>
<path d="M313.502 736.337C318.115 730.957 321.438 723.034 319.802 715.891C319.738 715.623 319.355 715.712 319.304 715.891C317.837 722.733 315.644 729.399 312.761 735.775C312.687 735.873 312.654 735.997 312.671 736.119C312.688 736.242 312.752 736.352 312.851 736.427C312.949 736.501 313.073 736.534 313.195 736.517C313.317 736.5 313.428 736.436 313.502 736.337Z" fill="#39434F"/>
<path d="M308.365 739.187C312.978 733.795 316.301 725.884 314.665 718.741C314.601 718.46 314.205 718.562 314.154 718.741C312.701 725.603 310.507 732.287 307.611 738.676C307.543 738.776 307.518 738.899 307.541 739.018C307.564 739.136 307.633 739.241 307.733 739.309C307.833 739.376 307.955 739.402 308.074 739.379C308.193 739.356 308.297 739.287 308.365 739.187Z" fill="#39434F"/>
<path d="M303.228 742.024C307.829 736.644 311.164 728.721 309.528 721.578C309.464 721.309 309.068 721.399 309.017 721.578C307.556 728.421 305.363 735.088 302.474 741.462C302.437 741.511 302.41 741.567 302.395 741.627C302.38 741.687 302.377 741.749 302.386 741.811C302.395 741.872 302.416 741.93 302.447 741.983C302.479 742.036 302.52 742.083 302.57 742.12C302.619 742.157 302.676 742.183 302.736 742.199C302.796 742.214 302.858 742.217 302.919 742.208C302.98 742.199 303.039 742.178 303.092 742.147C303.145 742.115 303.191 742.073 303.228 742.024Z" fill="#39434F"/>
<path d="M298.091 744.874C302.691 739.481 306.027 731.571 304.391 724.428C304.327 724.146 303.931 724.249 303.88 724.428C302.417 731.267 300.224 737.929 297.337 744.299C297.261 744.399 297.227 744.525 297.244 744.65C297.261 744.774 297.326 744.887 297.426 744.963C297.526 745.04 297.653 745.073 297.777 745.056C297.902 745.039 298.015 744.974 298.091 744.874Z" fill="#39434F"/>
<path d="M342.549 679.42C347.66 673.299 338.102 665.363 333.029 671.548C327.955 677.733 337.476 685.554 342.549 679.42Z" fill="#39434F"/>
<path d="M323.138 754.318C327.713 753.474 328.364 748.133 327.406 744.453C325.643 738.175 322.258 732.472 317.592 727.917C317.574 727.895 317.551 727.878 317.526 727.866C317.5 727.854 317.473 727.848 317.445 727.848C317.417 727.848 317.389 727.854 317.364 727.866C317.338 727.878 317.316 727.895 317.298 727.917C317.176 727.849 317.041 727.812 316.902 727.808C316.763 727.804 316.626 727.833 316.5 727.893C316.375 727.953 316.266 728.042 316.183 728.153C316.099 728.264 316.043 728.393 316.02 728.53C315.47 734.651 314.129 741.117 315.483 747.213C316.314 750.804 318.818 755.136 323.138 754.318ZM317.119 738.012C317.311 734.996 317.643 732.006 317.732 728.99C319.636 732.223 321.668 735.38 323.253 738.779C324.04 740.413 324.714 742.1 325.272 743.826C326.09 746.51 326.192 755.647 319.815 751.251C316.314 748.9 316.889 741.603 317.132 738.012H317.119Z" fill="#39434F"/>
<path d="M326.844 712.696C322.166 716.837 319.457 722.856 316.301 728.121C316.233 728.245 316.197 728.383 316.195 728.525C316.193 728.666 316.225 728.806 316.29 728.931C316.354 729.057 316.448 729.166 316.563 729.247C316.679 729.328 316.812 729.38 316.953 729.398C316.95 729.427 316.955 729.456 316.965 729.482C316.975 729.509 316.992 729.533 317.012 729.553C317.033 729.572 317.058 729.587 317.085 729.596C317.113 729.604 317.142 729.607 317.17 729.603C323.629 728.648 329.722 726.003 334.83 721.935C337.77 719.533 340.376 714.83 337.169 711.444C334.14 708.262 329.527 710.281 326.844 712.696ZM332.684 711.993C340.428 712.198 334.971 719.52 332.684 721.207C331.214 722.272 329.677 723.241 328.083 724.108C324.786 725.948 321.297 727.277 317.86 728.772C319.572 726.28 321.042 723.661 322.665 721.105C324.633 718.076 328.415 711.84 332.684 711.993Z" fill="#39434F"/>
<path d="M385.972 656.98C385.972 656.98 470.313 645.658 497.928 653.082C536.431 663.459 540.84 709.706 511.193 727.315C473.623 749.614 343.303 737.18 343.303 737.18L379.672 675.841C379.672 675.841 434.276 665.618 483.181 669.618L384.477 681.86L385.972 656.98Z" fill="#39434F"/>
<path d="M377.154 679.995C377.192 679.886 377.222 679.775 377.244 679.663C377.244 679.573 377.244 679.484 377.308 679.394L377.499 678.768C377.625 678.333 377.779 677.906 377.959 677.49C378.126 677.068 378.317 676.66 378.509 676.212C378.716 675.817 378.951 675.437 379.212 675.075C379.212 675.075 379.276 675.075 379.314 675.075H379.378H379.467C379.497 675.068 379.527 675.068 379.557 675.075C385.55 674.117 426.213 669.503 432.257 669.018C438.302 668.532 444.448 668.162 450.544 667.868C462.707 667.231 474.896 667.278 487.053 668.008C488.191 668.072 489.328 668.174 490.465 668.264C490.708 668.187 490.976 668.149 491.219 668.098C491.82 667.97 492.395 667.829 492.996 667.74C494.107 667.548 495.219 667.42 496.331 667.28C498.644 666.999 500.97 666.833 503.27 666.462C503.41 666.462 503.461 666.666 503.27 666.692C500.944 667.152 498.644 667.791 496.318 668.251L494.299 668.622C498.746 669.069 503.18 669.644 507.615 670.283C507.755 670.283 507.755 670.538 507.615 670.526C501.583 669.874 495.487 669.554 489.417 669.401C483.347 669.248 477.367 669.145 471.335 669.261C459.144 669.503 446.94 670.168 434.762 671.037C427.938 671.522 386.457 676.353 379.621 676.366H379.544C379.483 676.54 379.41 676.711 379.327 676.877C379.122 677.273 378.918 677.669 378.701 678.052C378.483 678.436 378.279 678.806 378.036 679.164C377.793 679.522 377.806 679.522 377.678 679.688L377.499 679.956C377.424 680.042 377.36 680.136 377.308 680.238C377.295 680.263 377.065 680.148 377.154 679.995Z" fill="#808B9A"/>
<path d="M361.986 733.36C364.132 729.833 365.998 726.05 367.992 722.408L373.972 711.444C377.959 704.173 392.144 679.675 393.562 677.976C393.652 677.873 393.805 677.976 393.767 678.129C393.064 680.046 384.131 696.275 382.087 699.853C377.985 707.086 373.704 714.153 369.474 721.296C368.273 723.328 367.02 725.334 365.806 727.366C364.592 729.398 363.251 731.366 362.152 733.449C362.088 733.564 361.909 733.487 361.986 733.36Z" fill="#808B9A"/>
<path d="M395.773 684.697C399.402 683.905 403.108 683.419 406.763 682.857C410.418 682.295 414.085 681.656 417.753 681.081C425.088 679.905 432.432 678.798 439.784 677.758C454.454 675.701 469.175 674.091 483.897 673.184C492.229 672.672 500.509 672.455 508.892 672.148C509.071 672.148 509.058 672.442 508.892 672.455C494.069 672.532 479.207 674.104 464.46 675.778C449.713 677.452 435.273 679.33 420.718 681.388L408.386 683.164C404.207 683.777 400.029 684.57 395.837 684.966C395.671 685.004 395.607 684.736 395.773 684.697Z" fill="#808B9A"/>
<path d="M395.761 579.131C387.684 593.188 355.52 636.7 345.399 638.144C334.869 639.652 296.046 636.33 288.967 627.985C285.504 623.909 291.101 588.907 296.481 590.862C301.861 592.818 335.073 600.843 339.341 600.217C343.61 599.59 378.023 566.263 390.713 559.081C412.59 546.686 400.118 571.541 395.761 579.131Z" fill="#FFC4C0"/>
<path d="M305.017 591.974L296.826 635.346C296.826 635.346 335.712 643.307 347.175 639.959C358.638 636.611 390.687 591.041 400.041 573.023C409.396 555.005 401.217 550.264 384.438 561.522C367.66 572.78 340.773 597.916 338.153 598.031C335.533 598.146 305.017 591.974 305.017 591.974Z" fill="#FFC542"/>
<path d="M388.515 564.882C387.55 565.829 386.77 566.947 386.214 568.179C387.449 567.628 388.568 566.847 389.511 565.879C390.48 564.933 391.264 563.815 391.824 562.582C390.588 563.138 389.466 563.918 388.515 564.882ZM304.621 630.975C303.269 630.954 301.925 631.188 300.659 631.665C301.922 632.152 303.267 632.391 304.621 632.368C305.978 632.388 307.327 632.149 308.595 631.665C307.328 631.173 305.98 630.922 304.621 630.924V630.975ZM368.171 618.017C366.814 617.997 365.466 618.231 364.196 618.707C365.464 619.193 366.813 619.432 368.171 619.41H368.695C369.014 618.988 369.372 618.554 369.704 618.132C369.142 618.004 368.682 617.979 368.171 617.966V618.017ZM340.491 628.406C339.571 630.967 339.571 633.768 340.491 636.329C340.971 635.064 341.21 633.721 341.194 632.368C341.223 630.997 340.984 629.634 340.491 628.355V628.406ZM373.065 586.019C372.582 587.282 372.347 588.627 372.375 589.98C372.355 591.332 372.589 592.676 373.065 593.942C373.551 592.678 373.79 591.333 373.768 589.98C373.805 588.609 373.566 587.244 373.065 585.967V586.019ZM388.515 564.882C387.55 565.829 386.77 566.947 386.214 568.179C387.449 567.628 388.568 566.847 389.511 565.879C390.48 564.933 391.264 563.815 391.824 562.582C390.588 563.138 389.466 563.918 388.515 564.882ZM346.689 600.663C345.711 601.602 344.926 602.721 344.376 603.96C345.614 603.403 346.733 602.614 347.673 601.634C348.651 600.696 349.437 599.576 349.986 598.337C348.758 598.872 347.64 599.631 346.689 600.574V600.663ZM307.432 592.549L307.074 592.881C306.1 593.82 305.319 594.94 304.774 596.178C306.011 595.619 307.13 594.829 308.071 593.852C308.378 593.533 308.685 593.2 308.966 592.855L307.432 592.549ZM323.138 613.928C322.195 612.958 321.076 612.177 319.841 611.628C320.396 612.863 321.181 613.982 322.154 614.925C323.1 615.893 324.218 616.677 325.451 617.238C324.894 615.999 324.109 614.876 323.138 613.928ZM368.222 617.966C366.865 617.946 365.518 618.18 364.247 618.656C365.515 619.142 366.864 619.381 368.222 619.359H368.746C369.065 618.937 369.423 618.503 369.755 618.081C369.142 618.004 368.682 617.979 368.171 617.966H368.222ZM373.116 586.019C372.633 587.282 372.398 588.627 372.426 589.98C372.406 591.332 372.64 592.676 373.116 593.942C373.602 592.678 373.841 591.333 373.819 589.98C373.84 588.605 373.583 587.241 373.065 585.967L373.116 586.019Z" fill="white"/>
<path d="M312.045 615.627C312.71 612.19 315.253 598.44 315.624 594.976C315.624 594.976 315.547 594.9 315.521 594.976C314.525 598.21 311.611 611.704 310.946 615.142C309.442 621.971 308.312 628.878 307.56 635.831C307.56 635.946 307.739 636.022 307.777 635.831C309.656 629.224 310.742 622.387 312.045 615.627Z" fill="#39434F"/>
<path opacity="0.1" d="M400.041 573.01C390.687 591.041 358.663 636.598 347.175 639.946C338.485 642.502 314.103 638.541 302.768 636.47L399.479 555.478C404.923 555.938 405.779 561.931 400.041 573.01Z" fill="#202326"/>
<path d="M366.139 658.999L461.764 664.558C461.636 662.616 446.684 607.768 435.925 586.888C422.136 560.116 416.015 556.026 411.926 554.659C406.686 552.908 395.939 552.921 392.757 557.982C375.685 585.329 364.835 657.785 366.139 658.999Z" fill="#FFC542"/>
<path d="M389.448 564C388.936 565.023 388.438 566.058 387.952 567.157C388.497 566.762 389.017 566.335 389.511 565.879C390.48 564.933 391.264 563.815 391.824 562.582C390.963 562.929 390.161 563.407 389.448 564ZM418.226 652.584C417.258 653.529 416.478 654.647 415.925 655.881C417.162 655.333 418.281 654.552 419.222 653.581C420.188 652.632 420.972 651.515 421.535 650.284C420.3 650.84 419.177 651.619 418.226 652.584ZM389.448 564C388.936 565.023 388.438 566.058 387.952 567.157C388.497 566.762 389.017 566.335 389.511 565.879C390.48 564.933 391.264 563.815 391.824 562.582C390.963 562.929 390.161 563.407 389.448 564ZM445.611 610.708C445.372 610.573 445.124 610.453 444.87 610.35C445.227 611.189 445.71 611.968 446.301 612.663C446.071 612.011 445.815 611.346 445.611 610.708ZM424.59 566.428C424.22 566.059 423.832 565.71 423.427 565.381C422.784 564.863 422.075 564.433 421.318 564.103C421.871 565.34 422.656 566.459 423.631 567.4C424.345 568.117 425.148 568.74 426.021 569.253C426.31 569.431 426.613 569.585 426.928 569.713C426.366 568.478 425.572 567.364 424.59 566.428ZM398.687 611.155C397.745 610.181 396.626 609.396 395.39 608.842C396.547 611.314 398.537 613.301 401.012 614.452C400.45 613.209 399.662 612.083 398.687 611.129V611.155ZM422.686 624.394C421.332 624.372 419.987 624.611 418.724 625.097C421.289 626.016 424.095 626.016 426.66 625.097C425.394 624.6 424.045 624.353 422.686 624.368V624.394ZM399.364 582.466C398.011 582.443 396.665 582.682 395.402 583.169C396.669 583.64 398.012 583.874 399.364 583.859C400.716 583.884 402.061 583.65 403.325 583.169C402.064 582.675 400.719 582.428 399.364 582.44V582.466ZM389.013 639.575C388.526 640.838 388.287 642.183 388.31 643.537C388.296 644.889 388.534 646.233 389.013 647.498C389.933 644.937 389.933 642.136 389.013 639.575ZM443.72 635.601C442.778 638.162 442.778 640.975 443.72 643.537C444.639 640.971 444.639 638.166 443.72 635.601ZM424.091 592.817C423.153 595.375 423.153 598.182 424.091 600.74C424.56 599.472 424.794 598.13 424.781 596.778C424.803 595.426 424.568 594.082 424.091 592.817Z" fill="white"/>
<path d="M427.925 566.837C452.09 596.535 478.491 645.875 465.559 655.421C453.751 664.136 412.935 653.07 387.505 641.53C382.675 639.345 405.038 596.689 409.945 599.564C415.112 602.654 420.468 605.416 425.983 607.832C427.376 608.292 420.079 598.35 412.616 574.965C404.923 551.209 414.073 549.854 427.925 566.837Z" fill="#FFC4C0"/>
<path d="M346.97 592.996C346.676 598.108 359.264 597.737 359.264 597.737C357.37 598.846 355.923 600.582 355.174 602.644C354.024 606.337 359.315 609.762 359.315 609.762C357.588 611.316 356.371 613.356 355.826 615.615C355.085 619.27 359.941 623.474 359.941 623.474C359.155 625.78 359.219 628.29 360.12 630.554C362.791 636.509 372.797 637.16 378.918 638.783C385.758 640.759 392.428 643.281 398.866 646.323L412.795 601.29C412.795 601.29 386.802 583.936 379.288 583.885C372.976 583.808 347.418 585.175 346.97 592.996Z" fill="#FFC4C0"/>
<path d="M359.366 597.558C366.113 595.973 373.218 596.011 380.081 596.127C380.234 596.127 380.221 596.369 380.081 596.369C373.269 596.178 366.228 597.801 359.417 597.877C359.38 597.875 359.344 597.859 359.317 597.834C359.289 597.809 359.271 597.775 359.265 597.738C359.259 597.701 359.266 597.663 359.284 597.63C359.302 597.597 359.331 597.572 359.366 597.558Z" fill="#39434F"/>
<path d="M359.532 609.2C361.097 608.996 362.682 608.996 364.248 609.2C365.922 609.315 367.583 609.456 369.244 609.622C372.584 609.954 375.906 610.38 379.212 610.9C379.365 610.9 379.365 611.155 379.212 611.143C375.889 610.823 372.567 610.542 369.231 610.35C367.557 610.261 365.896 610.184 364.222 610.12C362.644 610.157 361.067 610.02 359.519 609.711C359.452 609.71 359.387 609.681 359.34 609.632C359.294 609.583 359.268 609.517 359.27 609.449C359.272 609.382 359.3 609.317 359.349 609.271C359.399 609.224 359.464 609.199 359.532 609.2Z" fill="#39434F"/>
<path d="M360.082 623.435C361.497 623.261 362.932 623.33 364.324 623.64C365.845 623.832 367.366 623.998 368.874 624.164C371.915 624.496 374.944 624.828 377.985 625.058C378.01 625.067 378.033 625.083 378.049 625.105C378.064 625.127 378.073 625.153 378.073 625.18C378.073 625.207 378.064 625.233 378.049 625.255C378.033 625.277 378.01 625.293 377.985 625.301C374.892 625.084 371.787 624.905 368.707 624.662L364.145 624.292C362.75 624.3 361.365 624.058 360.056 623.576C359.992 623.55 360.018 623.448 360.082 623.435Z" fill="#39434F"/>
<path d="M414.022 600.792L401.511 649.352C401.511 649.352 462.134 668.673 469.329 653.454C476.523 638.234 443.464 578.569 423.516 560.972C403.568 543.376 409.983 569.764 410.507 571.873C412.833 581.24 424.654 605.993 424.654 605.993L414.022 600.792Z" fill="#FFC542"/>
<path d="M424.091 592.817C423.153 595.374 423.153 598.182 424.091 600.74C424.56 599.472 424.794 598.13 424.781 596.778C424.803 595.426 424.569 594.082 424.091 592.817ZM443.694 635.575C442.753 638.137 442.753 640.949 443.694 643.511C444.614 640.946 444.614 638.14 443.694 635.575ZM422.66 624.368C421.307 624.346 419.962 624.585 418.699 625.071C421.264 625.991 424.069 625.991 426.634 625.071C425.375 624.587 424.035 624.348 422.686 624.368H422.66ZM424.564 566.428C423.628 565.453 422.513 564.668 421.28 564.115C422.436 566.584 424.421 568.569 426.89 569.725C426.34 568.49 425.56 567.371 424.59 566.428H424.564ZM466.556 649.785C465.617 648.814 464.502 648.03 463.272 647.472C463.832 648.709 464.616 649.831 465.585 650.782C466.529 651.749 467.648 652.53 468.882 653.082C468.332 651.847 467.551 650.728 466.581 649.785H466.556ZM448.129 612.65C447.182 611.685 446.064 610.905 444.832 610.349C445.974 612.823 447.957 614.812 450.429 615.959C449.889 614.721 449.116 613.598 448.154 612.65H448.129ZM418.2 652.584C417.855 652.967 417.497 653.338 417.178 653.747L418.622 654.105C418.814 653.926 419.018 653.76 419.197 653.581C420.163 652.632 420.946 651.514 421.51 650.284C420.283 650.842 419.17 651.622 418.226 652.584H418.2Z" fill="white"/>
<path d="M415.146 600.881C422.072 603.743 440.078 613.954 443.937 617.966C443.95 617.976 443.962 617.989 443.97 618.004C443.979 618.018 443.985 618.034 443.987 618.051C443.989 618.067 443.988 618.084 443.984 618.1C443.98 618.117 443.973 618.132 443.963 618.145C443.953 618.159 443.94 618.17 443.925 618.179C443.911 618.187 443.895 618.193 443.878 618.195C443.862 618.198 443.845 618.197 443.829 618.192C443.812 618.188 443.797 618.181 443.784 618.171C439.95 615.142 417.664 602.721 414.162 601.162C414.162 601.162 413.97 601.597 413.894 601.712C413.817 601.827 413.677 601.712 413.689 601.609C413.765 601.206 413.872 600.808 414.009 600.421L415.146 600.881Z" fill="#39434F"/>
<path d="M418.877 628.637C419.721 625.25 423.018 611.653 423.58 608.19C423.58 608.19 423.503 608.114 423.478 608.19C422.302 611.372 418.66 624.675 417.804 628.074C415.923 634.802 414.412 641.627 413.28 648.521C413.28 648.636 413.459 648.712 413.497 648.521C415.734 642.093 417.203 635.32 418.877 628.637Z" fill="#39434F"/>
<path d="M425.126 606.325C423.427 602.044 421.293 597.942 419.389 593.738C417.485 589.533 415.555 585.393 413.766 581.15C413.766 581.087 413.651 581.15 413.677 581.15C414.724 584.051 415.76 586.914 416.897 589.763C416.526 589.303 416.194 588.831 415.862 588.345C415.248 587.476 414.699 586.569 414.162 585.661C414.162 585.661 414.047 585.661 414.06 585.661C414.472 586.67 414.995 587.63 415.619 588.524C416.096 589.185 416.612 589.816 417.165 590.415C417.638 591.578 418.111 592.728 418.622 593.878C420.501 598.121 421.906 602.3 424.411 606.223C424.5 606.427 425.19 606.466 425.126 606.325Z" fill="#39434F"/>
<path d="M460.32 658.552C447.796 660.302 408.45 651.191 401.754 649.44C401.869 648.725 401.869 648.469 402.035 647.459C402.035 647.332 401.856 647.255 401.818 647.396C401.575 648.341 400.821 650.232 401.089 650.348C404.284 651.804 448.116 661.849 460.307 658.845C460.498 658.807 460.511 658.526 460.32 658.552Z" fill="#39434F"/>
<path d="M363.174 640.023L311.969 645.812L294.104 574.429L345.322 568.64L363.174 640.023Z" fill="#808B9A"/>
<path d="M360.657 640.304L309.452 646.093L291.599 574.71L342.805 568.934L360.657 640.304Z" fill="#202326"/>
<path d="M319.048 605.098C319.336 606.43 320.103 607.611 321.202 608.416C322.302 609.222 323.659 609.596 325.016 609.468C325.656 609.408 326.275 609.212 326.832 608.893C327.39 608.575 327.874 608.141 328.251 607.621C328.628 607.101 328.89 606.507 329.02 605.878C329.15 605.249 329.144 604.6 329.003 603.973C328.713 602.64 327.944 601.459 326.842 600.654C325.74 599.849 324.381 599.475 323.023 599.603C322.384 599.663 321.765 599.859 321.207 600.178C320.65 600.496 320.167 600.93 319.791 601.45C319.415 601.97 319.154 602.565 319.026 603.194C318.898 603.823 318.906 604.472 319.048 605.098Z" fill="white"/>
<path d="M291.791 589.354C289.542 595.284 283.28 602.913 283.101 607.628C283.01 608.787 283.295 609.944 283.914 610.927C284.534 611.91 285.454 612.667 286.539 613.085C286.539 613.085 282.079 615.769 282.616 620.075C282.884 622.286 286.667 623.794 286.667 623.794C286.667 623.794 283.178 626.107 283.894 629.902C284.456 632.931 288.162 633.979 288.162 633.979C288.162 633.979 285.849 637.812 287.42 640.662C290.59 646.527 316.927 644.419 320.211 634.4C321.745 629.723 315.342 630.567 315.342 630.567C315.342 630.567 324.288 627.091 323.956 621.621C323.623 616.152 315.406 617.788 315.406 617.788C315.406 617.788 324.007 614.35 323.138 608.753C322.218 602.913 314.192 605.942 314.192 605.942C314.192 605.942 319.738 601.507 318.026 597.367C315.291 590.53 304.915 600.242 299.024 599.322L295.062 590.045L291.791 589.354Z" fill="#FFC4C0"/>
<path d="M287.178 598.108C288.826 592.306 281.287 585.917 282.066 580.141C283.114 572.333 292.353 579.169 295.165 590.159L295.855 599.105L287.178 598.108Z" fill="#FFC4C0"/>
<path d="M288.724 634.234C288.71 634.24 288.699 634.25 288.691 634.262C288.682 634.275 288.678 634.289 288.678 634.304C288.678 634.319 288.682 634.334 288.691 634.346C288.699 634.359 288.71 634.368 288.724 634.374C297.901 635.87 307.316 634.533 315.713 630.541C315.982 630.413 315.879 629.927 315.56 630.017C306.866 632.714 297.826 634.135 288.724 634.234Z" fill="#39434F"/>
<path d="M286.539 623.858C286.437 623.858 286.437 624.024 286.539 624.049C295.637 625.455 306.985 623.845 315.726 618.082C316.02 617.877 316.097 617.404 315.726 617.609C309.669 621.008 295.024 623.909 286.539 623.858Z" fill="#39434F"/>
<path d="M314.755 605.404C306.193 610.605 296.864 612.548 286.909 613.161C286.781 613.161 286.807 613.34 286.909 613.365C291.829 614.388 298.104 613.365 302.921 612.088C307.413 611.048 311.551 608.844 314.921 605.698C315.061 605.583 314.934 605.289 314.755 605.404Z" fill="#39434F"/>
<path d="M398.163 573.828C403.76 574.045 411.325 564.065 413.638 556.73C413.791 556.232 412.156 551.618 410.431 545.855C409.396 542.366 408.335 538.456 407.619 534.827C407.466 534.073 385.895 544.858 385.895 544.858C388.097 549.141 389.767 553.677 390.866 558.366C390.955 558.868 391.002 559.376 391.007 559.886C391.001 559.971 391.001 560.057 391.007 560.142C391.109 563.068 392.757 573.611 398.163 573.828Z" fill="#FFC4C0"/>
<path d="M406.201 535.185C406.354 541.574 405.46 557.139 393.422 559.81C392.645 559.988 391.854 560.099 391.058 560.142C391.046 560.057 391.046 559.971 391.058 559.886C391.058 559.377 391.015 558.868 390.93 558.366C389.827 553.67 388.157 549.126 385.959 544.833C385.959 544.833 401.46 537.063 406.201 535.185Z" fill="#39434F"/>
<path d="M411.491 510.904C413.83 519.185 408.935 542.852 403.006 548.066C394.355 555.58 380.438 556.027 374.113 545.676C367.992 535.644 374.867 504.873 381.512 500.183C391.301 493.321 408.041 498.649 411.491 510.904Z" fill="#FFC4C0"/>
<path d="M387.889 524.936C387.889 524.936 387.991 525.051 387.978 525.114C387.544 526.686 387.326 528.552 388.63 529.421C388.63 529.421 388.63 529.536 388.63 529.51C386.905 528.846 387.224 526.367 387.889 524.936Z" fill="#39434F"/>
<path d="M389.703 523.619C392.259 524.041 391.275 529.203 388.873 528.82C386.47 528.437 387.531 523.274 389.703 523.619Z" fill="#39434F"/>
<path d="M378.931 523.21C378.931 523.146 378.79 523.21 378.777 523.325C378.509 524.935 377.934 526.737 376.388 526.98C376.388 526.98 376.324 527.069 376.388 527.069C378.202 527.171 378.943 524.782 378.931 523.21Z" fill="#39434F"/>
<path d="M377.832 521.255C375.276 520.553 374.075 525.677 376.426 526.367C378.777 527.057 379.953 521.856 377.832 521.255Z" fill="#39434F"/>
<path d="M392.144 520.744C391.503 520.417 390.88 520.054 390.278 519.658C389.571 519.365 388.979 518.849 388.591 518.188C388.518 517.957 388.52 517.708 388.599 517.478C388.677 517.248 388.827 517.049 389.026 516.91C389.47 516.7 389.962 516.612 390.452 516.655C390.941 516.698 391.411 516.87 391.812 517.153C392.71 517.61 393.407 518.384 393.767 519.326C393.83 519.543 393.83 519.774 393.766 519.992C393.703 520.209 393.578 520.404 393.408 520.553C393.237 520.702 393.028 520.799 392.804 520.833C392.58 520.867 392.351 520.836 392.144 520.744Z" fill="#39434F"/>
<path d="M375.94 518.201C376.655 518.246 377.372 518.246 378.087 518.201C378.845 518.326 379.623 518.196 380.298 517.831C380.48 517.679 380.608 517.473 380.663 517.243C380.719 517.012 380.698 516.771 380.605 516.553C380.337 516.126 379.957 515.781 379.506 515.556C379.055 515.33 378.551 515.233 378.049 515.275C377.045 515.197 376.049 515.493 375.25 516.106C375.069 516.258 374.937 516.462 374.872 516.691C374.807 516.919 374.812 517.161 374.886 517.387C374.961 517.612 375.101 517.811 375.288 517.956C375.476 518.101 375.703 518.186 375.94 518.201Z" fill="#39434F"/>
<path d="M386.879 535.209C386.346 535.76 385.706 536.194 384.998 536.487C384.291 536.779 383.53 536.923 382.764 536.909C382.097 536.902 381.434 536.798 380.796 536.602C380.669 536.577 380.545 536.539 380.426 536.487L380.081 536.359C379.999 536.326 379.931 536.267 379.887 536.19C379.843 536.114 379.826 536.025 379.838 535.938C379.831 535.883 379.831 535.827 379.838 535.772V535.631C380.055 534.353 380.541 532.551 380.541 532.551C380.055 532.679 377.551 533.254 377.717 532.628C378.993 527.101 380.83 521.719 383.199 516.565C383.217 516.537 383.244 516.516 383.276 516.505C383.307 516.494 383.341 516.493 383.373 516.503C383.405 516.513 383.433 516.534 383.452 516.561C383.471 516.588 383.481 516.621 383.48 516.654C382.368 521.766 380.349 526.635 379.148 531.759C380.037 531.534 380.954 531.439 381.87 531.478C382.036 531.567 380.86 535.043 380.809 535.605C381.797 535.909 382.836 536.011 383.863 535.903C384.891 535.795 385.886 535.481 386.79 534.979C386.892 534.966 387.033 535.094 386.879 535.209Z" fill="#39434F"/>
<path d="M382.125 536.769C382.719 537.639 383.53 538.339 384.477 538.801C385.001 539.039 385.586 539.106 386.151 538.993C387.428 538.737 387.428 537.625 387.301 536.667C387.203 536.156 387.045 535.658 386.828 535.185C385.47 536.201 383.822 536.756 382.125 536.769Z" fill="#39434F"/>
<path d="M384.477 538.775C385.001 539.013 385.586 539.08 386.151 538.967C387.428 538.711 387.428 537.6 387.301 536.641C386.659 536.629 386.031 536.832 385.519 537.219C385.007 537.606 384.64 538.154 384.477 538.775Z" fill="#FFC2E6"/>
<path d="M412.424 529.446C406.137 529.753 403.019 522.201 404.616 516.195C404.616 516.195 387.863 518.06 387.352 504.694C386.137 506.488 384.499 507.955 382.582 508.964C380.665 509.974 378.529 510.496 376.362 510.482L374.394 515.377C372.694 514.853 370.969 509.946 375.237 506.214C375.237 506.214 375.672 499.531 380.681 495.621C382.038 494.5 383.689 493.794 385.436 493.588C387.184 493.382 388.954 493.684 390.534 494.458C393.486 492.417 397.114 491.602 400.655 492.183C402.504 492.52 404.246 493.295 405.735 494.442C407.225 495.589 408.418 497.075 409.217 498.777C409.217 498.777 417.446 500.528 418.737 506.444C419.135 508.114 419.177 509.848 418.86 511.535C418.543 513.221 417.874 514.822 416.897 516.233C416.897 516.233 418.929 518.584 417.766 523.581C417.025 526.724 414.315 529.357 412.424 529.446Z" fill="#39434F"/>
<path d="M387.748 503.454C387.595 504.538 387.556 505.634 387.633 506.726C387.68 507.805 387.864 508.875 388.183 509.907C388.771 511.955 390.113 513.704 391.94 514.802C393.819 515.836 395.917 516.409 398.061 516.476C399.147 516.476 400.246 516.54 401.332 516.476C402.418 516.412 403.517 516.284 404.616 516.208C403.543 516.45 402.457 516.642 401.37 516.859C400.284 517.076 399.16 517.013 398.048 517.089C395.779 517.107 393.542 516.554 391.543 515.479C389.575 514.267 388.162 512.33 387.607 510.086C387.088 507.9 387.137 505.617 387.748 503.454Z" fill="#39434F"/>
<path d="M378.969 511.02C380.807 510.437 382.534 509.551 384.081 508.4C384.832 507.828 385.502 507.157 386.074 506.406C386.654 505.612 387.143 504.755 387.531 503.851C387.42 504.854 387.093 505.822 386.572 506.688C386.058 507.573 385.372 508.346 384.553 508.962C383.746 509.576 382.85 510.063 381.895 510.406C380.961 510.773 379.972 510.981 378.969 511.02Z" fill="#39434F"/>
<path d="M405.996 530.188C405.996 530.188 411.696 522.712 415.095 524.782C418.494 526.852 414.009 537.817 409.843 539.171C409.322 539.381 408.764 539.484 408.203 539.473C407.641 539.462 407.088 539.337 406.576 539.107C406.064 538.876 405.604 538.545 405.223 538.132C404.842 537.719 404.549 537.234 404.361 536.705L405.996 530.188Z" fill="#FFC4C0"/>
<path d="M413.728 527.888V528.003C410.801 529.051 409.178 531.645 408.003 534.392C408.183 534.112 408.421 533.873 408.702 533.694C408.983 533.514 409.299 533.397 409.629 533.351C409.959 533.305 410.295 533.331 410.614 533.427C410.934 533.522 411.228 533.686 411.478 533.907C411.542 533.907 411.478 534.073 411.389 534.06C410.893 533.877 410.353 533.853 409.842 533.99C409.332 534.128 408.877 534.42 408.539 534.827C407.977 535.517 407.493 536.267 407.095 537.063C406.942 537.306 406.482 537.152 406.597 536.859V536.795C406.725 533.102 409.779 528.092 413.728 527.888Z" fill="#39434F"/>
<g opacity="0.2">
<path d="M396.949 532.399C396.939 532.454 396.941 532.511 396.955 532.566C396.969 532.62 396.995 532.671 397.031 532.714C397.067 532.757 397.112 532.792 397.163 532.816C397.214 532.84 397.269 532.852 397.326 532.852C397.382 532.852 397.438 532.84 397.488 532.816C397.539 532.792 397.584 532.757 397.62 532.714C397.656 532.671 397.682 532.62 397.697 532.566C397.711 532.511 397.713 532.454 397.703 532.399C397.701 532.349 397.69 532.299 397.669 532.253C397.648 532.207 397.618 532.166 397.581 532.132C397.545 532.097 397.501 532.07 397.454 532.053C397.407 532.035 397.357 532.027 397.307 532.029C397.212 532.035 397.122 532.076 397.056 532.145C396.99 532.213 396.952 532.304 396.949 532.399Z" fill="#202326"/>
<path d="M388.975 532.374C388.981 532.474 389.026 532.568 389.099 532.637C389.173 532.706 389.27 532.744 389.371 532.744C389.421 532.741 389.47 532.728 389.516 532.705C389.561 532.683 389.601 532.652 389.635 532.614C389.668 532.576 389.693 532.532 389.709 532.484C389.726 532.436 389.732 532.386 389.729 532.335C389.727 532.285 389.715 532.236 389.694 532.191C389.673 532.146 389.644 532.106 389.607 532.072C389.57 532.039 389.526 532.013 389.479 531.997C389.432 531.981 389.382 531.974 389.332 531.977C389.233 531.984 389.14 532.029 389.073 532.103C389.006 532.177 388.971 532.274 388.975 532.374Z" fill="#202326"/>
<path d="M391.901 535.044C391.891 535.1 391.893 535.157 391.907 535.211C391.921 535.265 391.947 535.316 391.983 535.359C392.019 535.402 392.064 535.437 392.115 535.461C392.166 535.485 392.222 535.497 392.278 535.497C392.334 535.497 392.39 535.485 392.441 535.461C392.492 535.437 392.537 535.402 392.573 535.359C392.609 535.316 392.635 535.265 392.649 535.211C392.663 535.157 392.665 535.1 392.655 535.044C392.655 534.993 392.645 534.943 392.625 534.896C392.604 534.85 392.575 534.808 392.538 534.773C392.501 534.738 392.457 534.711 392.409 534.694C392.361 534.677 392.31 534.67 392.259 534.674C392.164 534.68 392.075 534.721 392.009 534.79C391.942 534.858 391.904 534.949 391.901 535.044Z" fill="#202326"/>
<path d="M396.604 529.268C396.605 529.318 396.617 529.368 396.638 529.414C396.659 529.46 396.688 529.501 396.725 529.535C396.762 529.57 396.805 529.597 396.852 529.614C396.899 529.632 396.95 529.64 397 529.639C397.076 529.636 397.149 529.611 397.211 529.567C397.272 529.523 397.319 529.461 397.346 529.39C397.372 529.319 397.377 529.242 397.36 529.168C397.343 529.094 397.304 529.027 397.249 528.975C397.193 528.924 397.124 528.889 397.049 528.877C396.974 528.865 396.898 528.875 396.829 528.906C396.76 528.938 396.701 528.989 396.661 529.053C396.621 529.117 396.601 529.192 396.604 529.268Z" fill="#202326"/>
<path d="M392.936 531.581C392.953 531.669 392.999 531.748 393.068 531.806C393.137 531.863 393.224 531.894 393.313 531.894C393.403 531.894 393.49 531.863 393.558 531.806C393.627 531.748 393.674 531.669 393.69 531.581C393.689 531.53 393.677 531.481 393.656 531.435C393.635 531.389 393.606 531.348 393.569 531.313C393.532 531.279 393.489 531.252 393.442 531.234C393.395 531.217 393.344 531.208 393.294 531.21C393.199 531.216 393.11 531.258 393.044 531.326C392.978 531.395 392.939 531.486 392.936 531.581Z" fill="#202326"/>
<path d="M373.129 526.917C373.131 526.967 373.142 527.017 373.163 527.062C373.184 527.108 373.213 527.15 373.25 527.184C373.287 527.218 373.33 527.245 373.377 527.263C373.425 527.281 373.475 527.289 373.525 527.287C373.624 527.281 373.717 527.236 373.784 527.162C373.851 527.088 373.886 526.991 373.883 526.891C373.876 526.79 373.832 526.696 373.758 526.627C373.685 526.559 373.587 526.52 373.487 526.521C373.387 526.527 373.294 526.572 373.228 526.646C373.161 526.72 373.125 526.817 373.129 526.917Z" fill="#202326"/>
<path d="M376.183 528.948C376.19 529.049 376.234 529.143 376.308 529.212C376.381 529.281 376.478 529.319 376.579 529.319C376.679 529.312 376.772 529.267 376.838 529.193C376.905 529.119 376.941 529.022 376.937 528.923C376.935 528.872 376.924 528.823 376.903 528.777C376.882 528.731 376.853 528.69 376.816 528.655C376.779 528.621 376.736 528.594 376.689 528.576C376.641 528.558 376.591 528.55 376.541 528.552C376.441 528.559 376.349 528.604 376.282 528.678C376.215 528.752 376.18 528.849 376.183 528.948Z" fill="#202326"/>
<path d="M375.531 531.491C375.538 531.591 375.583 531.684 375.657 531.75C375.731 531.817 375.828 531.852 375.927 531.849C375.978 531.847 376.027 531.836 376.073 531.815C376.119 531.794 376.16 531.764 376.195 531.728C376.229 531.691 376.256 531.648 376.274 531.601C376.291 531.553 376.3 531.503 376.298 531.453C376.291 531.353 376.246 531.26 376.172 531.194C376.098 531.127 376.001 531.091 375.902 531.095C375.851 531.095 375.8 531.105 375.754 531.125C375.707 531.146 375.665 531.175 375.63 531.212C375.595 531.25 375.569 531.293 375.552 531.341C375.535 531.389 375.528 531.44 375.531 531.491Z" fill="#202326"/>
<path d="M372.873 529.855C372.88 529.956 372.924 530.05 372.998 530.119C373.072 530.188 373.169 530.226 373.269 530.226C373.369 530.219 373.462 530.174 373.529 530.1C373.595 530.026 373.631 529.929 373.627 529.83C373.626 529.779 373.614 529.73 373.593 529.684C373.572 529.638 373.543 529.597 373.506 529.562C373.469 529.528 373.426 529.501 373.379 529.483C373.332 529.466 373.281 529.457 373.231 529.459C373.132 529.466 373.039 529.511 372.972 529.585C372.905 529.659 372.87 529.756 372.873 529.855Z" fill="#202326"/>
</g>
<path d="M520 447.204C520.002 455.339 517.743 463.315 513.475 470.24C509.207 477.166 503.099 482.77 495.832 486.425C488.564 490.081 480.424 491.645 472.32 490.944C464.215 490.242 456.465 487.301 449.934 482.451L428.441 487.948L437.337 467.914C434.214 462.031 432.471 455.513 432.24 448.856C432.009 442.199 433.296 435.576 436.004 429.49C438.712 423.404 442.77 418.014 447.869 413.729C452.969 409.444 458.978 406.375 465.439 404.756C471.901 403.138 478.646 403.011 485.164 404.385C491.682 405.76 497.802 408.6 503.059 412.69C508.317 416.781 512.575 422.014 515.51 427.994C518.445 433.974 519.98 440.543 520 447.204Z" fill="white"/>
<path d="M520 447.204C520.018 455.367 517.77 463.374 513.506 470.334C512.426 472.063 511.238 473.721 509.947 475.298C508.64 476.849 507.238 478.317 505.748 479.693C502.787 482.465 499.451 484.807 495.838 486.65C492.222 488.515 488.366 489.874 484.38 490.689C482.378 491.08 480.35 491.329 478.313 491.436C476.282 491.596 474.241 491.596 472.21 491.436C463.998 490.787 456.129 487.86 449.489 482.985L450.023 483.091L428.566 488.714L427 489.123L427.658 487.646L436.554 467.594V468.342C433.354 462.354 431.567 455.714 431.329 448.929C431.092 442.144 432.41 435.395 435.184 429.199C437.974 423.012 442.128 417.537 447.336 413.186C452.544 408.902 458.654 405.851 465.207 404.261C471.76 402.671 478.588 402.584 485.181 404.005C491.717 405.483 497.84 408.407 503.097 412.563C508.345 416.688 512.592 421.947 515.519 427.947C518.446 433.946 519.978 440.529 520 447.204ZM520 447.204C520.012 440.555 518.496 433.992 515.57 428.021C512.644 422.051 508.385 416.832 503.122 412.768C497.86 408.704 491.734 405.903 485.218 404.581C478.701 403.259 471.968 403.451 465.538 405.144C459.167 406.785 453.257 409.865 448.262 414.146C443.321 418.455 439.375 423.785 436.697 429.768C434.085 435.763 432.868 442.272 433.138 448.806C433.401 455.334 435.115 461.722 438.156 467.505L438.351 467.879L438.191 468.27L429.082 488.322L428.174 487.237L449.721 481.899L450.005 481.81L450.254 482.006C456.662 486.848 464.287 489.816 472.281 490.582C474.274 490.777 476.279 490.813 478.277 490.689C480.283 490.617 482.28 490.403 484.255 490.048C488.21 489.325 492.043 488.049 495.642 486.258C499.279 484.488 502.631 482.185 505.588 479.426C507.072 478.069 508.474 476.626 509.787 475.103C511.073 473.534 512.261 471.888 513.346 470.174C517.644 463.28 519.948 455.329 520 447.204Z" fill="#39434F"/>
<path d="M474.754 423.096C472.402 425.447 470.799 428.443 470.15 431.705C469.5 434.967 469.832 438.348 471.105 441.421C472.377 444.494 474.532 447.12 477.297 448.968C480.062 450.816 483.314 451.803 486.639 451.803C489.965 451.803 493.216 450.816 495.982 448.968C498.747 447.12 500.902 444.494 502.174 441.421C503.447 438.348 503.779 434.967 503.129 431.705C502.48 428.443 500.877 425.447 498.525 423.096C495.369 419.95 491.095 418.183 486.639 418.183C482.184 418.183 477.909 419.95 474.754 423.096ZM495.091 430.96C494.5 431.549 493.701 431.88 492.867 431.88C492.033 431.88 491.233 431.549 490.643 430.96C490.062 430.365 489.738 429.567 489.738 428.736C489.738 427.905 490.062 427.107 490.643 426.512C491.233 425.923 492.033 425.593 492.867 425.593C493.701 425.593 494.5 425.923 495.091 426.512C495.387 426.802 495.622 427.148 495.782 427.53C495.943 427.912 496.025 428.322 496.025 428.736C496.025 429.15 495.943 429.56 495.782 429.942C495.622 430.324 495.387 430.67 495.091 430.96Z" fill="#FFC542"/>
<path d="M472.461 438.27L468.875 441.855L479.783 452.763L483.368 449.178L472.461 438.27Z" fill="#FFC542"/>
<path d="M470.609 443.575L478.01 450.977L476.196 452.792L473.135 451.849L474.078 454.909L471.071 457.916L467.015 457.062L467.851 461.118L467.175 461.812L464.115 460.869L465.058 463.929L461.997 462.987L462.94 466.047L460.556 468.413L456.5 467.577L457.336 471.633L455.254 473.715L447.016 474.551L447.853 466.331L470.609 443.575Z" fill="#ECEFF2"/>
<path d="M472.828 447.806L451.629 469.005L452.144 469.521L473.343 448.322L472.828 447.806Z" fill="#D9DFE6"/>
<path opacity="0.1" d="M501.247 434.946C501.265 438.825 499.749 442.553 497.03 445.319C494.273 448.127 490.516 449.728 486.581 449.771C482.646 449.815 478.854 448.297 476.035 445.55C474.624 444.168 473.502 442.519 472.736 440.698C471.971 438.877 471.576 436.921 471.576 434.946C471.576 432.971 471.971 431.015 472.736 429.194C473.502 427.373 474.624 425.724 476.035 424.342C478.846 421.59 482.635 420.066 486.568 420.106C490.502 420.146 494.258 421.747 497.012 424.555C499.746 427.32 501.269 431.058 501.247 434.946ZM501.247 434.946C501.252 432.086 500.404 429.29 498.811 426.915C497.218 424.54 494.953 422.693 492.306 421.612C489.658 420.531 486.749 420.264 483.948 420.845C481.148 421.427 478.585 422.83 476.587 424.876C474.075 427.604 472.712 431.196 472.784 434.904C472.855 438.612 474.355 442.149 476.97 444.778C479.586 447.407 483.115 448.925 486.822 449.016C490.53 449.107 494.129 447.763 496.87 445.266C498.245 443.92 499.339 442.315 500.09 440.544C500.842 438.772 501.235 436.87 501.247 434.946Z" fill="#202326"/>
</svg>
